<svg xmlns="http://www.w3.org/2000/svg" viewBox="0 0 201 136">
  <defs>
    <style>
      .a {
        fill: #fff;
      }
    </style>
  </defs>
  <title>arrow</title>
  <g>
    <path class="a" d="M184.2,8.92H168a13.78,13.78,0,0,0-11,5.54L104.75,84.21a5.32,5.32,0,0,1-8.5,0L44.08,14.46A13.81,13.81,0,0,0,33,8.92H16.79a5.45,5.45,0,0,0-4.36,8.71L95.28,128.4a6.5,6.5,0,0,0,10.43,0L188.56,17.64A5.45,5.45,0,0,0,184.2,8.92Z"/>
    <path class="a" d="M124.48,17.63,105.71,42.72a6.53,6.53,0,0,1-10.43,0L76.52,17.63A5.45,5.45,0,0,1,80.9,8.92h39.21A5.45,5.45,0,0,1,124.48,17.63Z"/>
  </g>
</svg>
