<svg xmlns="http://www.w3.org/2000/svg" viewBox="0 0 150 150">
  <defs>
    <style>
      .a {
        fill: #39c;
      }

      .b {
        fill: #fff;
      }
    </style>
  </defs>
  <title>Asset 6</title>
  <g>
    <circle class="a" cx="75" cy="75" r="75"/>
    <g>
      <path class="b" d="M78.13,91.94H31.25V38.81h75V35.69a3.13,3.13,0,0,0-3.13-3.13h-75A3.13,3.13,0,0,0,25,35.69V95.06a3.13,3.13,0,0,0,3.12,3.13h50Z"/>
      <path class="b" d="M114.78,67.88a15.62,15.62,0,1,0-23.3,0c-6.35,5.23-9.22,12-10.22,24.06,0,5.26,0,11.14,6.77,12.3l2.7,13.45c1.78,7.14,6.65,11.75,12.4,11.75h0c5.76,0,10.63-4.61,12.44-11.89l2.67-13.31C125,103.08,125,97.17,125,91.68,124,79.83,121.14,73.11,114.78,67.88ZM103.13,48.19a9.38,9.38,0,1,1-9.37,9.37A9.38,9.38,0,0,1,103.13,48.19Zm12.5,50a3.12,3.12,0,0,0-3.06,2.51l-3.09,15.48c-1.06,4.26-3.56,7-6.35,7s-5.28-2.75-6.31-6.87L93.7,100.7a3.13,3.13,0,0,0-3.07-2.51c-3.12,0-3.12,0-3.13-6,1-11.76,3.75-16.13,8.21-19.7a2.92,2.92,0,0,0,.55-.56l.22-.29a14.76,14.76,0,0,0,2,.74l2.62,3.92L96.88,86.73l6.25,8.33,6.25-8.33-4.16-10.42,2.61-3.92a14.9,14.9,0,0,0,2-.74l.22.29a2.92,2.92,0,0,0,.55.56c4.46,3.57,7.23,7.94,8.2,19.44C118.76,98.19,118.76,98.19,115.63,98.19Z"/>
      <polygon class="b" points="87.5 45.06 87.5 41.94 37.5 41.94 34.38 41.94 34.38 45.06 34.38 88.81 37.5 88.81 37.5 45.06 87.5 45.06"/>
      <rect class="b" x="28.12" y="101.31" width="50" height="3.12"/>
      <path class="b" d="M82,46.79a1.58,1.58,0,0,0-2.1.7l-8,15.95L67,53.74a1.58,1.58,0,0,0-1.48-.86,1.56,1.56,0,0,0-1.38,1L55.86,76,51.3,69.2a1.51,1.51,0,0,0-1.46-.69,1.55,1.55,0,0,0-1.29,1L42.3,85.11a1.56,1.56,0,0,0,.87,2,1.7,1.7,0,0,0,.58.11,1.56,1.56,0,0,0,1.45-1L50.35,73.4,55,80.3A1.56,1.56,0,0,0,57.71,80l8.12-21.65,4.65,9.3a1.62,1.62,0,0,0,2.79,0l9.38-18.75A1.57,1.57,0,0,0,82,46.79Z"/>
    </g>
  </g>
</svg>
