<svg xmlns="http://www.w3.org/2000/svg" viewBox="0 0 150 150">
  <defs>
    <style>
      .a {
        fill: #39c;
      }

      .b {
        fill: #fff;
      }
    </style>
  </defs>
  <title>Asset 2</title>
  <g>
    <circle class="a" cx="75" cy="75" r="75"/>
    <g>
      <path class="b" d="M44.82,50.22a8.57,8.57,0,1,0-8.57-8.57A8.58,8.58,0,0,0,44.82,50.22Zm0-14.11a5.54,5.54,0,1,1-5.54,5.54A5.54,5.54,0,0,1,44.82,36.11Z"/>
      <path class="b" d="M105.18,50.22a8.57,8.57,0,1,0-8.57-8.57A8.58,8.58,0,0,0,105.18,50.22Zm0-14.11a5.54,5.54,0,1,1-5.53,5.54A5.55,5.55,0,0,1,105.18,36.11Z"/>
      <path class="b" d="M115.43,53.55H95.63a10.3,10.3,0,0,0-9.45-6.22H63.82a10.31,10.31,0,0,0-9.45,6.22H34.57A9.58,9.58,0,0,0,25,63.12V86.6a5.55,5.55,0,0,0,5.54,5.55,5.43,5.43,0,0,0,2.51-.63v26.9a6.65,6.65,0,0,0,11.77,4.18,6.65,6.65,0,0,0,11.76-4.18v-30a5.76,5.76,0,0,0,2.85.77,5.88,5.88,0,0,0,2.88-.78V118A7.11,7.11,0,0,0,75,122.3,7.12,7.12,0,0,0,87.7,118V88.38a5.66,5.66,0,0,0,5.72,0v30a6.65,6.65,0,0,0,11.76,4.18A6.65,6.65,0,0,0,117,118.42V91.52a5.43,5.43,0,0,0,2.51.63A5.55,5.55,0,0,0,125,86.6V63.12A9.58,9.58,0,0,0,115.43,53.55ZM30.54,89.11A2.51,2.51,0,0,1,28,86.6V63.12a6.54,6.54,0,0,1,6.54-6.54H43.3v1.51a1.52,1.52,0,0,0,3,0V56.58h7.3a9.11,9.11,0,0,0-.11,1.05V83.25A5.85,5.85,0,0,0,54.25,86H36.08V64.51a1.52,1.52,0,0,0-3,0V86.6A2.51,2.51,0,0,1,30.54,89.11Zm23,29.31a3.61,3.61,0,0,1-7.22,0V94.31a1.52,1.52,0,1,0-3,0v24.11a3.61,3.61,0,0,1-7.22,0V89.07H53.55ZM84.66,118a4.08,4.08,0,0,1-8.15,0V91.65a1.52,1.52,0,0,0-3,0V118a4.07,4.07,0,0,1-8.14,0V85.81H84.66Zm5.91-31.83a2.88,2.88,0,0,1-2.87-2.88V59.15a1.52,1.52,0,0,0-3,0V82.78H65.34V59.15a1.52,1.52,0,0,0-3,0v24.1a2.88,2.88,0,1,1-5.76,0V57.63a7.28,7.28,0,0,1,7.27-7.27h9.77a1.49,1.49,0,0,0,2.82,0h9.77a7.28,7.28,0,0,1,7.27,7.27V83.25A2.88,2.88,0,0,1,90.57,86.13Zm23.35,32.29a3.61,3.61,0,0,1-7.22,0V94.31a1.52,1.52,0,1,0-3,0v24.11a3.61,3.61,0,0,1-7.22,0V89.07h17.47Zm8-31.82a2.51,2.51,0,0,1-5,0V64.51a1.52,1.52,0,0,0-3,0V86H95.75a5.85,5.85,0,0,0,.73-2.79V57.63a9.11,9.11,0,0,0-.11-1.05h7.3v1.51a1.52,1.52,0,0,0,3,0V56.58h8.73A6.54,6.54,0,0,1,122,63.12Z"/>
      <path class="b" d="M75,43.42a9.21,9.21,0,1,0-9.21-9.21A9.22,9.22,0,0,0,75,43.42ZM75,28a6.18,6.18,0,1,1-6.18,6.18A6.18,6.18,0,0,1,75,28Z"/>
      <path class="b" d="M75,68.41a1.52,1.52,0,0,0-1.52,1.51v1.82a1.52,1.52,0,1,0,3,0V69.92A1.51,1.51,0,0,0,75,68.41Z"/>
      <path class="b" d="M75,53.81a1.52,1.52,0,0,0-1.52,1.51v1.83a1.52,1.52,0,1,0,3,0V55.32A1.51,1.51,0,0,0,75,53.81Z"/>
      <path class="b" d="M75,61.11a1.52,1.52,0,0,0-1.52,1.51v1.83a1.52,1.52,0,0,0,3,0V62.62A1.51,1.51,0,0,0,75,61.11Z"/>
      <path class="b" d="M75,75.7a1.52,1.52,0,0,0-1.52,1.52v1a1.52,1.52,0,0,0,3,0v-1A1.51,1.51,0,0,0,75,75.7Z"/>
    </g>
  </g>
</svg>
