<svg xmlns="http://www.w3.org/2000/svg" viewBox="0 0 150 150">
  <defs>
    <style>
      .a {
        fill: #39c;
      }

      .b {
        fill: #fff;
      }
    </style>
  </defs>
  <title>Asset 4</title>
  <g>
    <circle class="a" cx="75" cy="75" r="75"/>
    <g>
      <path class="b" d="M41.42,52.27a1.54,1.54,0,0,0,1.23-.62c.18-.26.38-.52.57-.78A1.52,1.52,0,0,0,40.81,49l-.62.84A1.51,1.51,0,0,0,40.53,52,1.48,1.48,0,0,0,41.42,52.27Z"/>
      <path class="b" d="M46.48,46.49a1.5,1.5,0,0,0,1-.42c.45-.42.9-.83,1.37-1.24a1.51,1.51,0,1,0-2-2.28c-.5.43-1,.87-1.47,1.33a1.52,1.52,0,0,0,0,2.14A1.53,1.53,0,0,0,46.48,46.49Z"/>
      <path class="b" d="M53.28,41.25a1.5,1.5,0,0,0,.79-.22c.53-.33,1.06-.64,1.6-.94a1.51,1.51,0,1,0-1.48-2.64c-.58.32-1.15.65-1.71,1A1.51,1.51,0,0,0,52,40.53,1.49,1.49,0,0,0,53.28,41.25Z"/>
      <path class="b" d="M61.53,37.43l.92-.31a1.52,1.52,0,0,0-1-2.88l-1,.34a1.52,1.52,0,0,0,1,2.85Z"/>
      <path class="b" d="M55.75,110A40.37,40.37,0,0,1,42.41,98a1.51,1.51,0,1,0-2.47,1.75,43.38,43.38,0,0,0,14.35,12.83,1.47,1.47,0,0,0,.73.19,1.52,1.52,0,0,0,.73-2.84Z"/>
      <path class="b" d="M87.55,37.12a40.27,40.27,0,0,1,19.8,14.53,1.54,1.54,0,0,0,2.12.34,1.52,1.52,0,0,0,.34-2.12A43.35,43.35,0,0,0,88.5,34.24a1.52,1.52,0,0,0-1,2.88Z"/>
      <path class="b" d="M107.58,98A40.23,40.23,0,0,1,94.25,110,1.51,1.51,0,0,0,95,112.8a1.47,1.47,0,0,0,.73-.19,43.27,43.27,0,0,0,14.35-12.83A1.52,1.52,0,0,0,107.58,98Z"/>
      <path class="b" d="M84.87,104a1.52,1.52,0,0,0-.22,2.14,8.11,8.11,0,0,1,1.86,5.21V122h-23V111.35a8.11,8.11,0,0,1,1.86-5.21A1.52,1.52,0,1,0,63,104.22a11.3,11.3,0,0,0-2.54,7.13v12.14A1.52,1.52,0,0,0,62,125H88a1.52,1.52,0,0,0,1.51-1.51V111.35A11.3,11.3,0,0,0,87,104.22,1.52,1.52,0,0,0,84.87,104Z"/>
      <path class="b" d="M83,94.48a8,8,0,1,0-8,8A8,8,0,0,0,83,94.48Zm-13,0a5,5,0,1,1,5,5A5,5,0,0,1,70,94.48Z"/>
      <path class="b" d="M84.87,42.55a1.52,1.52,0,0,0-.22,2.14,8.22,8.22,0,0,1,1.86,5.21V60.52h-23V49.9a8.22,8.22,0,0,1,1.86-5.21A1.52,1.52,0,1,0,63,42.77a11.3,11.3,0,0,0-2.54,7.13V62A1.52,1.52,0,0,0,62,63.55H88A1.52,1.52,0,0,0,89.54,62V49.9A11.3,11.3,0,0,0,87,42.77,1.52,1.52,0,0,0,84.87,42.55Z"/>
      <path class="b" d="M75,41.06a8,8,0,1,0-8-8A8,8,0,0,0,75,41.06Zm0-13a5,5,0,1,1-5,5A5,5,0,0,1,75,28Z"/>
      <path class="b" d="M54.08,92.76V80.63a11.31,11.31,0,0,0-2.54-7.14,1.52,1.52,0,0,0-2.35,1.92,8.14,8.14,0,0,1,1.86,5.22V91.25H28V80.63a8.14,8.14,0,0,1,1.86-5.22,1.52,1.52,0,0,0-2.35-1.92A11.31,11.31,0,0,0,25,80.63V92.76a1.52,1.52,0,0,0,1.52,1.52H52.57A1.52,1.52,0,0,0,54.08,92.76Z"/>
      <path class="b" d="M39.54,71.78a8,8,0,1,0-8-8A8,8,0,0,0,39.54,71.78Zm0-13a5,5,0,1,1-5,5A5,5,0,0,1,39.54,58.76Z"/>
      <path class="b" d="M122.46,73.49a1.52,1.52,0,0,0-2.35,1.92A8.14,8.14,0,0,1,122,80.63V91.25H99V80.63a8.14,8.14,0,0,1,1.86-5.22,1.52,1.52,0,0,0-2.35-1.92,11.33,11.33,0,0,0-2.54,7.14V92.76a1.52,1.52,0,0,0,1.51,1.52h26.05A1.52,1.52,0,0,0,125,92.76V80.63A11.33,11.33,0,0,0,122.46,73.49Z"/>
      <path class="b" d="M102.43,63.75a8,8,0,1,0,8-8A8,8,0,0,0,102.43,63.75Zm8-5a5,5,0,1,1-5,5A5,5,0,0,1,110.46,58.76Z"/>
    </g>
  </g>
</svg>
