<svg xmlns="http://www.w3.org/2000/svg" viewBox="0 0 150 150">
  <defs>
    <style>
      .a {
        fill: #39c;
      }

      .b {
        fill: #fff;
      }
    </style>
  </defs>
  <title>Asset 3</title>
  <g>
    <circle class="a" cx="75" cy="75" r="75"/>
    <g>
      <path class="b" d="M53.13,31.2a1.55,1.55,0,0,0,.69-.16A47.08,47.08,0,0,1,63,27.55a1.52,1.52,0,1,0-.78-2.93,49.7,49.7,0,0,0-9.76,3.72,1.51,1.51,0,0,0,.68,2.86Z"/>
      <path class="b" d="M37.43,43.83a1.52,1.52,0,0,0,1.17-.55,47.5,47.5,0,0,1,7-6.92A1.51,1.51,0,1,0,43.67,34a51.12,51.12,0,0,0-7.42,7.36,1.52,1.52,0,0,0,.22,2.13A1.5,1.5,0,0,0,37.43,43.83Z"/>
      <path class="b" d="M121.89,75.7a47,47,0,0,1-1.58,9.69,1.51,1.51,0,0,0,1.06,1.86,1.37,1.37,0,0,0,.4,0,1.51,1.51,0,0,0,1.46-1.11,50.83,50.83,0,0,0,1.69-10.35l-1.51-.23Z"/>
      <path class="b" d="M27.81,61.7a1.37,1.37,0,0,0,.4,0,1.51,1.51,0,0,0,1.46-1.12,46.24,46.24,0,0,1,3.55-9.15,1.52,1.52,0,0,0-2.7-1.38,50.51,50.51,0,0,0-3.78,9.74A1.52,1.52,0,0,0,27.81,61.7Z"/>
      <path class="b" d="M27.07,81.88l.23,0a1.52,1.52,0,0,0,1.27-1.73A46.89,46.89,0,0,1,28,73c0-.89,0-1.79.08-2.7a1.52,1.52,0,0,0-1.44-1.59,1.55,1.55,0,0,0-1.59,1.42c0,1-.08,1.92-.08,2.87a50.37,50.37,0,0,0,.57,7.57A1.52,1.52,0,0,0,27.07,81.88Z"/>
      <path class="b" d="M121.42,65.72A1.51,1.51,0,0,0,122.91,67l.24,0a1.52,1.52,0,0,0,1.26-1.73,49.83,49.83,0,0,0-2.68-10.1,1.51,1.51,0,1,0-2.83,1.08A46.53,46.53,0,0,1,121.42,65.72Z"/>
      <path class="b" d="M114.46,47.49a1.51,1.51,0,0,0,1.28.69,1.56,1.56,0,0,0,.82-.24,1.53,1.53,0,0,0,.45-2.1,51.22,51.22,0,0,0-6.56-8.13,1.52,1.52,0,0,0-2.15,2.14A47.6,47.6,0,0,1,114.46,47.49Z"/>
      <path class="b" d="M72.69,26.05a47.8,47.8,0,0,1,9.8.55l.24,0a1.51,1.51,0,0,0,.24-3A51,51,0,0,0,72.54,23a1.51,1.51,0,1,0,.15,3Z"/>
      <path class="b" d="M92,29.16a47.67,47.67,0,0,1,8.73,4.48,1.46,1.46,0,0,0,.82.25,1.51,1.51,0,0,0,.84-2.78,49.84,49.84,0,0,0-9.3-4.78A1.52,1.52,0,0,0,92,29.16Z"/>
      <path class="b" d="M59.08,65a8.57,8.57,0,1,0-8.57-8.57A8.57,8.57,0,0,0,59.08,65Zm0-14.11a5.54,5.54,0,1,1-5.54,5.54A5.54,5.54,0,0,1,59.08,50.91Z"/>
      <path class="b" d="M80.05,49a9.21,9.21,0,1,0,9.21-9.21A9.22,9.22,0,0,0,80.05,49Zm9.21-6.18A6.18,6.18,0,1,1,83.08,49,6.18,6.18,0,0,1,89.26,42.83Z"/>
      <path class="b" d="M89.26,81.38a1.51,1.51,0,0,0,1.51-1.51V74.21a1.51,1.51,0,0,0-3,0v5.66A1.51,1.51,0,0,0,89.26,81.38Z"/>
      <path class="b" d="M89.26,92a1.51,1.51,0,0,0,1.51-1.52v-3a1.51,1.51,0,1,0-3,0v3A1.51,1.51,0,0,0,89.26,92Z"/>
      <path class="b" d="M123.14,97.57a4,4,0,0,0-3.44-.74,6.21,6.21,0,0,0-1.28-3.57,5.73,5.73,0,0,0-4.59-2.08h-.09a12.58,12.58,0,0,0-3,.53V72.43a10.31,10.31,0,0,0-10.3-10.3H78.08a10.3,10.3,0,0,0-9.45,6.22H48.83a9.58,9.58,0,0,0-9.57,9.57V88.76a4.26,4.26,0,0,0-2-.52h-8A4.29,4.29,0,0,0,25,92.52v22.83a4.28,4.28,0,0,0,4.28,4.28h8a4.29,4.29,0,0,0,3.58-1.93,7.26,7.26,0,0,0,3.1,1.71A110.55,110.55,0,0,0,71.61,123c15.34,0,33.63-3.5,49.69-16.11.36-.25,3.54-2.5,3.69-5.48A4.61,4.61,0,0,0,123.14,97.57ZM38.5,115.35a1.25,1.25,0,0,1-1.25,1.25h-8A1.25,1.25,0,0,1,28,115.35V92.52a1.26,1.26,0,0,1,1.25-1.25h8a1.26,1.26,0,0,1,1.25,1.25Zm75.28-21.14h.06a2.7,2.7,0,0,1,2.22.94,3.67,3.67,0,0,1,.66,2.55c-1,.37-2.09.83-3.33,1.35a112.35,112.35,0,0,1-17.78,6.07,5.57,5.57,0,0,0,.28-1.42A10,10,0,0,0,95.5,100,93,93,0,0,0,107,96.24C109.91,95.12,112.21,94.23,113.78,94.21Zm-43-21.78a7.28,7.28,0,0,1,7.27-7.27h9.67v1.51a1.51,1.51,0,1,0,3,0V65.16h9.67a7.28,7.28,0,0,1,7.27,7.27v20.3l-1.8.68c-1.19.46-2.53,1-4,1.46V74a1.51,1.51,0,1,0-3,0V95.87c-1.59.5-3.25,1-5.09,1.4a7.34,7.34,0,0,0-5-1.87c-4,0-6.93,0-9.28-.21V74a1.52,1.52,0,0,0-3,0V94.87A14.84,14.84,0,0,1,70.81,93ZM42.29,77.92a6.54,6.54,0,0,1,6.54-6.54h8.73v3.53a1.52,1.52,0,0,0,3,0V71.38h7.29c0,.35-.1.69-.1,1.05V91.35c-2.71-1.27-7.06-2.45-17.44-2.94V79.32a1.52,1.52,0,1,0-3,0v9l-1.25,0a7,7,0,0,0-3.77,1Zm77.22,26.55c-27.33,21.45-61.42,15.55-74.8,12a4.26,4.26,0,0,1-3.18-4.15l.08-16.81a4.28,4.28,0,0,1,4.26-4.25H46c16.64.42,19.77,2.27,22.52,3.91C71.59,97,74.28,98.63,89,98.43a4.11,4.11,0,0,1,2.86,1.09,5,5,0,0,1,1.05,4c0,.44-.12,1.77-2.76,2.82,0,0,0,0-.07,0h0c-2.81,1.08-9,2-22.52.17a1.51,1.51,0,0,0-.4,3,105.08,105.08,0,0,0,13.7,1.07,30.3,30.3,0,0,0,10.15-1.36h0a112.06,112.06,0,0,0,23.62-7.39c3.07-1.29,6-2.51,6.61-2s.8,1.1.79,1.4C121.91,102.45,120.34,103.89,119.51,104.47Z"/>
    </g>
  </g>
</svg>
