<svg xmlns="http://www.w3.org/2000/svg" viewBox="0 0 150 150">
  <defs>
    <style>
      .a {
        fill: #39c;
      }

      .b {
        fill: #fff;
      }
    </style>
  </defs>
  <title>Asset 5</title>
  <g>
    <circle class="a" cx="75" cy="75" r="75"/>
    <g>
      <path class="b" d="M55.33,43.42a9.21,9.21,0,1,0-9.2-9.21A9.22,9.22,0,0,0,55.33,43.42Zm0-15.39a6.18,6.18,0,1,1-6.17,6.18A6.18,6.18,0,0,1,55.33,28Z"/>
      <path class="b" d="M68,105.83V60.29a4.54,4.54,0,0,1,2.9,1.32L83.56,74.25a6.06,6.06,0,0,0,8.36,0,5.91,5.91,0,0,0,0-8.36L77.35,51.32a13.57,13.57,0,0,0-9.64-4H43a13.57,13.57,0,0,0-9.64,4l-6.25,6.26a7,7,0,0,0,0,10l6.52,6.52a6.1,6.1,0,0,0,7.73.85,6,6,0,0,0,2.51-4.34,5.89,5.89,0,0,0-1.71-4.69l-3.33-3.33,1-1A4.51,4.51,0,0,1,43,60.28h1.19a1.52,1.52,0,1,0,0-3H43a7.53,7.53,0,0,0-5.36,2.22l-2,2a1.51,1.51,0,0,0,0,2.14L40,68a2.91,2.91,0,0,1,.83,2.29,2.86,2.86,0,0,1-1.24,2.12,3,3,0,0,1-3.84-.51L29.21,65.4a4,4,0,0,1,0-5.68l6.25-6.26a10.56,10.56,0,0,1,7.5-3.1H67.71a10.56,10.56,0,0,1,7.5,3.1L89.77,68A2.88,2.88,0,0,1,85.7,72.1L73.07,59.47a7.53,7.53,0,0,0-5.36-2.22A2.72,2.72,0,0,0,65,60V82.78H45.67V80a1.52,1.52,0,1,0-3,0v38a7.11,7.11,0,0,0,14.21,0v-6.37a7.16,7.16,0,0,0,4.07,1.29A7.09,7.09,0,0,0,68,105.83Zm-3,0a4.08,4.08,0,0,1-8.15,0V91.65a1.52,1.52,0,0,0-3,0V118a4.08,4.08,0,0,1-8.15,0V85.81H65Z"/>
      <path class="b" d="M55.33,61.47A1.52,1.52,0,0,0,56.85,60v-2a1.52,1.52,0,0,0-3,0v2A1.52,1.52,0,0,0,55.33,61.47Z"/>
      <path class="b" d="M53.82,78.14a1.52,1.52,0,0,0,3,0v-2a1.52,1.52,0,0,0-3,0Z"/>
      <path class="b" d="M53.82,69.05a1.52,1.52,0,0,0,3,0V67a1.52,1.52,0,0,0-3,0Z"/>
      <path class="b" d="M123.48,25H88.71a1.54,1.54,0,0,0-1.32.77,1.52,1.52,0,0,0,0,1.53L93,36.62l-5.6,9.32a1.51,1.51,0,0,0,1.3,2.29H122V84.57l-16.6,18-11-11.94,0,0s0,0,0,0a2.12,2.12,0,0,0-.2-.12,1.22,1.22,0,0,0-.26-.16,1.28,1.28,0,0,0-.28-.07,2.89,2.89,0,0,0-.29,0,2.7,2.7,0,0,0-.28,0,1.28,1.28,0,0,0-.28.07,1.22,1.22,0,0,0-.26.16.82.82,0,0,0-.2.12s0,0,0,0a.1.1,0,0,0-.05,0L62.77,122.46a1.53,1.53,0,0,0,.09,2.14,1.5,1.5,0,0,0,1,.4,1.48,1.48,0,0,0,1.11-.49L93.24,93.89l17.07,18.5a1.47,1.47,0,0,0,1.11.49,1.55,1.55,0,0,0,1-.4,1.53,1.53,0,0,0,.08-2.15l-5.1-5.52L124.6,86.19a1.86,1.86,0,0,0,.11-.19,1.08,1.08,0,0,0,.18-.29,1.94,1.94,0,0,0,.07-.33,1.43,1.43,0,0,0,0-.22V26.52A1.52,1.52,0,0,0,123.48,25ZM122,45.2H91.39l4.68-7.8a1.51,1.51,0,0,0,0-1.56L91.39,28H122Z"/>
      <path class="b" d="M112.45,68.59A1.51,1.51,0,0,0,114,67.07v-1h0V55.91a1.52,1.52,0,0,0-3,0V66.06h0v1A1.52,1.52,0,0,0,112.45,68.59Z"/>
      <path class="b" d="M110.93,76.08a1.52,1.52,0,0,0,3,0v-1.8a1.52,1.52,0,1,0-3,0Z"/>
      <path class="b" d="M110.93,84.29a1.52,1.52,0,1,0,3,0v-1a1.52,1.52,0,0,0-3,0Z"/>
    </g>
  </g>
</svg>
