<svg xmlns="http://www.w3.org/2000/svg" xmlns:xlink="http://www.w3.org/1999/xlink" viewBox="0 0 775 769">
  <defs>
    <style>
      .a {
        mask: url(#a);
      }

      .b {
        opacity: 0.03;
      }

      .c {
        fill: none;
        stroke: #00ffec;
        stroke-width: 2px;
      }

      .c, .d {
        stroke-miterlimit: 10;
      }

      .d {
        fill: #fff;
        stroke: #39c;
        stroke-width: 17.17px;
      }

      .e {
        fill: url(#b);
      }

      .f {
        fill: url(#c);
      }

      .g {
        fill: url(#d);
      }

      .h {
        fill: url(#e);
      }

      .i {
        fill: url(#f);
      }

      .j {
        fill: url(#g);
      }

      .k {
        fill: url(#h);
      }

      .l {
        fill: url(#i);
      }

      .m {
        fill: #062e3a;
      }
    </style>
    <mask id="a" x="403.18" y="195" width="3770.82" height="2171.15" maskUnits="userSpaceOnUse"/>
    <linearGradient id="b" x1="201.65" y1="437.72" x2="201.65" y2="273.53" gradientUnits="userSpaceOnUse">
      <stop offset="0" stop-color="#002653" stop-opacity="0"/>
      <stop offset="0.35" stop-color="#155584" stop-opacity="0.4"/>
      <stop offset="0.66" stop-color="#2579ab" stop-opacity="0.73"/>
      <stop offset="0.88" stop-color="#2f90c3" stop-opacity="0.92"/>
      <stop offset="1" stop-color="#39c"/>
    </linearGradient>
    <linearGradient id="c" x1="254.39" y1="437.72" x2="254.39" y2="240.09" xlink:href="#b"/>
    <linearGradient id="d" x1="307.13" y1="437.72" x2="307.13" y2="273.53" xlink:href="#b"/>
    <linearGradient id="e" x1="359.88" y1="437.72" x2="359.88" y2="243.13" xlink:href="#b"/>
    <linearGradient id="f" x1="412.62" y1="437.72" x2="412.62" y2="209.68" xlink:href="#b"/>
    <linearGradient id="g" x1="465.37" y1="437.72" x2="465.37" y2="221.85" xlink:href="#b"/>
    <linearGradient id="h" x1="518.11" y1="437.72" x2="518.11" y2="252.25" xlink:href="#b"/>
    <linearGradient id="i" x1="570.85" y1="437.72" x2="570.85" y2="267.45" xlink:href="#b"/>
  </defs>
  <title>logo2</title>
  <g class="a">
    <g class="b">
      <polygon class="c" points="405.18 1297 2255.01 229 4104.82 1297 2254.99 2365 405.18 1297"/>
      <line class="c" x1="757.52" y1="1500.43" x2="2607.35" y2="432.43"/>
      <line class="c" x1="669.44" y1="1449.57" x2="2519.27" y2="381.57"/>
      <line class="c" x1="581.35" y1="1398.72" x2="2431.18" y2="330.72"/>
      <line class="c" x1="493.26" y1="1347.86" x2="2343.09" y2="279.86"/>
    </g>
  </g>
  <g>
    <circle class="d" cx="386.25" cy="384.75" r="332.75"/>
    <g>
      <rect class="e" x="186.72" y="273.53" width="29.86" height="164.19"/>
      <rect class="f" x="239.46" y="240.09" width="29.86" height="197.63"/>
      <rect class="g" x="292.2" y="273.53" width="29.86" height="164.19"/>
      <rect class="h" x="344.95" y="243.13" width="29.86" height="194.59"/>
      <rect class="i" x="397.69" y="209.68" width="29.86" height="228.04"/>
      <rect class="j" x="450.43" y="221.85" width="29.86" height="215.88"/>
      <rect class="k" x="503.18" y="252.25" width="29.86" height="185.47"/>
      <rect class="l" x="555.92" y="267.45" width="29.86" height="170.27"/>
    </g>
    <g>
      <path class="m" d="M288.33,590.53q-5.54,0-6.58-.74c-.69-.49-1.37-2.13-2-4.91l-5.41-24.47H255.63L249,590.53h-3.44a10,10,0,0,1-2.46-.25,2,2,0,0,1-1.23-.61,2.26,2.26,0,0,1-.25-1.23q0-.86,19.43-86.43h7.87l20,88.52Zm-14.87-36.88-1.11-3.08-6.15-32.82h-2.33l-6,32.82-1.11,3.08Z"/>
      <path class="m" d="M326,584.88V557.7q0-18.81-1.11-23.17c-.73-2.91-2.95-4.36-6.63-4.36l-12,4.3.49,3.07v53q-5.41,0-6.33-.74c-.62-.49-.92-2.13-.92-4.91V524.51q5.4,0,6.33.43c.61.29.92,1.37.92,3.26l11.06-4.55q11.07,0,13.28,5.66t2.21,28.52v32.7q-5.4,0-6.33-.74C326.26,589.3,326,587.66,326,584.88Z"/>
      <path class="m" d="M368.24,544.18V537.3q0-4.92-1.16-6.21c-.79-.86-2.65-1.29-5.6-1.29L355.33,531a10.56,10.56,0,0,1-1.84.24q-4.31,0-4.3-5.53l12.29-2.09q9.22,0,11.19,2.46c.65.82,1.17,1.52,1.54,2.09a6.89,6.89,0,0,1,.67,3.07,80,80,0,0,1,.37,8.24v51c-3.69,0-5.86-.26-6.52-.8s-1-2.31-1-5.35a26.54,26.54,0,0,0-3.44,2.71q-4.68,4.3-7.87,4.3-7.5,0-8.91-4.73t-1.42-26.25q0-8.24,7.13-10.94,5.91-2.22,15-2.22h.49Zm-.49,10a41.9,41.9,0,0,0-10.76,1q-3.62,1.05-3.62,4.25,0,22.49,1,24.58c.33.58,1.06.87,2.21.87a8.61,8.61,0,0,0,3.75-1,28.34,28.34,0,0,0,4.31-2.64,22.33,22.33,0,0,1,3.62-2.28l-.49-3.07V557.21l.49-3.07Z"/>
      <path class="m" d="M390,585.37V500.54q5.42,0,6.33.73t.93,4.92V591c-3.61,0-5.72-.24-6.33-.74S390,588.15,390,585.37Z"/>
      <path class="m" d="M407.21,615.12v-5.78a11,11,0,0,0,9-4,15.33,15.33,0,0,0,3.26-10q0-2.48-13-70.82,5.28,0,6.33.68c.69.45,1.33,2.11,1.9,5l8.61,51.75h1.6l9-57.41q5.91,0,6.27,1.11a2.52,2.52,0,0,1,.25,1.35q0,6.27-11.93,63.56c-.16.74-.45,2.25-.86,4.55s-.72,3.85-.92,4.67-.6,2.15-1.17,4a13,13,0,0,1-1.72,3.87c-.57.74-1.37,1.72-2.4,3a8.54,8.54,0,0,1-3.38,2.58A30.16,30.16,0,0,1,407.21,615.12Z"/>
      <path class="m" d="M450,562.5V534.22l.49-3.07H445.2v-6.64h5.29l-.49-4.3V514.8c3.6,0,5.71.24,6.33.74s.92,2.13.92,4.91l-.49,4.06h11.31c0,3-.27,4.9-.8,5.59s-2.24,1-5.1,1h-5.41l.49,3.07V562.5q0,14,.74,18.19t4.18,4.19h8.36v5.65l-8.49.62q-8.48,0-10.26-5.23T450,562.5Z"/>
      <path class="m" d="M487.06,511.54a5.64,5.64,0,0,1-8,0,5.51,5.51,0,0,1-1.66-4.06,5.09,5.09,0,0,1,1.66-3.93,5.66,5.66,0,0,1,4-1.54,5.57,5.57,0,0,1,4,1.6,5.24,5.24,0,0,1,1.66,3.93A5.44,5.44,0,0,1,487.06,511.54Zm-7.56,73.83V524.51q5.42,0,6.33.68t.93,5V591c-3.61,0-5.72-.24-6.34-.74S479.5,588.15,479.5,585.37Z"/>
      <path class="m" d="M501.63,557.58v-7.87a85.44,85.44,0,0,1,.43-11.31c.29-1.55.61-3.23,1-5a9.69,9.69,0,0,1,1.36-3.75c.53-.69,1.18-1.53,2-2.52a5.53,5.53,0,0,1,2.89-2,25.2,25.2,0,0,1,8.48-1.48l10.21,1.6q0,5.41-4.43,5.41a11.07,11.07,0,0,1-1.72-.13l-4.06-.36q-6.27,0-7.62,5.22t-1.35,18q0,12.79.12,16.6a47.62,47.62,0,0,0,1,8q.86,4.25,2.7,5.53a8.9,8.9,0,0,0,5.16,1.3l10.7-1.23v5.65l-10.7,2.09q-6.63,0-8.85-1.6a34.1,34.1,0,0,1-3.32-2.64,8.63,8.63,0,0,1-1.9-3.75c-.54-1.8-.92-3.32-1.17-4.55a47.91,47.91,0,0,1-.61-6Q501.63,565.69,501.63,557.58Z"/>
    </g>
  </g>
</svg>
