<svg xmlns="http://www.w3.org/2000/svg" xmlns:xlink="http://www.w3.org/1999/xlink" viewBox="0 0 1920 1080">
  <defs>
    <style>
      .a {
        isolation: isolate;
      }

      .b {
        mask: url(#a);
      }

      .c {
        opacity: 0.03;
      }

      .d {
        fill: none;
        stroke: #00ffec;
        stroke-miterlimit: 10;
        stroke-width: 2px;
      }

      .e {
        fill: #20262b;
      }

      .f {
        opacity: 0.2;
        mix-blend-mode: hard-light;
      }

      .bu, .g {
        opacity: 0.3;
      }

      .h {
        fill: #fff;
      }

      .i {
        fill: url(#b);
      }

      .j {
        fill: url(#c);
      }

      .k {
        fill: url(#d);
      }

      .l {
        fill: #242993;
        opacity: 0.5;
      }

      .m {
        fill: url(#e);
      }

      .n {
        fill: url(#f);
      }

      .o {
        fill: url(#g);
      }

      .p {
        fill: #153f7c;
      }

      .q {
        fill: #245b91;
      }

      .r {
        fill: #4683c6;
      }

      .s {
        fill: #4a91cc;
      }

      .t {
        fill: #fce8ee;
      }

      .u {
        fill: azure;
      }

      .v {
        fill: #aa9aac;
      }

      .w {
        fill: #c4e3ff;
      }

      .x {
        fill: #245191;
      }

      .y {
        fill: #e2c8cf;
      }

      .z {
        fill: #39c;
      }

      .aa {
        fill: #1b4263;
      }

      .ab {
        fill: #938496;
      }

      .ac {
        fill: #162184;
      }

      .ad {
        fill: #123972;
      }

      .ae {
        fill: url(#h);
      }

      .af {
        fill: url(#i);
      }

      .ag {
        fill: url(#j);
      }

      .ah {
        fill: url(#k);
      }

      .ai {
        fill: url(#l);
      }

      .aj {
        fill: url(#m);
      }

      .ak {
        fill: url(#n);
      }

      .al {
        fill: url(#o);
      }

      .am {
        fill: url(#p);
      }

      .an {
        fill: url(#q);
      }

      .ao {
        fill: url(#r);
      }

      .ap {
        fill: url(#s);
      }

      .aq {
        fill: url(#t);
      }

      .ar {
        fill: url(#u);
      }

      .as {
        fill: url(#v);
      }

      .at {
        fill: url(#w);
      }

      .au {
        fill: url(#x);
      }

      .av {
        fill: url(#y);
      }

      .aw {
        fill: url(#z);
      }

      .ax {
        fill: url(#aa);
      }

      .ay {
        fill: url(#ab);
      }

      .az {
        fill: url(#ac);
      }

      .ba {
        fill: url(#ad);
      }

      .bb {
        fill: url(#ae);
      }

      .bc {
        fill: url(#af);
      }

      .bd {
        fill: url(#ag);
      }

      .be {
        fill: url(#ah);
      }

      .bf {
        fill: url(#ai);
      }

      .bg {
        fill: url(#aj);
      }

      .bh {
        fill: url(#ak);
      }

      .bi {
        fill: url(#al);
      }

      .bj {
        fill: url(#am);
      }

      .bk {
        fill: url(#an);
      }

      .bl {
        fill: url(#ao);
      }

      .bm {
        fill: url(#ap);
      }

      .bn {
        fill: url(#aq);
      }

      .bo {
        fill: url(#ar);
      }

      .bp {
        fill: url(#as);
      }

      .bq {
        fill: url(#at);
      }

      .br {
        fill: url(#au);
      }

      .bs {
        fill: url(#av);
      }

      .bt {
        fill: url(#aw);
      }

      .bu {
        fill: url(#ax);
      }

      .bv {
        fill: url(#ay);
      }

      .bw {
        fill: url(#az);
      }

      .bx {
        fill: url(#ba);
      }

      .by {
        fill: url(#bb);
      }

      .bz {
        fill: url(#bc);
      }

      .ca {
        fill: url(#bd);
      }

      .cb {
        fill: url(#be);
      }

      .cc {
        fill: url(#bf);
      }

      .cd {
        fill: url(#bg);
      }

      .ce {
        fill: url(#bh);
      }

      .cf {
        fill: url(#bi);
      }

      .cg {
        fill: url(#bj);
      }

      .ch {
        fill: url(#bk);
      }

      .ci {
        fill: url(#bl);
      }

      .cj {
        fill: url(#bm);
      }

      .ck {
        fill: url(#bn);
      }

      .cl {
        fill: url(#bo);
      }

      .cm {
        fill: url(#bp);
      }

      .cn {
        fill: url(#bq);
      }

      .co {
        fill: url(#br);
      }

      .cp {
        fill: url(#bs);
      }

      .cq {
        fill: url(#bt);
      }

      .cr {
        fill: url(#bu);
      }

      .cs {
        fill: url(#bv);
      }

      .ct {
        fill: url(#bw);
      }

      .cu {
        fill: url(#bx);
      }

      .cv {
        fill: url(#by);
      }

      .cw {
        fill: url(#bz);
      }

      .cx {
        fill: url(#ca);
      }

      .cy {
        fill: url(#cb);
      }

      .cz {
        fill: url(#cc);
      }

      .da {
        fill: url(#cd);
      }

      .db {
        fill: url(#ce);
      }

      .dc {
        fill: url(#cf);
      }

      .dd {
        fill: url(#cg);
      }

      .de {
        fill: url(#ch);
      }

      .df {
        fill: url(#ci);
      }

      .dg {
        fill: url(#cj);
      }

      .dh {
        fill: url(#ck);
      }

      .di {
        fill: url(#cl);
      }

      .dj {
        fill: url(#cm);
      }

      .dk {
        fill: url(#cn);
      }

      .dl {
        fill: url(#co);
      }
    </style>
    <mask id="a" x="-3459.82" y="-1021.65" width="3703.65" height="2138.3" maskUnits="userSpaceOnUse"/>
    <linearGradient id="b" data-name="Áåçûìÿííûé ãðàäèåíò 11" x1="-630.53" y1="-501.07" x2="-554.52" y2="-501.07" gradientTransform="matrix(-0.87, 0.5, 0.87, 0.5, -4.93, 1431.84)" gradientUnits="userSpaceOnUse">
      <stop offset="0" stop-color="#c0d6ff"/>
      <stop offset="0.3" stop-color="#c5dbff"/>
      <stop offset="0.65" stop-color="#d3e9ff"/>
      <stop offset="1" stop-color="#e9ffff"/>
    </linearGradient>
    <linearGradient id="c" data-name="Áåçûìÿííûé ãðàäèåíò 3" x1="476.39" y1="884.44" x2="534.34" y2="884.44" gradientTransform="matrix(-1, 0, 0, 1, 595.29, 0)" gradientUnits="userSpaceOnUse">
      <stop offset="0.35" stop-color="#bcd5ff"/>
      <stop offset="0.44" stop-color="#b5cfff"/>
      <stop offset="0.57" stop-color="#a3beff"/>
      <stop offset="0.72" stop-color="#84a2ff"/>
      <stop offset="0.88" stop-color="#5a7bff"/>
      <stop offset="0.89" stop-color="#5778ff"/>
    </linearGradient>
    <linearGradient id="d" data-name="Áåçûìÿííûé ãðàäèåíò 23" x1="-640.26" y1="-509.82" x2="-562.29" y2="-509.82" gradientTransform="matrix(-0.87, 0.5, 0.87, 0.5, -4.93, 1431.84)" gradientUnits="userSpaceOnUse">
      <stop offset="0" stop-color="#e9ffff"/>
      <stop offset="0.35" stop-color="#d3e9ff"/>
      <stop offset="0.7" stop-color="#c5dbff"/>
      <stop offset="1" stop-color="#c0d6ff"/>
    </linearGradient>
    <linearGradient id="e" x1="-653.72" y1="-524.27" x2="-577.72" y2="-524.27" xlink:href="#b"/>
    <linearGradient id="f" x1="476.39" y1="861.25" x2="534.34" y2="861.25" xlink:href="#c"/>
    <linearGradient id="g" x1="-663.46" y1="-533.02" x2="-585.48" y2="-533.02" xlink:href="#d"/>
    <linearGradient id="h" x1="1775.27" y1="823.87" x2="1826.28" y2="823.87" gradientTransform="matrix(-1, 0, 0, 1, 1984.58, 0)" xlink:href="#b"/>
    <linearGradient id="i" x1="620.63" y1="-1196.33" x2="663.75" y2="-1196.33" gradientTransform="matrix(-0.87, 0.5, 0.87, 0.5, 1775.96, 1042.18)" xlink:href="#b"/>
    <linearGradient id="j" x1="1793.94" y1="831.24" x2="1819.45" y2="831.24" gradientTransform="matrix(-1, 0, 0, 1, 1984.58, 0)" xlink:href="#b"/>
    <linearGradient id="k" x1="1819.45" y1="821.9" x2="1826.28" y2="821.9" gradientTransform="matrix(-1, 0, 0, 1, 1984.58, 0)" xlink:href="#d"/>
    <linearGradient id="l" data-name="Áåçûìÿííûé ãðàäèåíò 14" x1="1775.27" y1="827.82" x2="1793.94" y2="827.82" gradientTransform="matrix(-1, 0, 0, 1, 1984.58, 0)" gradientUnits="userSpaceOnUse">
      <stop offset="0" stop-color="#5778ff"/>
      <stop offset="0.18" stop-color="#5c7dff"/>
      <stop offset="0.39" stop-color="#6a8aff"/>
      <stop offset="0.61" stop-color="#82a0ff"/>
      <stop offset="0.85" stop-color="#a3beff"/>
      <stop offset="1" stop-color="#bcd5ff"/>
    </linearGradient>
    <linearGradient id="m" x1="1735.1" y1="855.42" x2="1786.12" y2="855.42" gradientTransform="matrix(-1, 0, 0, 1, 1984.58, 0)" xlink:href="#b"/>
    <linearGradient id="n" x1="638.63" y1="-1131.95" x2="681.75" y2="-1131.95" gradientTransform="matrix(-0.87, 0.5, 0.87, 0.5, 1775.96, 1042.18)" xlink:href="#b"/>
    <linearGradient id="o" x1="1753.78" y1="862.79" x2="1779.28" y2="862.79" gradientTransform="matrix(-1, 0, 0, 1, 1984.58, 0)" xlink:href="#b"/>
    <linearGradient id="p" x1="1779.28" y1="853.45" x2="1786.12" y2="853.45" gradientTransform="matrix(-1, 0, 0, 1, 1984.58, 0)" xlink:href="#d"/>
    <linearGradient id="q" x1="1735.1" y1="859.37" x2="1753.78" y2="859.37" xlink:href="#l"/>
    <linearGradient id="r" x1="1694.94" y1="889.12" x2="1745.95" y2="889.12" gradientTransform="matrix(-1, 0, 0, 1, 1984.58, 0)" xlink:href="#b"/>
    <linearGradient id="s" x1="659.17" y1="-1065.03" x2="702.29" y2="-1065.03" gradientTransform="matrix(-0.87, 0.5, 0.87, 0.5, 1775.96, 1042.18)" xlink:href="#b"/>
    <linearGradient id="t" x1="1713.61" y1="896.48" x2="1739.12" y2="896.48" gradientTransform="matrix(-1, 0, 0, 1, 1984.58, 0)" xlink:href="#b"/>
    <linearGradient id="u" x1="1739.12" y1="887.15" x2="1745.95" y2="887.15" gradientTransform="matrix(-1, 0, 0, 1, 1984.58, 0)" xlink:href="#d"/>
    <linearGradient id="v" x1="1694.94" y1="893.06" x2="1713.61" y2="893.06" xlink:href="#l"/>
    <linearGradient id="w" x1="1654.77" y1="916.67" x2="1705.78" y2="916.67" gradientTransform="matrix(-1, 0, 0, 1, 1984.58, 0)" xlink:href="#b"/>
    <linearGradient id="x" x1="667.43" y1="-1010.39" x2="710.55" y2="-1010.39" gradientTransform="matrix(-0.87, 0.5, 0.87, 0.5, 1775.96, 1042.18)" xlink:href="#b"/>
    <linearGradient id="y" x1="1673.44" y1="924.04" x2="1698.95" y2="924.04" gradientTransform="matrix(-1, 0, 0, 1, 1984.58, 0)" xlink:href="#b"/>
    <linearGradient id="z" x1="1698.95" y1="914.7" x2="1705.78" y2="914.7" gradientTransform="matrix(-1, 0, 0, 1, 1984.58, 0)" xlink:href="#d"/>
    <linearGradient id="aa" x1="1654.77" y1="920.62" x2="1673.44" y2="920.62" xlink:href="#l"/>
    <linearGradient id="ab" x1="1614.61" y1="947.69" x2="1665.62" y2="947.69" gradientTransform="matrix(-1, 0, 0, 1, 1984.58, 0)" xlink:href="#b"/>
    <linearGradient id="ac" x1="682.62" y1="-948.81" x2="725.74" y2="-948.81" gradientTransform="matrix(-0.87, 0.5, 0.87, 0.5, 1775.96, 1042.18)" xlink:href="#b"/>
    <linearGradient id="ad" x1="1633.28" y1="955.06" x2="1658.78" y2="955.06" gradientTransform="matrix(-1, 0, 0, 1, 1984.58, 0)" xlink:href="#b"/>
    <linearGradient id="ae" x1="1658.78" y1="945.72" x2="1665.62" y2="945.72" gradientTransform="matrix(-1, 0, 0, 1, 1984.58, 0)" xlink:href="#d"/>
    <linearGradient id="af" x1="1614.61" y1="951.64" x2="1633.28" y2="951.64" xlink:href="#l"/>
    <linearGradient id="ag" x1="1775.27" y1="787.78" x2="1826.28" y2="787.78" gradientTransform="matrix(-1, 0, 0, 1, 1984.58, 0)" xlink:href="#b"/>
    <linearGradient id="ah" x1="594.74" y1="-1222.21" x2="637.86" y2="-1222.21" gradientTransform="matrix(-0.87, 0.5, 0.87, 0.5, 1775.96, 1042.18)" xlink:href="#b"/>
    <linearGradient id="ai" x1="1793.94" y1="795.14" x2="1819.45" y2="795.14" gradientTransform="matrix(-1, 0, 0, 1, 1984.58, 0)" xlink:href="#b"/>
    <linearGradient id="aj" x1="1819.45" y1="785.8" x2="1826.28" y2="785.8" gradientTransform="matrix(-1, 0, 0, 1, 1984.58, 0)" xlink:href="#d"/>
    <linearGradient id="ak" x1="1775.27" y1="791.72" x2="1793.94" y2="791.72" xlink:href="#l"/>
    <linearGradient id="al" x1="1735.1" y1="820.2" x2="1786.12" y2="820.2" gradientTransform="matrix(-1, 0, 0, 1, 1984.58, 0)" xlink:href="#b"/>
    <linearGradient id="am" x1="612.74" y1="-1157.84" x2="655.86" y2="-1157.84" gradientTransform="matrix(-0.87, 0.5, 0.87, 0.5, 1775.96, 1042.18)" xlink:href="#b"/>
    <linearGradient id="an" x1="1753.78" y1="827.56" x2="1779.28" y2="827.56" gradientTransform="matrix(-1, 0, 0, 1, 1984.58, 0)" xlink:href="#b"/>
    <linearGradient id="ao" x1="1779.28" y1="818.23" x2="1786.12" y2="818.23" gradientTransform="matrix(-1, 0, 0, 1, 1984.58, 0)" xlink:href="#d"/>
    <linearGradient id="ap" x1="1735.1" y1="824.15" x2="1753.78" y2="824.15" xlink:href="#l"/>
    <linearGradient id="aq" x1="1694.94" y1="853.9" x2="1745.95" y2="853.9" gradientTransform="matrix(-1, 0, 0, 1, 1984.58, 0)" xlink:href="#b"/>
    <linearGradient id="ar" x1="633.28" y1="-1090.91" x2="676.4" y2="-1090.91" gradientTransform="matrix(-0.87, 0.5, 0.87, 0.5, 1775.96, 1042.18)" xlink:href="#b"/>
    <linearGradient id="as" x1="1713.61" y1="861.26" x2="1739.12" y2="861.26" gradientTransform="matrix(-1, 0, 0, 1, 1984.58, 0)" xlink:href="#b"/>
    <linearGradient id="at" x1="1739.12" y1="851.92" x2="1745.95" y2="851.92" gradientTransform="matrix(-1, 0, 0, 1, 1984.58, 0)" xlink:href="#d"/>
    <linearGradient id="au" x1="1694.94" y1="857.84" x2="1713.61" y2="857.84" xlink:href="#l"/>
    <linearGradient id="av" x1="1654.77" y1="881.45" x2="1705.78" y2="881.45" gradientTransform="matrix(-1, 0, 0, 1, 1984.58, 0)" xlink:href="#b"/>
    <linearGradient id="aw" x1="641.54" y1="-1036.27" x2="684.66" y2="-1036.27" gradientTransform="matrix(-0.87, 0.5, 0.87, 0.5, 1775.96, 1042.18)" xlink:href="#b"/>
    <linearGradient id="ax" x1="648.63" y1="-1036.27" x2="677.57" y2="-1036.27" gradientTransform="matrix(-0.87, 0.5, 0.87, 0.5, 1775.96, 1042.18)" xlink:href="#l"/>
    <linearGradient id="ay" x1="1673.44" y1="888.81" x2="1698.95" y2="888.81" gradientTransform="matrix(-1, 0, 0, 1, 1984.58, 0)" xlink:href="#b"/>
    <linearGradient id="az" x1="1698.95" y1="879.48" x2="1705.78" y2="879.48" gradientTransform="matrix(-1, 0, 0, 1, 1984.58, 0)" xlink:href="#d"/>
    <linearGradient id="ba" x1="1654.77" y1="885.4" x2="1673.44" y2="885.4" xlink:href="#l"/>
    <linearGradient id="bb" x1="1654.77" y1="842.48" x2="1705.78" y2="842.48" gradientTransform="matrix(-1, 0, 0, 1, 1984.58, 0)" xlink:href="#b"/>
    <linearGradient id="bc" x1="617.75" y1="-1060.06" x2="660.87" y2="-1060.06" gradientTransform="matrix(-0.87, 0.5, 0.87, 0.5, 1775.96, 1042.18)" xlink:href="#b"/>
    <linearGradient id="bd" x1="1673.44" y1="849.84" x2="1698.95" y2="849.84" gradientTransform="matrix(-1, 0, 0, 1, 1984.58, 0)" xlink:href="#b"/>
    <linearGradient id="be" x1="1698.95" y1="840.5" x2="1705.78" y2="840.5" gradientTransform="matrix(-1, 0, 0, 1, 1984.58, 0)" xlink:href="#d"/>
    <linearGradient id="bf" x1="1654.77" y1="846.42" x2="1673.44" y2="846.42" xlink:href="#l"/>
    <linearGradient id="bg" x1="1614.61" y1="912.47" x2="1665.62" y2="912.47" gradientTransform="matrix(-1, 0, 0, 1, 1984.58, 0)" xlink:href="#b"/>
    <linearGradient id="bh" x1="656.73" y1="-974.7" x2="699.85" y2="-974.7" gradientTransform="matrix(-0.87, 0.5, 0.87, 0.5, 1775.96, 1042.18)" xlink:href="#b"/>
    <linearGradient id="bi" x1="1633.28" y1="919.83" x2="1658.78" y2="919.83" gradientTransform="matrix(-1, 0, 0, 1, 1984.58, 0)" xlink:href="#b"/>
    <linearGradient id="bj" x1="1658.78" y1="910.5" x2="1665.62" y2="910.5" gradientTransform="matrix(-1, 0, 0, 1, 1984.58, 0)" xlink:href="#d"/>
    <linearGradient id="bk" x1="1614.61" y1="916.42" x2="1633.28" y2="916.42" xlink:href="#l"/>
    <linearGradient id="bl" x1="1741.02" y1="946.43" x2="1792.03" y2="946.43" gradientTransform="matrix(-1, 0, 0, 1, 1984.58, 0)" xlink:href="#b"/>
    <linearGradient id="bm" x1="771.5" y1="-1005.91" x2="814.62" y2="-1005.91" gradientTransform="matrix(-0.87, 0.5, 0.87, 0.5, 1775.96, 1042.18)" xlink:href="#b"/>
    <linearGradient id="bn" x1="1759.7" y1="953.79" x2="1785.2" y2="953.79" gradientTransform="matrix(-1, 0, 0, 1, 1984.58, 0)" xlink:href="#b"/>
    <linearGradient id="bo" x1="1785.2" y1="944.45" x2="1792.03" y2="944.45" gradientTransform="matrix(-1, 0, 0, 1, 1984.58, 0)" xlink:href="#d"/>
    <linearGradient id="bp" x1="1741.02" y1="950.37" x2="1759.7" y2="950.37" xlink:href="#l"/>
    <linearGradient id="bq" x1="1741.02" y1="924.99" x2="1792.03" y2="924.99" gradientTransform="matrix(-1, 0, 0, 1, 1984.58, 0)" xlink:href="#b"/>
    <linearGradient id="br" x1="750.06" y1="-1027.35" x2="793.18" y2="-1027.35" gradientTransform="matrix(-0.87, 0.5, 0.87, 0.5, 1775.96, 1042.18)" xlink:href="#b"/>
    <linearGradient id="bs" x1="1759.7" y1="932.35" x2="1785.2" y2="932.35" gradientTransform="matrix(-1, 0, 0, 1, 1984.58, 0)" xlink:href="#b"/>
    <linearGradient id="bt" x1="1785.2" y1="923.01" x2="1792.03" y2="923.01" gradientTransform="matrix(-1, 0, 0, 1, 1984.58, 0)" xlink:href="#d"/>
    <linearGradient id="bu" x1="1741.02" y1="928.93" x2="1759.7" y2="928.93" xlink:href="#l"/>
    <linearGradient id="bv" x1="1878.66" y1="963.56" x2="1929.67" y2="963.56" gradientTransform="matrix(-1, 0, 0, 1, 1984.58, 0)" xlink:href="#b"/>
    <linearGradient id="bw" x1="868.1" y1="-1068.24" x2="911.22" y2="-1068.24" gradientTransform="matrix(-0.87, 0.5, 0.87, 0.5, 1775.96, 1042.18)" xlink:href="#b"/>
    <linearGradient id="bx" x1="1897.33" y1="970.93" x2="1922.83" y2="970.93" gradientTransform="matrix(-1, 0, 0, 1, 1984.58, 0)" xlink:href="#b"/>
    <linearGradient id="by" x1="1922.83" y1="961.59" x2="1929.67" y2="961.59" gradientTransform="matrix(-1, 0, 0, 1, 1984.58, 0)" xlink:href="#d"/>
    <linearGradient id="bz" x1="1878.66" y1="967.51" x2="1897.33" y2="967.51" xlink:href="#l"/>
    <linearGradient id="ca" x1="1878.66" y1="942.12" x2="1929.67" y2="942.12" gradientTransform="matrix(-1, 0, 0, 1, 1984.58, 0)" xlink:href="#b"/>
    <linearGradient id="cb" x1="846.66" y1="-1089.68" x2="889.78" y2="-1089.68" gradientTransform="matrix(-0.87, 0.5, 0.87, 0.5, 1775.96, 1042.18)" xlink:href="#b"/>
    <linearGradient id="cc" x1="1897.33" y1="949.49" x2="1922.83" y2="949.49" gradientTransform="matrix(-1, 0, 0, 1, 1984.58, 0)" xlink:href="#b"/>
    <linearGradient id="cd" x1="1922.83" y1="940.15" x2="1929.67" y2="940.15" gradientTransform="matrix(-1, 0, 0, 1, 1984.58, 0)" xlink:href="#d"/>
    <linearGradient id="ce" x1="1878.66" y1="946.07" x2="1897.33" y2="946.07" xlink:href="#l"/>
    <linearGradient id="cf" x1="1463.33" y1="901.72" x2="1514.34" y2="901.72" gradientTransform="matrix(-1, 0, 0, 1, 1984.58, 0)" xlink:href="#b"/>
    <linearGradient id="cg" x1="566.46" y1="-890.28" x2="609.58" y2="-890.28" gradientTransform="matrix(-0.87, 0.5, 0.87, 0.5, 1775.96, 1042.18)" xlink:href="#b"/>
    <linearGradient id="ch" x1="1482" y1="909.08" x2="1507.5" y2="909.08" gradientTransform="matrix(-1, 0, 0, 1, 1984.58, 0)" xlink:href="#b"/>
    <linearGradient id="ci" x1="1507.5" y1="899.75" x2="1514.34" y2="899.75" gradientTransform="matrix(-1, 0, 0, 1, 1984.58, 0)" xlink:href="#d"/>
    <linearGradient id="cj" x1="1463.33" y1="905.67" x2="1482" y2="905.67" xlink:href="#l"/>
    <linearGradient id="ck" x1="1463.33" y1="880.28" x2="1514.34" y2="880.28" gradientTransform="matrix(-1, 0, 0, 1, 1984.58, 0)" xlink:href="#b"/>
    <linearGradient id="cl" x1="545.02" y1="-911.72" x2="588.14" y2="-911.72" gradientTransform="matrix(-0.87, 0.5, 0.87, 0.5, 1775.96, 1042.18)" xlink:href="#b"/>
    <linearGradient id="cm" x1="1482" y1="887.64" x2="1507.5" y2="887.64" gradientTransform="matrix(-1, 0, 0, 1, 1984.58, 0)" xlink:href="#b"/>
    <linearGradient id="cn" x1="1507.5" y1="878.31" x2="1514.34" y2="878.31" gradientTransform="matrix(-1, 0, 0, 1, 1984.58, 0)" xlink:href="#d"/>
    <linearGradient id="co" x1="1463.33" y1="884.23" x2="1482" y2="884.23" xlink:href="#l"/>
  </defs>
  <title>products-06</title>
  <g class="a">
    <g class="b">
      <g class="c">
        <polygon class="d" points="-3457.82 47.5 -1607.99 -1020.5 241.82 47.5 -1608.01 1115.5 -3457.82 47.5"/>
        <line class="d" x1="-1696.09" y1="1064.64" x2="153.74" y2="-3.36"/>
        <line class="d" x1="-1784.18" y1="1013.78" x2="65.65" y2="-54.22"/>
        <line class="d" x1="-1696.08" y1="-969.64" x2="153.74" y2="98.35"/>
        <line class="d" x1="-1784.17" y1="-918.78" x2="65.65" y2="149.21"/>
      </g>
    </g>
    <g>
      <rect class="e" y="-0.5" width="1920" height="1080"/>
      <g class="f">
        <g class="g">
          <path class="h" d="M68.5,887.72a.53.53,0,0,0,.24-.06l91.93-53.07c1.69-1,2.62-2.31,2.62-3.75s-.93-2.76-2.62-3.74L100.8,792.54c-1.39-.81-2.16-1.84-2.16-2.93a3.62,3.62,0,0,1,2.16-2.92l101.37-58.53a12.26,12.26,0,0,1,11.07,0l34,19.63a3.06,3.06,0,0,1,0,5.85L196.7,782.82c-1.69,1-2.62,2.31-2.62,3.74s.93,2.77,2.63,3.74l75.56,43.63a13.32,13.32,0,0,0,12,0l50.18-29a.47.47,0,0,0,.17-.64.45.45,0,0,0-.64-.17l-50.18,29a12.29,12.29,0,0,1-11.08,0l-75.56-43.63c-1.39-.81-2.16-1.84-2.16-2.93a3.62,3.62,0,0,1,2.16-2.92l50.54-29.18c1.69-1,2.62-2.31,2.62-3.74s-.93-2.77-2.62-3.75l-34-19.63a13.32,13.32,0,0,0-12,0L100.33,785.87c-1.7,1-2.63,2.31-2.63,3.74s.93,2.76,2.63,3.74l59.87,34.57a3.06,3.06,0,0,1,0,5.85L68.26,886.85a.47.47,0,0,0-.17.64A.48.48,0,0,0,68.5,887.72Z"/>
          <path class="h" d="M90.4,847.92a.45.45,0,0,0,.41-.23.46.46,0,0,0-.17-.64L1.41,795.53c-1.92-1.11-3-2.55-3-4.06s1.05-3,3-4.06L87,738a16.61,16.61,0,0,1,15,0l19.13,11a.48.48,0,0,0,.65-.17.46.46,0,0,0-.18-.64l-19.13-11.05a17.65,17.65,0,0,0-16,0L.94,786.59c-2.22,1.28-3.44,3-3.44,4.88s1.22,3.59,3.44,4.87l89.23,51.52A.49.49,0,0,0,90.4,847.92Z"/>
          <path class="h" d="M302.89,990.48a13.81,13.81,0,0,0,6.77-1.62l122.26-70.58c1.9-1.1,2.94-2.58,2.94-4.18s-1-3.09-2.94-4.18l-41.7-24.08a15,15,0,0,0-13.54,0l-77.13,44.53a13.9,13.9,0,0,1-12.59,0L182.9,870.3c-1.59-.92-2.47-2.12-2.47-3.37s.88-2.44,2.48-3.36l30.74-17.75a13.92,13.92,0,0,1,12.6,0l60.24,34.78a15,15,0,0,0,13.54,0L384.2,832a14,14,0,0,1,12.59,0l89.86,51.88a.47.47,0,0,0,.64-.17.48.48,0,0,0-.17-.65l-89.86-51.87a14.94,14.94,0,0,0-13.53,0l-84.18,48.59a13.9,13.9,0,0,1-12.59,0L226.72,845a15,15,0,0,0-13.54,0l-30.75,17.75c-1.89,1.1-2.94,2.58-2.94,4.18s1,3.09,2.94,4.18l104.06,60.08a15,15,0,0,0,13.53,0l77.14-44.53a13.9,13.9,0,0,1,12.59,0l41.7,24.07c1.59.92,2.47,2.12,2.47,3.37s-.88,2.44-2.47,3.36L309.19,988.05a14,14,0,0,1-12.59,0L138.4,896.71a.48.48,0,0,0-.65.17.47.47,0,0,0,.17.64l158.21,91.34A13.77,13.77,0,0,0,302.89,990.48Z"/>
          <path class="h" d="M185.91,955.51a.5.5,0,0,0,.24-.06l26.29-15.18a.47.47,0,1,0-.47-.81l-26.29,15.18a.46.46,0,0,0-.17.64A.45.45,0,0,0,185.91,955.51Z"/>
          <path class="h" d="M257.79,788.55a.45.45,0,0,0,.41-.24.47.47,0,0,0-.17-.64l-34.63-20a.47.47,0,0,0-.47.81l34.63,20A.46.46,0,0,0,257.79,788.55Z"/>
          <path class="h" d="M-1.16,847.5a.46.46,0,0,0,.23-.06l45.42-26.22a.47.47,0,0,0-.47-.82L-1.4,846.63a.47.47,0,0,0-.17.64A.47.47,0,0,0-1.16,847.5Z"/>
          <path class="h" d="M257.11,797.21a.44.44,0,0,1-.14-.33v-9a.48.48,0,0,1,.48-.47H273a.47.47,0,0,1,.47.47v9a.47.47,0,0,1-.47.47H257.45A.48.48,0,0,1,257.11,797.21Zm15.46-8.86H257.92v8.06h14.65Z"/>
          <path class="h" d="M70.71,777.5a.48.48,0,0,1-.14-.34v-9a.47.47,0,0,1,.47-.47H86.63a.47.47,0,0,1,.47.47v9a.47.47,0,0,1-.47.47H71A.44.44,0,0,1,70.71,777.5Zm15.45-8.87H71.51v8.06H86.16Z"/>
          <path class="h" d="M290.83,967.59c-2.32-1.34-3.59-3.14-3.59-5.09s1.27-3.75,3.59-5.08h0c4.6-2.66,12.08-2.66,16.68,0,2.32,1.33,3.59,3.14,3.59,5.08s-1.27,3.75-3.59,5.09a18.47,18.47,0,0,1-16.68,0Zm.47-9.36h0c-2,1.16-3.12,2.68-3.12,4.27s1.11,3.11,3.12,4.28a17.45,17.45,0,0,0,15.74,0c2-1.17,3.12-2.68,3.12-4.28s-1.11-3.11-3.12-4.27a17.41,17.41,0,0,0-15.74,0Z"/>
          <path class="h" d="M320,950.77c-2.31-1.34-3.59-3.14-3.59-5.09s1.28-3.75,3.59-5.08h0c4.6-2.66,12.09-2.66,16.69,0,2.31,1.34,3.59,3.15,3.59,5.09s-1.28,3.75-3.59,5.09a18.49,18.49,0,0,1-16.69,0Zm.48-9.36h0c-2,1.16-3.13,2.68-3.13,4.27s1.11,3.11,3.13,4.27a17.39,17.39,0,0,0,15.74,0c2-1.16,3.12-2.68,3.12-4.27s-1.11-3.11-3.12-4.27a17.41,17.41,0,0,0-15.74,0Z"/>
          <path class="h" d="M349.1,934c-2.32-1.34-3.59-3.15-3.59-5.09s1.27-3.75,3.59-5.09h0c4.6-2.65,12.08-2.65,16.68,0,2.32,1.34,3.6,3.15,3.6,5.09s-1.28,3.75-3.6,5.09a18.47,18.47,0,0,1-16.68,0Zm.47-9.36h0c-2,1.16-3.12,2.68-3.12,4.27s1.11,3.11,3.12,4.27a17.39,17.39,0,0,0,15.74,0c2-1.16,3.12-2.68,3.12-4.27s-1.1-3.11-3.12-4.27a17.41,17.41,0,0,0-15.74,0Z"/>
          <path class="h" d="M378.24,917.13c-2.32-1.34-3.6-3.15-3.6-5.09s1.28-3.75,3.6-5.09h0c4.6-2.65,12.08-2.65,16.68,0,2.32,1.34,3.59,3.15,3.59,5.09s-1.27,3.75-3.59,5.09a18.47,18.47,0,0,1-16.68,0Zm.47-9.36h0c-2,1.16-3.12,2.68-3.12,4.27s1.1,3.11,3.12,4.27a17.39,17.39,0,0,0,15.74,0c2-1.16,3.12-2.68,3.12-4.27s-1.11-3.11-3.12-4.27a17.41,17.41,0,0,0-15.74,0Z"/>
          <path class="h" d="M378.47,907.83a.47.47,0,0,0,.41-.24.47.47,0,0,0-.17-.64l-19.06-11a.47.47,0,0,0-.64.17.46.46,0,0,0,.17.64l19.06,11A.46.46,0,0,0,378.47,907.83Z"/>
          <path class="h" d="M274,976a.39.39,0,0,0,.23-.07l15.8-9.23a.47.47,0,1,0-.48-.81l-15.79,9.23a.47.47,0,0,0,.24.88Z"/>
          <path class="h" d="M169.85,964.05v-9a.47.47,0,0,1,.47-.47h15.59a.48.48,0,0,1,.34.14.46.46,0,0,1,.13.33v9a.47.47,0,0,1-.47.47H170.32A.47.47,0,0,1,169.85,964.05Zm15.59-8.54H170.79v8.06h14.65Z"/>
          <path class="h" d="M333.59,804.52v-9a.47.47,0,0,1,.47-.47h15.6a.51.51,0,0,1,.33.13.48.48,0,0,1,.14.34v9a.47.47,0,0,1-.47.47h-15.6A.47.47,0,0,1,333.59,804.52Zm15.6-8.53H334.53v8.06h14.66Z"/>
        </g>
        <g>
          <g class="g">
            <path class="i" d="M65.73,916.31,128.24,880c.86-.5.75-1.37-.25-2L86.17,853.92a3.73,3.73,0,0,0-3.37-.14l-62.5,36.3c-.87.49-.76,1.37.24,1.94l41.82,24.15A3.73,3.73,0,0,0,65.73,916.31Z"/>
            <path class="j" d="M18.21,882.37l14.69-1,50-29.09a3.87,3.87,0,0,1,3.48.14l32.34,18.67,11.59-.75v8.08h0a1,1,0,0,1-.59.88L65.61,916.57a3.9,3.9,0,0,1-3.48-.14L19.05,891.55a1.45,1.45,0,0,1-.84-1.09h0Z"/>
            <path class="k" d="M65.61,908.42l64.12-37.23c.89-.52.77-1.41-.25-2L86.4,844.31a3.87,3.87,0,0,0-3.48-.14L18.81,881.4c-.89.51-.78,1.41.24,2l43.08,24.88A3.9,3.9,0,0,0,65.61,908.42Z"/>
          </g>
          <g>
            <path class="l" d="M129.41,923.89a3,3,0,0,0,.78-.1v0h0l-.22,0h-.05l-.25,0h-.22Zm-1.25-10.82v-.32h0A1.74,1.74,0,0,1,128.16,913.07Zm-.71,7.63v.19c0,.13,0,.25,0,.38v.09C127.45,921.14,127.45,920.92,127.45,920.7Z"/>
            <path class="m" d="M65.73,893.11l62.51-36.3c.86-.5.75-1.37-.25-1.94L86.17,830.72a3.73,3.73,0,0,0-3.37-.14l-62.5,36.3c-.87.5-.76,1.37.24,2L62.36,893A3.73,3.73,0,0,0,65.73,893.11Z"/>
            <path class="n" d="M18.21,859.17l14.69-.95,50-29.1a3.9,3.9,0,0,1,3.48.14l32.34,18.68,11.59-.76v8.09h0a1,1,0,0,1-.59.87L65.61,893.37a3.87,3.87,0,0,1-3.48-.14L19.05,868.36a1.48,1.48,0,0,1-.84-1.1h0Z"/>
            <path class="o" d="M65.61,885.22,129.73,848c.89-.51.77-1.41-.25-2L86.4,821.11a3.9,3.9,0,0,0-3.48-.14L18.81,858.2c-.89.52-.78,1.41.24,2l43.08,24.87A3.87,3.87,0,0,0,65.61,885.22Z"/>
          </g>
          <g>
            <g>
              <path class="p" d="M76.22,838.74l-.06.28-.08-.18A3.94,3.94,0,0,0,76,841a17.75,17.75,0,0,0,1.68,2.63c.77,1,2,3.12,2.32,3.52a7.94,7.94,0,0,0,4.56,2.22c2.34.25,2.94-1.1,2.75-1.83a16.25,16.25,0,0,0-2.84-4.23,21.53,21.53,0,0,1-2.43-3.59Z"/>
              <path class="p" d="M83.28,832.36a10.81,10.81,0,0,0,.09,2.13c.15.62,3.61.81,4.83,1a18.27,18.27,0,0,1,4,1.36c.67.33,5.15.81,5.7-.85s-2.25-3-4.15-3.47-5-1.39-5-1.39Z"/>
              <path class="q" d="M71.31,802.52a42.23,42.23,0,0,0,1.29,10.06,39.62,39.62,0,0,1,1.24,9.92s-1.48,6.6-.18,11.1,2.4,5.77,2.4,5.77a3.88,3.88,0,0,0,6,.36,54,54,0,0,1-2.13-11.12,33.42,33.42,0,0,0,2.26-6.85s.49,5.13.78,7.21c0,0-.29,3,.52,4.28s4.47,1.58,5.64-.55-1-1.1-.33-10.94c0,0,3.37-4.2,3.86-11.93s.44-10.79,0-12.29-7.91-6.94-7.91-6.94L80.53,796Z"/>
              <path class="p" d="M87.94,811.15c1.21-1.46,1.89-6,1.89-6s-1.89,3.84-3.26,5a9.24,9.24,0,0,0-2.77,4.81c-.24,1.46-1.62,6.87-1.62,6.87s.49,5.13.78,7.21c0,0-.29,3,.52,4.28a1.92,1.92,0,0,0,.8.62c0-.06-.21-6.79,0-9.65S86.72,812.6,87.94,811.15Z"/>
              <path class="r" d="M60.09,771.35s-3.22,6.29-3.54,6.77-6.35,8.17-6.93,12.61c0,0-.46,1.72,1.62,3.24s12.54,8.17,13.19,8.26,4.43-1.75,4.6-5.89c0,0-8.2-3.83-10-5.74,0,0,3.19-5.36,4.75-6.94a3.71,3.71,0,0,0,.75-2,10.79,10.79,0,0,0-3.5-9.46Z"/>
              <path class="s" d="M84.17,756.61s5,1.84,6.68,1.21,5.88-1.16,8.75-2.77,15.39-4.83,17.25-4.95c0,0,0,.07-.28.2a2.35,2.35,0,0,0-1.94,1.71,4.65,4.65,0,0,0,.63,3.33c.21.12.33-.4,1.53-1a4.72,4.72,0,0,1,1.94-.52l.45.57.28.43a2.81,2.81,0,0,1-2.2,1.88c-1.6.12-11.91,4.43-12.55,4.62s-9.31,3.93-10.93,4.51a19,19,0,0,0-2.88,1.32s-5.05-3.37-5.22-3.37S84.17,756.61,84.17,756.61Z"/>
              <path class="t" d="M129.61,746.89c-.39-.43-5.09.92-5.09.92a5.14,5.14,0,0,0-1.57-.23c-.78,0-2.88,1.66-3.63,2a10,10,0,0,1-2.47.51c-4.16.86-1.83,5.42-1.66,5.36s1.3-.83,1.66-1a4.35,4.35,0,0,1,1-.28,10.32,10.32,0,0,0,1.61.71,4.35,4.35,0,0,0,2.6-.43,6.42,6.42,0,0,1,2.57-.51l.38.2a.84.84,0,0,0,.48.58c.38.12.78-.79.94-.89a3.5,3.5,0,0,0,.8-.62,16.49,16.49,0,0,0,.3-3.27c-.09-.47-1.13-1-1.13-1s2.61-.88,2.82-.93S130,747.31,129.61,746.89ZM125,751.73c-.23.1-.54.08-.89.24a2.3,2.3,0,0,1-1.11.31s-.49-.79-.12-1.06.65-.51.65-.51.65-.12.65-.2a.64.64,0,0,0,.72,0,1.3,1.3,0,0,0,.95.57A5.4,5.4,0,0,1,125,751.73Z"/>
              <path class="p" d="M92.65,797.54c-.44-1.51-7.91-6.94-7.91-6.94l-2.09,2.67-1.8,7-9.54,3h0s.51,4.77,8.28,4.22,8.69-6.58,8.69-6.58.86,2,4.69,2.5A21,21,0,0,0,92.65,797.54Z"/>
              <path class="s" d="M69.55,760.53l-1.32,3.37s-6.32,5.47-8.14,7.45a38,38,0,0,1,3.71,12.31,40.73,40.73,0,0,1,3.77,3.44c.87,1.09,3.09,6.11,3.79,7.76s-1.26,6.64-1.26,6.64,2.69,5,7,4.8,7.28-2.8,7.83-7.5.39-5.38.39-5.38,1.94,5.77,4.89,5.77,7.63-5,7.63-5,3.16-2.87,2.87-4.16-7.44-12.51-7.83-14.36-2-8.46-2-8.46l-6.73-10.59-4.11.19Z"/>
              <path class="u" d="M69.55,760.53a11.43,11.43,0,0,0,.76,4c.79,2,3.38,13.22,9.26,17.06L81.84,783v-7.15a27.45,27.45,0,0,0-1-7.19,20.72,20.72,0,0,1-1-6.18s-1.65-.46-1.65-.43S69.55,760.53,69.55,760.53Z"/>
              <path class="t" d="M76.79,765.75s1,.42,1.5-.26a5,5,0,0,0,.79-2.68s2.78.13,3.33-1.33a2.43,2.43,0,0,0-.14-2.29,11.66,11.66,0,0,0-.54-2.51l0-.37s.57-.49.31-1-1.78-2.1-1.94-2.36,0-2.24-.55-3.22a23.87,23.87,0,0,0-1.73-2.34s-5.93-4.63-10.6,0,2.37,13.14,2.37,13.14.56,2.75,1.92,3.84S76.79,765.75,76.79,765.75Z"/>
              <path class="v" d="M72.46,754.48a1.42,1.42,0,0,0-.08-.5,2.45,2.45,0,0,1,1-2.91c1.78-1.3,4.92-2.47,4.83-3.76s-5.06-4.51-8.72-2.79-7.1,6.06-4.6,10.66,4.7,5.35,4.7,5.35.74-.16.07-.92-1.88-2.7-.87-3.31,2.76.71,3,1a2.94,2.94,0,0,1,.26.39.49.49,0,0,0,.63.19l.08,0a.49.49,0,0,0,.26-.61L72.53,756a1.35,1.35,0,0,1-.09-.56Z"/>
              <path class="w" d="M76.64,767a7,7,0,0,0-2.1,2.74A9.33,9.33,0,0,1,76.76,768s1.55.73,1.55,1.22a32.58,32.58,0,0,0,.51,5,54.53,54.53,0,0,1,.32,7.08l1,.65.47-2.41-.18-5.16-.92-4.69s-.17-1.77-.24-1.87S76.64,767,76.64,767Z"/>
              <path class="x" d="M76.64,767s1.51-1.6,2.27-1.63a1.27,1.27,0,0,1,1.19.47c0,.09.73,2.6.73,2.6A31.38,31.38,0,0,1,82.1,778c-.14,5.11-.26,5.07-.26,5.07L80,781.84a23.65,23.65,0,0,0-.52-7.88c-1-4.23-.12-4.86-.6-5.3S76.41,767.56,76.64,767Z"/>
              <path class="p" d="M67.57,787.1c.87,1.09,3,6.1,3.74,7.75a2.44,2.44,0,0,1,.2,1l.29.19.94-.93s-.85-3.06-2.21-6.85-6.73-4.64-6.73-4.64A40.73,40.73,0,0,1,67.57,787.1Z"/>
              <path class="t" d="M69,796.47a17.76,17.76,0,0,1,2-2.53s-.11.63.76,1,5.46,2.16,5.61,2.37,0,.46-.3.52a6.06,6.06,0,0,0,1.34.32c.39,0,.9.48.64.9s-.47.39-.47.39.11.47-.17.58a4.75,4.75,0,0,1-1,.12.57.57,0,0,1-.24.66,15.11,15.11,0,0,1-2.24.39s-1.45-.16-1.86-.17a19.9,19.9,0,0,1-3.1.34,24,24,0,0,1-3.72-1.21C66.06,800,69,796.47,69,796.47Z"/>
              <path class="p" d="M67.93,765l.2,3,1.63.51-1.1.9s4.42,10,10.06,13.21c0,0-5.38-1.91-10.47-13.13,0,0,.53-.63.7-.81l-1.14-.5Z"/>
              <path class="p" d="M82.35,764.68s2,10.24.29,18c0,0,2-3.71.2-18Z"/>
              <path class="y" d="M127.43,749.71a3.61,3.61,0,0,0-1-.78s-2.13.86-2.49,1C123.91,750,126.09,749.74,127.43,749.71Z"/>
              <path class="y" d="M115.19,755.46c.09,0,.43-.25.79-.48h0c-1.42-1.9.14-4.66.14-4.67C113,751.53,115,755.52,115.19,755.46Z"/>
              <path class="y" d="M66.33,800.17a25.79,25.79,0,0,0,2.8,1,15.36,15.36,0,0,0,.55-3.7c-.16-.92-.55-1.14-.55-1.14l-.1.15S66.06,800,66.33,800.17Z"/>
              <path class="z" d="M69,796.34a3.24,3.24,0,0,1-.61,2.84c-1.08,1.24-1.2,1.39-1.2,1.39H66a13.1,13.1,0,0,1-.55-2C65.53,798.52,69,796.34,69,796.34Z"/>
              <path class="p" d="M80.6,767.67h0s1.19,7,.92,9.6a44.32,44.32,0,0,0-.17,5.36l.38.33.11.07s.12,0,.26-5.07a31.38,31.38,0,0,0-1.27-9.48S80.72,768.12,80.6,767.67Z"/>
              <path class="p" d="M81,840.5a5.38,5.38,0,0,0,1.07-.77,54,54,0,0,1-2.13-11.12,33.42,33.42,0,0,0,2.26-6.85c-.16.64-2.12,4.11-3,7.66S81,840.5,81,840.5Z"/>
              <g>
                <path class="y" d="M72.29,759.4v0Z"/>
                <path class="y" d="M72.29,759.4a10.22,10.22,0,0,0,1.55,3.84c1,1.22,1.85,2.39,1.85,2.39l1.1.12s1,.42,1.5-.26a5,5,0,0,0,.79-2.68s-3.76-.39-5.19-1.39A3.58,3.58,0,0,1,72.29,759.4Z"/>
              </g>
              <path class="aa" d="M70.93,794a4.14,4.14,0,0,0,.24.46s.09-.32.09-.32-.17-.35-.18-.35S70.93,794,70.93,794Z"/>
              <path class="p" d="M81.84,783s2.62,8.36,3.49,10.39l-.06,2S81.94,785,81.84,783Z"/>
              <path class="p" d="M84.37,786a.89.89,0,0,1-.56,1.13.87.87,0,0,1-1.08-.63.89.89,0,0,1,.55-1.14A.9.9,0,0,1,84.37,786Z"/>
              <path class="p" d="M85.69,789.62a.86.86,0,1,1-1.64.5.91.91,0,0,1,.56-1.14A.89.89,0,0,1,85.69,789.62Z"/>
            </g>
            <path class="ab" d="M72.53,756a1.35,1.35,0,0,1-.09-.56l0-1a1.42,1.42,0,0,0-.08-.5,2.66,2.66,0,0,1-.13-.62s-4.08,3-6.67,3.08c2.18,3.48,4,4.09,4,4.09s.74-.16.07-.92-1.88-2.7-.87-3.31,2.76.71,3,1a2.94,2.94,0,0,1,.26.39.49.49,0,0,0,.63.19l.08,0a.49.49,0,0,0,.26-.61Z"/>
          </g>
          <g>
            <g>
              <path class="p" d="M66.22,871.39a23.77,23.77,0,0,0,3.43.11c1.68-.09,6.28.28,6.27,1.71s-2.2,3.65-5.12,4.21-6.76.18-8.68.39-3.41-1.3-2.82-2.94S66.22,871.39,66.22,871.39Z"/>
              <path class="p" d="M55.74,868.4s-.54.93-.16,1.44,1.36,1.76,4,.24,7.68-3.83,7.68-3.83,2.91-1.64,2.61-3.26-3.1-1.12-3.1-1.12Z"/>
              <path class="q" d="M71.66,842.91s-.31,11.34-2.49,15.69-2.2,11.81-2.6,13.25A6.23,6.23,0,0,1,62.28,876c-2.49.64-3.06-.76-3-1.64a28.29,28.29,0,0,0,.49-3.29,8.48,8.48,0,0,0-.49-1.81s-2.85,1-3.52-.9a4.23,4.23,0,0,0,.18-.87c0-.29-1.09-7.38-1.26-8.25a32.71,32.71,0,0,1,.4-8.18c.58-2.47-.28-7.62-.28-7.62l8.69-1.86Z"/>
              <path class="p" d="M57.47,844.09a8.1,8.1,0,0,0,1.22,3.19,54,54,0,0,0,1.6,8.85,77.34,77.34,0,0,1-1,7.81,18.33,18.33,0,0,0,0,5.36,3.48,3.48,0,0,1-.8.19c-.48.06-1.28-6.91-.67-8.22s.58-7,.11-8.7-.91-6.76-1.39-7.63a1.08,1.08,0,0,1,.34-1.42Z"/>
              <path class="ac" d="M60.75,798.57a6.53,6.53,0,0,1,3.08,5l-2.07-.24S62,799.61,60.75,798.57Z"/>
              <path class="p" d="M64.1,846c-5.77.67-9.15-1.33-9.15-1.33-.09-.73-.17-1.2-.17-1.2l8.69-1.86,8.19,1.29s-.06,2.28-.33,5.18c-1.4.26-3-2.69-3-2.69l-4,.57S69.87,845.35,64.1,846Z"/>
              <path class="r" d="M70.55,843.18s-12.16,5.65-19.23-2.49a1.43,1.43,0,0,1-.34-.85l-.17-2.07a2,2,0,0,0-.21-.76h0a3.06,3.06,0,0,1-.32-1.66c.21-2.39.77-9,.88-10.86.12-2.29-2.23-11.37-4.94-15.25s1.94-13.78,1.94-13.78a3.74,3.74,0,0,1,4.06-1.83s-2.47,2-.81,3.8,6.14,2.89,6.14,2.89,8.33,3.27,11.42,7.78a18.66,18.66,0,0,1,1.43,5.41c.32,3,.51,10.29.72,11.27s1.12,7.58,1.1,7.89S70.55,843.18,70.55,843.18Z"/>
              <g>
                <path class="p" d="M51.06,795.12A1.86,1.86,0,0,1,51,793.6a3.92,3.92,0,0,1,1.27,0A4.73,4.73,0,0,0,51.06,795.12Z"/>
                <path class="p" d="M66.81,844.45s-9.31-17.74-9.66-24.77,12.48,12.68,12.48,12.68l.92,10.82A24.75,24.75,0,0,1,66.81,844.45Z"/>
              </g>
              <path class="s" d="M69.05,822.19a30.25,30.25,0,0,1-.85-4.73c-.26-2.81-1.5-7.46-6.92-6.15-7.63,1.84-3.31,11.56-2.31,13.2s5,9,5.22,9.36S70.27,843,72.25,845a.48.48,0,0,0,.66,0c.69-.62,2.23-2.08,2.39-2.94.2-1.1-1.15-5-1.15-5s-3.68-9.89-4-10.34S69.71,824.69,69.05,822.19Z"/>
              <path class="t" d="M60.64,798.82a2.76,2.76,0,0,1,2-1.71c1.45-.27,2.24-.73,2.34-1.27a10.46,10.46,0,0,1,.35-2A14.16,14.16,0,0,0,65.7,791s1.09-.48,1.1-1-.7-2.16-.65-2.3a4.4,4.4,0,0,0,.42-2.09,9.81,9.81,0,0,0-.89-3c-.53-1-4.25-7.06-12.26-3s-1,10.3-1.31,14.73c0,0-.63,1,.86,2.39S58.34,798.15,60.64,798.82Z"/>
              <path class="y" d="M53,796.73c-1.49-1.42-.86-2.39-.86-2.39a6,6,0,0,0-.22-1.93l3.27.32s4.36-4.56,4.23-2.3,1,2.53,1,2.53l-.86,1.28c-.22.33,0,.68.2,1,1.54,2.12,4.74,1.16,4.75,1.16a4.61,4.61,0,0,1-1.94.71,2.76,2.76,0,0,0-2,1.71C58.34,798.15,54.46,798.16,53,796.73Z"/>
              <g>
                <path class="v" d="M65.85,780.24s.71,1.63-.17,2.42S64,784.18,64,784.18l.18,2.11a1.56,1.56,0,0,1-.18.87L63,789a2.19,2.19,0,0,0-.25,1.18l.07.84a.49.49,0,0,1-.39.52l-.3.06a.49.49,0,0,1-.58-.38l-.23-1.17s-.7-.89-1.93.36l-1.16.58a1.29,1.29,0,0,0-.65.8c-.25.93-.79,2.77-1.3,3.1-.68.46-3.62-.69-4.06-1.28s-1.84-4.7-2.65-6.67-1-7.06,5-8.91S64.85,778.47,65.85,780.24Z"/>
                <path class="ab" d="M52.22,793.63c-.44-.59-1.84-4.7-2.65-6.67a15.45,15.45,0,0,0,5.63,1.52c3.1.19,8.87-3.74,8.87-3.74l.13,1.55a1.56,1.56,0,0,1-.18.87L63,789a2.19,2.19,0,0,0-.25,1.18l.07.84a.49.49,0,0,1-.39.52l-.3.06a.49.49,0,0,1-.58-.38l-.23-1.17s-.7-.89-1.93.36l-1.67.84s-.76,3.19-1.44,3.64S52.66,794.22,52.22,793.63Z"/>
              </g>
              <path class="u" d="M52.12,793.83s-2.19,1.61-.81,3.48,10.12,4.62,10.58,5.09c0,0,.07-2.94-1.14-3.83,0,0-6.57-.65-7.74-2.16A3.19,3.19,0,0,1,52.12,793.83Z"/>
              <path class="w" d="M52.12,793.83a3.19,3.19,0,0,0,.89,2.58c.88,1.15,4.86,1.79,6.75,2h0a6.65,6.65,0,0,0-1.62,2.41c-2.71-1.06-6-2.45-6.83-3.55C49.93,795.44,52.12,793.83,52.12,793.83Z"/>
              <path class="p" d="M51.22,800.28s4,1.73,5.86,2.49,4,1.82,4,1.82l.64-.72,1,1.67a24.94,24.94,0,0,1,4.42,2.61,13.71,13.71,0,0,1,2.75,3.27s-3.88-4.06-6.79-5.13l-.78-.3-.56-1.34-.62.75S52.49,801.4,51.22,800.28Z"/>
            </g>
            <g>
              <path class="r" d="M65.94,854.73h0a1.47,1.47,0,0,1,.39-.67l13.29-11.65c.35-.31.73-.13.84.4l2.37,11.94a1.79,1.79,0,0,1-.45,1.54l-10.93,9.58.67,3.22-3.52-1h0a.7.7,0,0,1-.35-.53l-2.37-11.94A1.81,1.81,0,0,1,65.94,854.73Z"/>
              <path class="r" d="M83.56,843.29l-3.43-1-.12,0a.48.48,0,0,0-.39.15L66.33,854.06a1.47,1.47,0,0,0-.39.67l.51.16h0l2.94,1L81,845.55h0Z"/>
              <path class="p" d="M85.86,857.3,72.57,869c-.35.31-.73.13-.84-.4l-2.37-11.94a1.79,1.79,0,0,1,.45-1.54L83.1,843.42c.35-.31.73-.13.84.41l2.37,11.94A1.78,1.78,0,0,1,85.86,857.3Z"/>
              <path class="ad" d="M70,868l-2.37-11.94a1.79,1.79,0,0,1,.45-1.54l13.29-11.65a.62.62,0,0,1,.32-.15.48.48,0,0,0-.44.14L67.91,854.52a1.79,1.79,0,0,0-.45,1.54L69.83,868c.08.37.27.59.5.58C70.15,868.52,70,868.31,70,868Z"/>
              <g>
                <g>
                  <path class="p" d="M73.55,849.61l-.75-.26a.78.78,0,0,0-.47,0h-.06c-.07,0-.1.1-.08.19l0,.12,2.14.73,0-.12a.47.47,0,0,0-.17-.28l-.08-.06A1.53,1.53,0,0,0,73.55,849.61Z"/>
                  <polygon class="p" points="73.41 851.19 74.35 850.37 72.21 849.38 71.29 850.18 73.41 851.19"/>
                  <path class="r" d="M72.62,850.43l-.76-.26a.74.74,0,0,0-.46,0h-.06a.15.15,0,0,0-.09.19l0,.12,2.13.73,0-.12a.54.54,0,0,0-.18-.28l-.07-.06A1.74,1.74,0,0,0,72.62,850.43Z"/>
                  <polygon class="ad" points="72.2 850.78 72.1 850.25 72.17 850.27 72.27 850.8 72.2 850.78"/>
                  <polygon class="ad" points="72.1 850.25 73.06 849.44 73.12 849.46 72.17 850.27 72.1 850.25"/>
                </g>
                <g>
                  <path class="p" d="M77.79,845.9l-.76-.26a.74.74,0,0,0-.46,0h-.06c-.07,0-.1.1-.08.19l0,.12,2.14.73,0-.12a.49.49,0,0,0-.18-.28l-.07-.06A1.63,1.63,0,0,0,77.79,845.9Z"/>
                  <polygon class="p" points="77.65 847.48 78.59 846.66 76.45 845.67 75.53 846.47 77.65 847.48"/>
                  <path class="r" d="M76.86,846.72l-.76-.26a.74.74,0,0,0-.46,0h-.06a.15.15,0,0,0-.09.19l0,.12,2.13.73,0-.12a.54.54,0,0,0-.18-.28l-.07-.06A1.55,1.55,0,0,0,76.86,846.72Z"/>
                  <polygon class="ad" points="76.44 847.07 76.34 846.54 76.4 846.56 76.51 847.09 76.44 847.07"/>
                  <polygon class="ad" points="76.34 846.54 77.3 845.73 77.36 845.75 76.4 846.56 76.34 846.54"/>
                </g>
                <g>
                  <path class="z" d="M71.5,847.75,72,850l.62-.55-.43-2.18a1.15,1.15,0,0,1,.33-1l2.72-2.39c.25-.21.5-.13.56.19l.43,2.17.63-.55-.45-2.23c-.14-.7-.69-.89-1.22-.42l-2.91,2.55A2.5,2.5,0,0,0,71.5,847.75Z"/>
                  <path class="z" d="M76.2,843.67H75l-3.22,3.14v1.75L72,850l.79.26-.12-1.79-.05-1.24.64-1s1.21-1,1.23-1.06S76.2,843.67,76.2,843.67Z"/>
                  <polygon class="z" points="76.97 846.54 76.18 846.27 75.86 844.67 76.6 844.66 76.82 844.67 76.97 846.54"/>
                  <path class="z" d="M76.71,843.12l-.86-.29.25.38.29.06Z"/>
                  <path class="x" d="M72.29,848l.45,2.23.62-.55-.43-2.17a1.11,1.11,0,0,1,.33-1L76,844.18c.25-.21.5-.13.56.19l.43,2.17.63-.55-.45-2.23a.69.69,0,0,0-1.23-.42L73,845.89A2.49,2.49,0,0,0,72.29,848Z"/>
                </g>
              </g>
            </g>
            <path class="t" d="M75.08,842a12.51,12.51,0,0,1,.56,2.78,4.07,4.07,0,0,1-1.94,2c-.71.27-.47-.52-.67-1a6.18,6.18,0,0,1-.25-1.52Z"/>
            <path class="y" d="M72.78,844.26l2.3-2.29s.14.45.27,1a5.79,5.79,0,0,1-2.4,2.56A7.09,7.09,0,0,1,72.78,844.26Z"/>
            <path class="z" d="M75.28,842.12s-.7,2.5-2.86,2.92l.54-2.72,1.87-.63C74.89,841.67,75.28,842.12,75.28,842.12Z"/>
          </g>
        </g>
        <g>
          <g class="g">
            <g>
              <polygon class="ae" points="166.68 772.49 158.29 761.17 165.13 882.64 190.63 886.58 209.31 769.06 166.68 772.49"/>
              <polygon class="af" points="158.29 761.17 176.97 750.39 202.47 754.33 209.31 769.06 190.63 779.84 165.13 775.89 158.29 761.17"/>
              <polygon class="h" points="158.79 760.88 165.37 775.04 190.88 778.99 209.05 768.5 209.31 769.06 190.63 779.84 165.13 775.89 158.29 761.17 158.79 760.88"/>
              <polygon class="ag" points="165.13 775.89 165.13 882.64 190.63 886.58 190.63 779.84 165.13 775.89"/>
              <polygon class="ah" points="158.29 761.17 158.29 867.91 165.13 882.64 165.13 775.89 158.29 761.17"/>
              <polygon class="ai" points="209.31 769.06 209.31 875.8 190.63 886.58 190.63 779.84 209.31 769.06"/>
            </g>
            <g>
              <polygon class="aj" points="206.84 813.67 198.46 802.36 205.29 904.55 230.8 908.49 249.47 810.25 206.84 813.67"/>
              <polygon class="ak" points="198.46 802.36 217.13 791.58 242.64 795.52 249.47 810.25 230.8 821.03 205.29 817.08 198.46 802.36"/>
              <polygon class="h" points="198.96 802.07 205.54 816.23 231.04 820.18 249.21 809.69 249.47 810.25 230.8 821.03 205.29 817.08 198.46 802.36 198.96 802.07"/>
              <polygon class="al" points="205.29 817.08 205.29 904.55 230.8 908.49 230.8 821.03 205.29 817.08"/>
              <polygon class="am" points="198.46 802.36 198.46 889.82 205.29 904.55 205.29 817.08 198.46 802.36"/>
              <polygon class="an" points="249.47 810.25 249.47 897.71 230.8 908.49 230.8 821.03 249.47 810.25"/>
            </g>
            <g>
              <polygon class="ao" points="247.01 857.4 238.63 846.09 245.46 928.21 270.97 932.15 289.64 853.98 247.01 857.4"/>
              <polygon class="ap" points="238.63 846.09 257.3 835.31 282.81 839.25 289.64 853.98 270.97 864.76 245.46 860.81 238.63 846.09"/>
              <polygon class="h" points="239.13 845.8 245.7 859.97 271.21 863.91 289.38 853.42 289.64 853.98 270.97 864.76 245.46 860.81 238.63 846.09 239.13 845.8"/>
              <polygon class="aq" points="245.46 860.81 245.46 928.21 270.97 932.15 270.97 864.76 245.46 860.81"/>
              <polygon class="ar" points="238.63 846.09 238.63 913.48 245.46 928.21 245.46 860.81 238.63 846.09"/>
              <polygon class="as" points="289.64 853.98 289.64 921.37 270.97 932.15 270.97 864.76 289.64 853.98"/>
            </g>
            <g>
              <polygon class="at" points="287.17 888.85 278.79 877.53 285.63 951.87 311.13 955.81 329.81 885.43 287.17 888.85"/>
              <polygon class="au" points="278.79 877.53 297.47 866.75 322.97 870.7 329.81 885.43 311.13 896.21 285.63 892.26 278.79 877.53"/>
              <polygon class="h" points="279.29 877.25 285.87 891.41 311.37 895.36 329.55 884.87 329.81 885.43 311.13 896.21 285.63 892.26 278.79 877.53 279.29 877.25"/>
              <polygon class="av" points="285.63 892.26 285.63 951.87 311.13 955.81 311.13 896.21 285.63 892.26"/>
              <polygon class="aw" points="278.79 877.53 278.79 937.14 285.63 951.87 285.63 892.26 278.79 877.53"/>
              <polygon class="ax" points="329.81 885.43 329.81 945.03 311.13 955.81 311.13 896.21 329.81 885.43"/>
            </g>
            <g>
              <polygon class="ay" points="327.34 927.24 318.96 915.92 325.79 975.52 351.3 979.47 369.97 923.81 327.34 927.24"/>
              <polygon class="az" points="318.96 915.92 337.63 905.14 363.14 909.09 369.97 923.81 351.3 934.59 325.79 930.64 318.96 915.92"/>
              <polygon class="h" points="319.46 915.63 326.04 929.8 351.54 933.74 369.71 923.25 369.97 923.81 351.3 934.59 325.79 930.64 318.96 915.92 319.46 915.63"/>
              <polygon class="ba" points="325.79 930.64 325.79 975.52 351.3 979.47 351.3 934.59 325.79 930.64"/>
              <polygon class="bb" points="318.96 915.92 318.96 960.8 325.79 975.52 325.79 930.64 318.96 915.92"/>
              <polygon class="bc" points="369.97 923.81 369.97 968.69 351.3 979.47 351.3 934.59 369.97 923.81"/>
            </g>
          </g>
          <g>
            <g>
              <polygon class="bd" points="166.68 746.6 158.29 735.28 165.13 836.33 190.63 840.27 209.31 743.17 166.68 746.6"/>
              <polygon class="be" points="158.29 735.28 176.97 724.5 202.47 728.45 209.31 743.17 190.63 753.95 165.13 750.01 158.29 735.28"/>
              <polygon class="h" points="158.79 734.99 165.37 749.16 190.88 753.1 209.05 742.61 209.31 743.17 190.63 753.95 165.13 750.01 158.29 735.28 158.79 734.99"/>
              <polygon class="bf" points="165.13 750.01 165.13 836.33 190.63 840.27 190.63 753.95 165.13 750.01"/>
              <polygon class="bg" points="158.29 735.28 158.29 821.6 165.13 836.33 165.13 750.01 158.29 735.28"/>
              <polygon class="bh" points="209.31 743.17 209.31 829.49 190.63 840.27 190.63 753.95 209.31 743.17"/>
            </g>
            <g>
              <polygon class="bi" points="206.84 787.79 198.46 776.47 205.29 859.99 230.8 863.93 249.47 784.36 206.84 787.79"/>
              <polygon class="bj" points="198.46 776.47 217.13 765.69 242.64 769.63 249.47 784.36 230.8 795.14 205.29 791.19 198.46 776.47"/>
              <polygon class="h" points="198.96 776.18 205.54 790.35 231.04 794.29 249.21 783.8 249.47 784.36 230.8 795.14 205.29 791.19 198.46 776.47 198.96 776.18"/>
              <polygon class="bk" points="205.29 791.19 205.29 859.99 230.8 863.93 230.8 795.14 205.29 791.19"/>
              <polygon class="bl" points="198.46 776.47 198.46 845.26 205.29 859.99 205.29 791.19 198.46 776.47"/>
              <polygon class="bm" points="249.47 784.36 249.47 853.15 230.8 863.93 230.8 795.14 249.47 784.36"/>
            </g>
            <g>
              <polygon class="bn" points="247.01 831.52 238.63 820.2 245.46 883.65 270.97 887.59 289.64 828.09 247.01 831.52"/>
              <polygon class="bo" points="238.63 820.2 257.3 809.42 282.81 813.37 289.64 828.09 270.97 838.87 245.46 834.93 238.63 820.2"/>
              <polygon class="h" points="239.13 819.91 245.7 834.08 271.21 838.02 289.38 827.53 289.64 828.09 270.97 838.87 245.46 834.93 238.63 820.2 239.13 819.91"/>
              <polygon class="bp" points="245.46 834.93 245.46 883.65 270.97 887.59 270.97 838.87 245.46 834.93"/>
              <polygon class="bq" points="238.63 820.2 238.63 868.92 245.46 883.65 245.46 834.93 238.63 820.2"/>
              <polygon class="br" points="289.64 828.09 289.64 876.81 270.97 887.59 270.97 838.87 289.64 828.09"/>
            </g>
            <g>
              <polygon class="bs" points="287.17 862.97 278.79 851.65 285.63 907.31 311.13 911.25 329.81 859.54 287.17 862.97"/>
              <polygon class="bt" points="278.79 851.65 297.47 840.87 322.97 844.81 329.81 859.54 311.13 870.32 285.63 866.37 278.79 851.65"/>
              <polygon class="bu" points="287.18 852.95 299.71 845.71 316.83 848.36 321.42 858.24 308.89 865.48 291.77 862.83 287.18 852.95"/>
              <polygon class="h" points="279.29 851.36 285.87 865.52 311.37 869.47 329.55 858.98 329.81 859.54 311.13 870.32 285.63 866.37 278.79 851.65 279.29 851.36"/>
              <polygon class="bv" points="285.63 866.37 285.63 907.31 311.13 911.25 311.13 870.32 285.63 866.37"/>
              <polygon class="bw" points="278.79 851.65 278.79 892.58 285.63 907.31 285.63 866.37 278.79 851.65"/>
              <polygon class="bx" points="329.81 859.54 329.81 900.47 311.13 911.25 311.13 870.32 329.81 859.54"/>
            </g>
            <g>
              <polygon class="by" points="287.17 839.18 278.79 827.86 285.63 853.15 311.13 857.09 329.81 835.75 287.17 839.18"/>
              <polygon class="bz" points="278.79 827.86 297.47 817.08 322.97 821.03 329.81 835.75 311.13 846.53 285.63 842.59 278.79 827.86"/>
              <polygon class="h" points="279.29 827.57 285.87 841.74 311.37 845.68 329.55 835.19 329.81 835.75 311.13 846.53 285.63 842.59 278.79 827.86 279.29 827.57"/>
              <polygon class="ca" points="285.63 842.59 285.63 853.15 311.13 857.09 311.13 846.53 285.63 842.59"/>
              <polygon class="cb" points="278.79 827.86 278.79 838.42 285.63 853.15 285.63 842.59 278.79 827.86"/>
              <polygon class="cc" points="329.81 835.75 329.81 846.31 311.13 857.09 311.13 846.53 329.81 835.75"/>
            </g>
            <g>
              <polygon class="cd" points="327.34 901.35 318.96 890.03 325.79 930.97 351.3 934.91 369.97 897.92 327.34 901.35"/>
              <polygon class="ce" points="318.96 890.03 337.63 879.25 363.14 883.2 369.97 897.92 351.3 908.7 325.79 904.76 318.96 890.03"/>
              <polygon class="h" points="319.46 889.74 326.04 903.91 351.54 907.86 369.71 897.36 369.97 897.92 351.3 908.7 325.79 904.76 318.96 890.03 319.46 889.74"/>
              <polygon class="cf" points="325.79 904.76 325.79 930.97 351.3 934.91 351.3 908.7 325.79 904.76"/>
              <polygon class="cg" points="318.96 890.03 318.96 916.24 325.79 930.97 325.79 904.76 318.96 890.03"/>
              <polygon class="ch" points="369.97 897.92 369.97 924.13 351.3 934.91 351.3 908.7 369.97 897.92"/>
            </g>
          </g>
        </g>
        <g>
          <g class="g">
            <polygon class="ci" points="200.92 943.13 192.54 931.81 199.38 957.1 224.88 961.04 243.55 939.7 200.92 943.13"/>
            <polygon class="cj" points="192.54 931.81 211.21 921.03 236.72 924.97 243.55 939.7 224.88 950.48 199.38 946.53 192.54 931.81"/>
            <polygon class="h" points="193.04 931.52 199.62 945.69 225.12 949.63 243.29 939.14 243.55 939.7 224.88 950.48 199.38 946.53 192.54 931.81 193.04 931.52"/>
            <polygon class="ck" points="199.38 946.53 199.38 957.1 224.88 961.04 224.88 950.48 199.38 946.53"/>
            <polygon class="cl" points="192.54 931.81 192.54 942.37 199.38 957.1 199.38 946.53 192.54 931.81"/>
            <polygon class="cm" points="243.55 939.7 243.55 950.26 224.88 961.04 224.88 950.48 243.55 939.7"/>
          </g>
          <g>
            <polygon class="cn" points="200.92 921.69 192.54 910.37 199.38 935.66 224.88 939.6 243.55 918.26 200.92 921.69"/>
            <polygon class="co" points="192.54 910.37 211.21 899.59 236.72 903.54 243.55 918.26 224.88 929.04 199.38 925.1 192.54 910.37"/>
            <polygon class="h" points="193.04 910.08 199.62 924.25 225.12 928.19 243.29 917.7 243.55 918.26 224.88 929.04 199.38 925.1 192.54 910.37 193.04 910.08"/>
            <polygon class="cp" points="199.38 925.1 199.38 935.66 224.88 939.6 224.88 929.04 199.38 925.1"/>
            <polygon class="cq" points="192.54 910.37 192.54 920.93 199.38 935.66 199.38 925.1 192.54 910.37"/>
            <polygon class="cr" points="243.55 918.26 243.55 928.82 224.88 939.6 224.88 929.04 243.55 918.26"/>
          </g>
        </g>
        <g>
          <g class="g">
            <polygon class="cs" points="63.29 960.26 54.91 948.95 61.74 974.23 87.25 978.18 105.92 956.84 63.29 960.26"/>
            <polygon class="ct" points="54.91 948.95 73.58 938.17 99.09 942.11 105.92 956.84 87.25 967.62 61.74 963.67 54.91 948.95"/>
            <polygon class="h" points="55.41 948.66 61.98 962.82 87.49 966.77 105.66 956.28 105.92 956.84 87.25 967.62 61.74 963.67 54.91 948.95 55.41 948.66"/>
            <polygon class="cu" points="61.74 963.67 61.74 974.23 87.25 978.18 87.25 967.62 61.74 963.67"/>
            <polygon class="cv" points="54.91 948.95 54.91 959.51 61.74 974.23 61.74 963.67 54.91 948.95"/>
            <polygon class="cw" points="105.92 956.84 105.92 967.4 87.25 978.18 87.25 967.62 105.92 956.84"/>
          </g>
          <g>
            <polygon class="cx" points="63.29 938.83 54.91 927.51 61.74 952.79 87.25 956.74 105.92 935.4 63.29 938.83"/>
            <polygon class="cy" points="54.91 927.51 73.58 916.73 99.09 920.67 105.92 935.4 87.25 946.18 61.74 942.23 54.91 927.51"/>
            <polygon class="h" points="55.41 927.22 61.98 941.39 87.49 945.33 105.66 934.84 105.92 935.4 87.25 946.18 61.74 942.23 54.91 927.51 55.41 927.22"/>
            <polygon class="cz" points="61.74 942.23 61.74 952.79 87.25 956.74 87.25 946.18 61.74 942.23"/>
            <polygon class="da" points="54.91 927.51 54.91 938.07 61.74 952.79 61.74 942.23 54.91 927.51"/>
            <polygon class="db" points="105.92 935.4 105.92 945.96 87.25 956.74 87.25 946.18 105.92 935.4"/>
          </g>
        </g>
        <g>
          <g class="g">
            <polygon class="dc" points="478.62 898.42 470.24 887.1 477.07 912.39 502.58 916.34 521.25 895 478.62 898.42"/>
            <polygon class="dd" points="470.24 887.1 488.91 876.32 514.42 880.27 521.25 895 502.58 905.77 477.07 901.83 470.24 887.1"/>
            <polygon class="h" points="470.74 886.82 477.31 900.98 502.82 904.93 520.99 894.44 521.25 895 502.58 905.77 477.07 901.83 470.24 887.1 470.74 886.82"/>
            <polygon class="de" points="477.07 901.83 477.07 912.39 502.58 916.34 502.58 905.77 477.07 901.83"/>
            <polygon class="df" points="470.24 887.1 470.24 897.66 477.07 912.39 477.07 901.83 470.24 887.1"/>
            <polygon class="dg" points="521.25 895 521.25 905.56 502.58 916.34 502.58 905.77 521.25 895"/>
          </g>
          <g>
            <polygon class="dh" points="478.62 876.98 470.24 865.67 477.07 890.95 502.58 894.9 521.25 873.56 478.62 876.98"/>
            <polygon class="di" points="470.24 865.67 488.91 854.89 514.42 858.83 521.25 873.56 502.58 884.34 477.07 880.39 470.24 865.67"/>
            <polygon class="h" points="470.74 865.38 477.31 879.54 502.82 883.49 520.99 873 521.25 873.56 502.58 884.34 477.07 880.39 470.24 865.67 470.74 865.38"/>
            <polygon class="dj" points="477.07 880.39 477.07 890.95 502.58 894.9 502.58 884.34 477.07 880.39"/>
            <polygon class="dk" points="470.24 865.67 470.24 876.23 477.07 890.95 477.07 880.39 470.24 865.67"/>
            <polygon class="dl" points="521.25 873.56 521.25 884.12 502.58 894.9 502.58 884.34 521.25 873.56"/>
          </g>
        </g>
      </g>
    </g>
  </g>
</svg>
