<svg xmlns="http://www.w3.org/2000/svg" xmlns:xlink="http://www.w3.org/1999/xlink" viewBox="0 0 472 270">
  <defs>
    <style>
      .a {
        fill: url(#a);
      }

      .b {
        fill: url(#b);
      }

      .c {
        fill: url(#c);
      }

      .d {
        fill: url(#d);
      }

      .e {
        fill: url(#e);
      }

      .f {
        fill: url(#f);
      }

      .g {
        fill: url(#g);
      }

      .h {
        fill: url(#h);
      }
    </style>
    <linearGradient id="a" x1="2484.57" y1="1043" x2="2484.57" y2="867.67" gradientTransform="translate(-2446.77 -785.8)" gradientUnits="userSpaceOnUse">
      <stop offset="0" stop-color="#002653" stop-opacity="0"/>
      <stop offset="0.15" stop-color="#063462" stop-opacity="0.12"/>
      <stop offset="0.47" stop-color="#165887" stop-opacity="0.43"/>
      <stop offset="0.93" stop-color="#2f90c3" stop-opacity="0.92"/>
      <stop offset="1" stop-color="#39c"/>
    </linearGradient>
    <linearGradient id="b" x1="2540.89" y1="1043" x2="2540.89" y2="831.96" xlink:href="#a"/>
    <linearGradient id="c" x1="2597.21" y1="1043" x2="2597.21" y2="867.67" xlink:href="#a"/>
    <linearGradient id="d" x1="2653.54" y1="1043" x2="2653.54" y2="835.2" xlink:href="#a"/>
    <linearGradient id="e" x1="2709.86" y1="1043" x2="2709.86" y2="799.49" xlink:href="#a"/>
    <linearGradient id="f" x1="2766.18" y1="1043" x2="2766.18" y2="812.48" xlink:href="#a"/>
    <linearGradient id="g" x1="2822.5" y1="1043" x2="2822.5" y2="844.94" xlink:href="#a"/>
    <linearGradient id="h" x1="2878.83" y1="1043" x2="2878.83" y2="861.18" xlink:href="#a"/>
  </defs>
  <title>stor-logo</title>
  <g>
    <rect class="a" x="21.86" y="81.88" width="31.89" height="175.33"/>
    <rect class="b" x="78.18" y="46.16" width="31.89" height="211.04"/>
    <rect class="c" x="134.5" y="81.88" width="31.89" height="175.33"/>
    <rect class="d" x="190.82" y="49.41" width="31.89" height="207.8"/>
    <rect class="e" x="247.14" y="13.69" width="31.89" height="243.51"/>
    <rect class="f" x="303.47" y="26.68" width="31.89" height="230.52"/>
    <rect class="g" x="359.79" y="59.15" width="31.89" height="198.06"/>
    <rect class="h" x="416.11" y="75.38" width="31.89" height="181.82"/>
  </g>
</svg>
