<svg xmlns="http://www.w3.org/2000/svg" xmlns:xlink="http://www.w3.org/1999/xlink" viewBox="0 0 645.38 305.11"><defs><style>.a{fill:#fff;}.b{fill:#39c;}.c{mask:url(#a);}.d{opacity:0.18;}.e,.f,.g{fill:none;}.e,.f,.g,.h{stroke:#fff;stroke-miterlimit:10;}.e{stroke-width:1.53px;}.f{stroke-width:1.15px;}.g,.h{stroke-width:0.77px;}.h{fill:#8491aa;}</style><mask id="a" x="0" y="0" width="645.38" height="305.11" maskUnits="userSpaceOnUse"><rect class="a" y="1.99" width="640" height="302" rx="50" ry="50"/></mask></defs><title>Asset 7</title><rect class="b" y="1.99" width="640" height="302" rx="50" ry="50"/><g class="c"><g class="d"><polyline class="e" points="635 27.99 613.75 52.59 585.69 91.36 539.78 86.26 511.21 35.76 473.63 18.84"/><polyline class="e" points="539.78 86.26 495.91 119.93 448.47 93.4"/><polyline class="e" points="585.69 91.36 608.65 127.07 604.57 174.51 638.24 210.73"/><polyline class="e" points="604.57 174.51 568.35 167.37 535.7 193.9 495.91 169.41 462.24 193.9 455.1 255.11"/><polyline class="e" points="412.76 193.9 416.84 157.17 381.64 147.48"/><line class="e" x1="544.45" y1="0.56" x2="511.21" y2="35.76"/><line class="e" x1="592.84" y1="290.82" x2="591" y2="303.99"/><polyline class="e" points="398.48 297.96 405.62 251.54 379.6 230.12"/><polyline class="e" points="327.06 242.87 328.13 286.3 313 303.99"/><polyline class="e" points="640 238.99 603.47 248.99 571.84 230.63 549.9 273.99 557 303.99"/><polyline class="f" points="613.75 100.55 608.65 127.07 629.31 116.36"/><polyline class="f" points="544.45 0.56 575.49 7.7 606.61 0.56"/><line class="f" x1="448.47" y1="93.4" x2="470.15" y2="70.32"/><line class="f" x1="568.35" y1="167.37" x2="546.92" y2="143.78"/><line class="f" x1="629.31" y1="157.17" x2="604.57" y2="174.51"/><polyline class="f" points="462.24 193.9 486.98 198.11 472.06 213.79 480.1 234.07 455.1 255.11"/><line class="f" x1="514.15" y1="255.11" x2="480.1" y2="234.07"/><polyline class="f" points="433.42 216.09 426.53 242.87 405.62 251.54"/><polyline class="f" points="398.48 297.96 423.98 281.64 462.24 288.78 501.14 283.68 508.5 304.49"/><line class="f" x1="438.08" y1="136.13" x2="416.84" y2="157.17"/><polyline class="f" points="381.64 147.48 361.11 174.51 322.85 160.23 332.8 127.07 314.05 100.55"/><line class="f" x1="368" y1="116.36" x2="332.8" y2="127.07"/><line class="f" x1="328.13" y1="286.3" x2="363.33" y2="288.78"/><polyline class="f" points="603.47 248.99 613.92 278.65 620.5 293.49"/><polyline class="f" points="526.16 269.32 549.9 273.99 535.49 295.92"/><line class="f" x1="542.76" y1="239.17" x2="571.84" y2="230.63"/><line class="g" x1="611.96" y1="18.16" x2="607.5" y2="4.49"/><line class="g" x1="570.84" y1="25.56" x2="575.49" y2="7.7"/><line class="g" x1="511.21" y1="35.76" x2="501.14" y2="13.99"/><line class="g" x1="473.63" y1="18.84" x2="472.5" y2="1.49"/><line class="g" x1="448.47" y1="93.4" x2="423.98" y2="79.12"/><line class="g" x1="638.24" y1="210.73" x2="620.89" y2="221.11"/><line class="g" x1="501.14" y1="283.68" x2="520.65" y2="279.02"/><polyline class="g" points="489.78 251.54 480.1 234.07 496.48 219.24"/><line class="h" x1="379.6" y1="230.12" x2="361.11" y2="222.98"/><polyline class="g" points="351.12 157.17 361.11 174.51 351.12 186.76"/><polyline class="g" points="305.12 162.27 322.85 160.23 309.79 136.13"/><polyline class="g" points="613.75 279.77 592.84 290.82 568.52 290.82"/><line class="g" x1="585.69" y1="264.81" x2="592.84" y2="290.82"/><circle class="a" cx="613.75" cy="52.59" r="7.14" transform="translate(9.26 171.13) rotate(-15.99)"/><circle class="a" cx="585.69" cy="91.36" r="7.14"/><circle class="a" cx="604.57" cy="174.51" r="7.14" transform="translate(350.22 750.07) rotate(-82.26)"/><circle class="a" cx="638.24" cy="210.73" r="7.14"/><circle class="a" cx="568.35" cy="167.37" r="7.14" transform="translate(79.8 502.57) rotate(-50.86)"/><circle class="a" cx="535.7" cy="193.9" r="7.14"/><circle class="a" cx="608.65" cy="127.07" r="7.14" transform="translate(34.1 364.75) rotate(-34.27)"/><path class="a" d="M532.64,86.26a7.14,7.14,0,1,1,7.14,7.14A7.14,7.14,0,0,1,532.64,86.26Z"/><circle class="a" cx="511.21" cy="35.76" r="7.14" transform="translate(8.53 135.39) rotate(-15.21)"/><path class="a" d="M570.83,7.7a4.66,4.66,0,1,1,4.66,4.66A4.66,4.66,0,0,1,570.83,7.7Z"/><circle class="a" cx="613.75" cy="100.54" r="4.66"/><path class="a" d="M610.1,18.16A1.87,1.87,0,1,1,612,20,1.87,1.87,0,0,1,610.1,18.16Z"/><path class="a" d="M569,25.56a1.87,1.87,0,1,1,1.87,1.86A1.86,1.86,0,0,1,569,25.56Z"/><path class="a" d="M499.27,14a1.87,1.87,0,1,1,1.87,1.86A1.87,1.87,0,0,1,499.27,14Z"/><circle class="a" cx="423.98" cy="79.12" r="1.87"/><path class="a" d="M494.61,219.24a1.87,1.87,0,1,1,1.87,1.87A1.87,1.87,0,0,1,494.61,219.24Z"/><path class="a" d="M487.91,251.54a1.87,1.87,0,1,1,1.87,1.87A1.87,1.87,0,0,1,487.91,251.54Z"/><path class="a" d="M518.78,279a1.87,1.87,0,1,1,1.87,1.86A1.87,1.87,0,0,1,518.78,279Z"/><path class="a" d="M566.65,290.82a1.87,1.87,0,1,1,1.87,1.87A1.87,1.87,0,0,1,566.65,290.82Z"/><path class="a" d="M583.83,264.81a1.87,1.87,0,1,1,1.86,1.86A1.86,1.86,0,0,1,583.83,264.81Z"/><path class="a" d="M611.88,279.77a1.87,1.87,0,1,1,1.87,1.87A1.87,1.87,0,0,1,611.88,279.77Z"/><path class="a" d="M359.24,223a1.87,1.87,0,1,1,1.87,1.86A1.87,1.87,0,0,1,359.24,223Z"/><path class="a" d="M349.25,186.76a1.87,1.87,0,1,1,1.87,1.86A1.87,1.87,0,0,1,349.25,186.76Z"/><path class="a" d="M349.25,157.17a1.87,1.87,0,1,1,1.87,1.87A1.87,1.87,0,0,1,349.25,157.17Z"/><path class="a" d="M303.26,162.27a1.87,1.87,0,1,1,1.86,1.87A1.87,1.87,0,0,1,303.26,162.27Z"/><circle class="a" cx="309.79" cy="136.13" r="1.87"/><path class="a" d="M249.52,293.45a1.87,1.87,0,1,1,1.87,1.86A1.86,1.86,0,0,1,249.52,293.45Z"/><path class="a" d="M619,221.11a1.87,1.87,0,1,1,1.87,1.87A1.87,1.87,0,0,1,619,221.11Z"/><path class="a" d="M624.65,116.36a4.66,4.66,0,1,1,4.66,4.66A4.65,4.65,0,0,1,624.65,116.36Z"/><path class="a" d="M542.26,143.78a4.67,4.67,0,1,1,4.66,4.66A4.67,4.67,0,0,1,542.26,143.78Z"/><path class="a" d="M624.65,157.17a4.66,4.66,0,1,1,4.66,4.66A4.65,4.65,0,0,1,624.65,157.17Z"/><path class="a" d="M482.32,198.11a4.67,4.67,0,1,1,4.66,4.66A4.67,4.67,0,0,1,482.32,198.11Z"/><path class="a" d="M475.43,234.07a4.67,4.67,0,1,1,4.67,4.66A4.67,4.67,0,0,1,475.43,234.07Z"/><path class="a" d="M509.48,255.11a4.67,4.67,0,1,1,4.67,4.67A4.67,4.67,0,0,1,509.48,255.11Z"/><path class="a" d="M496.48,283.68a4.66,4.66,0,1,1,4.66,4.66A4.66,4.66,0,0,1,496.48,283.68Z"/><path class="a" d="M421.87,242.87a4.67,4.67,0,1,1,4.66,4.66A4.66,4.66,0,0,1,421.87,242.87Z"/><circle class="a" cx="462.24" cy="288.78" r="4.66"/><path class="a" d="M419.32,281.64A4.67,4.67,0,1,1,424,286.3,4.66,4.66,0,0,1,419.32,281.64Z"/><path class="a" d="M428.76,216.09a4.66,4.66,0,1,1,4.66,4.66A4.65,4.65,0,0,1,428.76,216.09Z"/><path class="a" d="M467.4,213.79a4.67,4.67,0,1,1,4.66,4.67A4.66,4.66,0,0,1,467.4,213.79Z"/><path class="a" d="M465.49,70.32A4.66,4.66,0,1,1,470.15,75,4.65,4.65,0,0,1,465.49,70.32Z"/><path class="a" d="M363.33,116.36A4.67,4.67,0,1,1,368,121,4.66,4.66,0,0,1,363.33,116.36Z"/><path class="a" d="M433.42,136.13a4.67,4.67,0,1,1,4.66,4.66A4.67,4.67,0,0,1,433.42,136.13Z"/><circle class="a" cx="363.33" cy="288.78" r="4.66"/><path class="a" d="M530.83,295.92a4.66,4.66,0,1,1,4.66,4.67A4.66,4.66,0,0,1,530.83,295.92Z"/><path class="a" d="M521.5,269.33a4.67,4.67,0,1,1,4.66,4.66A4.67,4.67,0,0,1,521.5,269.33Z"/><path class="a" d="M538.1,239.17a4.66,4.66,0,1,1,4.66,4.67A4.66,4.66,0,0,1,538.1,239.17Z"/><path class="a" d="M609.26,278.65a4.67,4.67,0,1,1,4.66,4.67A4.66,4.66,0,0,1,609.26,278.65Z"/><path class="a" d="M356.45,174.51a4.66,4.66,0,1,1,4.66,4.67A4.66,4.66,0,0,1,356.45,174.51Z"/><path class="a" d="M318.19,160.23a4.66,4.66,0,1,1,4.66,4.66A4.65,4.65,0,0,1,318.19,160.23Z"/><path class="a" d="M328.13,127.07a4.67,4.67,0,1,1,4.67,4.66A4.67,4.67,0,0,1,328.13,127.07Z"/><path class="a" d="M309.39,100.54a4.66,4.66,0,1,1,4.66,4.67A4.66,4.66,0,0,1,309.39,100.54Z"/><circle class="a" cx="473.63" cy="18.84" r="7.14" transform="translate(205.82 409.94) rotate(-57.88)"/><circle class="a" cx="448.47" cy="93.4" r="7.14" transform="translate(284.44 521.12) rotate(-80.78)"/><circle class="a" cx="495.91" cy="169.41" r="7.14"/><circle class="a" cx="416.84" cy="157.17" r="7.14"/><circle class="a" cx="381.64" cy="147.48" r="7.14" transform="translate(7.5 313.06) rotate(-45)"/><circle class="a" cx="412.76" cy="193.9" r="7.14"/><circle class="a" cx="462.24" cy="193.9" r="7.14"/><circle class="a" cx="592.84" cy="290.82" r="7.14" transform="translate(162.63 791.78) rotate(-75.48)"/><circle class="a" cx="455.1" cy="255.11" r="7.14"/><circle class="a" cx="405.62" cy="251.54" r="7.14" transform="translate(-65.39 174.37) rotate(-22.5)"/><circle class="a" cx="398.48" cy="297.96" r="7.14"/><circle class="a" cx="328.13" cy="286.3" r="7.14"/><circle class="a" cx="327.06" cy="242.87" r="7.14"/><circle class="a" cx="379.6" cy="230.12" r="7.14" transform="translate(-59.17 162.78) rotate(-22.5)"/><circle class="a" cx="603.47" cy="248.99" r="7.14"/><circle class="a" cx="571.84" cy="230.63" r="7.14"/><circle class="a" cx="549.9" cy="273.99" r="7.14" transform="translate(-49.95 406.81) rotate(-38.97)"/><circle class="a" cx="495.91" cy="119.93" r="10.71"/><line class="f" x1="438.08" y1="136.13" x2="448.47" y2="93.4"/><line class="f" x1="495.91" y1="169.41" x2="495.91" y2="119.93"/><line class="f" x1="571.84" y1="230.63" x2="535.7" y2="193.9"/><line class="f" x1="379.6" y1="230.12" x2="412.76" y2="193.9"/></g></g></svg>