<svg xmlns="http://www.w3.org/2000/svg" viewBox="0 0 640 302.83"><defs><style>.a{isolation:isolate;}.b{fill:#39c;}.c{opacity:0.25;}.aj,.c{mix-blend-mode:overlay;}.d{fill:#8dc5ec;}.e{fill:#5d5d6c;}.f{fill:#6c6c79;}.g{fill:#434250;}.h{fill:#93d3ec;}.i{fill:#80a4eb;}.j{fill:#e5e5e6;}.k{fill:#575767;}.l{fill:#858593;}.aj,.m{fill:#d69644;}.n{fill:#333c8b;opacity:0.2;mix-blend-mode:multiply;}.o{fill:#383443;}.p{fill:#925937;}.q{fill:#eac884;}.r{fill:#cfd1d2;}.s{fill:#e5b17a;}.t{fill:#f0f1f1;}.u{fill:#4674b7;}.v{fill:#9e4e51;}.w{fill:#8b5937;}.x{fill:#b7986e;}.y{fill:#7f4e51;}.z{fill:#ce4860;}.aa{fill:#d15f61;}.ab{fill:#e49f49;}.ac{fill:#f0da47;}.ad{fill:#f6e05e;}.ae{fill:#434244;}.af{fill:#5ea49b;}.ag{fill:#6dbfae;}.ah{fill:#595965;}.ai{fill:#babcbe;}</style></defs><title>Asset 8</title><g class="a"><rect class="b" y="0.83" width="640" height="302" rx="50" ry="50"/><g class="c"><polygon class="d" points="518.03 58.21 518.03 113.26 432.92 64.02 432.92 8.97 518.03 58.21"/><path class="e" d="M526.58,150v18.43h0a5.41,5.41,0,0,1-2.73,4.92l-14.17,8.17-.44.26-.18.1-.63.37-2.71,1.56-.64.37-.63.36-28.27,16.33-4,2.29-1.26.72-2.72,1.58-.63.36-.63.36-1.56.9-.71.41-.08,0-.57.33-.11.06-.69.4-.68.4-7,4-.62.36-.62.35-.91.53-.61.35-.62.36-3.62,2.09-6.43,3.71-1.78,1h0l-5.53,3.2h0l-.84.48-.87.51-.06,0-.81.47-.53.31h0l-2,1.16-1.5.87-1.51.87-6,3.45-9.06,5.23-.87.51-.89.51-2.35,1.36-3,1.72-1.5.87-1.53.88-.19.11-.14.08-11.23,6.49L366.75,264l-.88.51-.26.15L365,265l-.15.09-.76.43-1,.57-.88.51-.79.46-.18.1-.65.37-.82.48-3.85,2.22-1.51.87-1.5.87-.11.06-3.09,1.79-.76.43-.75.44-17.08,9.86-.81.46-.83.48-14.34,8.29-.84.48-.82.47-14,8.08H234.42L181.1,272l-.4-.23-.24-.14-1.26-.73-1.11-.64-.4-.23L167,263.83l-.79-.45-.76-.44-17.51-10.13-3.81-2.2a2.65,2.65,0,0,1-.56-.42,3,3,0,0,1-.91-1.67,2.76,2.76,0,0,1-.06-.57V229.42h0l1.54.33,1.28.27,12.42,2.61,1.49.32,2.39.5,4.61,1,3.34,3.08,2,1.85,7.31-1.57.95-.2.91-.2,7.5-1.61,5.15-1.11.87-.19.87-.18,2.8-.61h0l9.62-2.07,1.07-.23.57-.12.59-.13,1.31-.28L220,229h0l3.5-.75,1.22-.26h0l2.81-.6,4-.87,4.79-1,.34-.07.53-.12.12,0h0l.7-.15h0l10-2.16.33-.07,4.1-.88,4.05-.87,16.12-3.47,1-.21,2.62-.56.42-.09.45-.1.73-.15.14,0,8-1.73,7.77-1.67,2.27-.49.87-.18.58-.13h0l.25-.06,3.2-.69,19.69-4.23.14,0,2.62-.56,5-1.07.88-.19,10.18-2.19.07,0,2.17-.46,4.82-1,2.49-.53h0l3.35-.72,2.18-.47s0,0,0,0h.06l.47-.11,5.34-1.15.69-.15.35-.07,1-.22L364,198l7.77-1.67,10.73-2.31.84-.18h0l.15,0,1.71-.37.3-.06,1.32-.29.16,0h0l1.11-.24.87-.18.87-.19,3.59-.77,1.64-.35a.19.19,0,0,0,.1,0l1.75-.37.41-.09,2.53-.54h0l1.67-.35,1.35-.29h0l1.35-.29.25-.05,2.18-.47h0l3.21-.69.87-.19.87-.18h0l2.24-.48,1.61-.34,1.34-.29,15.43-3.32.87-.18L434,183l5.81-1.25,1.64-.35,3.8-.82,1.49-.32.1,0,.57-.12,6-1.3.59-.13,3.66-.78h0l1.56-.34,1.48-.32,3-.65h0l17.9-3.85h0l1.9-.41h0l8.68-1.87,8.39-7.75,18.83-12,7.08-.71Z"/><path class="f" d="M526.58,150v18.43h0a5.41,5.41,0,0,1-2.73,4.92l-14.17,8.17-.44.26-.18.1-.63.37-2.71,1.56-.64.37-.63.36-28.27,16.33-4,2.29-1.26.72-2.72,1.58-.63.36-.63.36-1.56.9-.71.41-.08,0-.57.33-.11.06-.69.4-.68.4-7,4-.62.36-.62.35-.91.53-.61.35-.62.36-3.62,2.09-6.43,3.71-1.78,1h0l-5.54,3.21h0l-.84.48-.87.51-.06,0-.81.47-.54.32h0l-2,1.16-1.5.87-1.51.87-6,3.45-9.06,5.23-.87.51-.89.51-2.35,1.36-3,1.72-1.5.87-1.53.88-.19.11-.14.08-11.23,6.49L366.75,264l-.88.51-.26.15L365,265l-.15.09-.76.43-1,.57-.88.51-.79.46-.18.1-.65.37-.82.48-3.85,2.22-1.51.87-1.5.87-.11.06-3.09,1.79-.76.43-.75.44-17.08,9.86-.81.46-.83.48-14.34,8.29-.84.48-.82.47-14,8.08H267.76V296l1-.85,13.17-11.38.87-.75.26-.22h0l.6-.52.59-.52,2.11-1.82,1.74-1.5,1.14-1,1.05-.92,2.36-2,3-2.55,1-.87.9-.78h0l.1-.08,3.76-3.25,1-.87,1-.88,1-.83.4-.34.47-.41.87-.75,1.1-.95,2.45-2.11,2.12-1.84,1.81-1.56,2.25-1.94,3.55-3.07.3-.26.56-.48.89-.78,5.65-4.88,1.28-1.1,1-.88,1-.87,2.36-2,.45-.39,1-.87.75-.65.27-.23.51-.44,0,0,.72-.62.05,0,.75-.65,2.77-2.39,1.92-1.66,1-.83,9.85-8.51,1-.88.07-.06.38-.33.56-.48,1-.9.94-.81.1-.09,2.17-1.87.76-.66,2.65-2.29,3.63-3.14,16.42-14.18,2.84-2.45.38-.33,1-.89h0l.3-.27.14-.12h0l1.11-.24.87-.18.87-.19,3.59-.77,1.66-.35a.11.11,0,0,0,.07,0l1.76-.37.41-.09,2.53-.54h0l1.67-.35,1.35-.29h0l1.35-.29.25-.05,2.18-.47h0l3.21-.69.87-.19.87-.18h0l2.24-.48,1.61-.34,1.34-.29,15.43-3.32.87-.18L434,183l5.81-1.25,1.64-.35,3.8-.82,1.49-.32.1,0,.57-.12,6-1.3.59-.13,3.66-.78h0l1.56-.34,1.48-.32,3-.65h0l17.9-3.85h0l1.9-.41h0l8.68-1.87,8.39-7.75,18.83-12,7.08-.71Z"/><polygon class="g" points="157.28 245.49 157.28 252.59 150.75 248.81 150.75 241.71 157.28 245.49"/><polygon class="g" points="166.19 250.6 166.19 257.7 159.65 253.93 159.65 246.83 166.19 250.6"/><polygon class="g" points="175.09 255.72 175.09 262.82 168.56 259.05 168.56 251.95 175.09 255.72"/><polygon class="g" points="256.03 302.83 243.77 302.83 237.95 299.46 237.95 292.36 256.03 302.83"/><polygon class="g" points="297.16 291.47 297.16 298.57 317.49 286.8 317.49 279.7 297.16 291.47"/><polygon class="d" points="170.84 217.93 390.24 91.24 506.42 158.44 287.01 285.13 170.84 217.93"/><polygon class="h" points="390.24 91.24 287.01 285.13 170.84 217.93 390.24 91.24"/><polygon class="i" points="497.38 163.66 506.42 158.44 390.24 91.24 381.2 96.46 497.38 163.66"/><polygon class="i" points="287.02 285.13 296.06 279.91 179.88 212.71 170.84 217.93 287.02 285.13"/><polygon class="j" points="503.74 158.39 500.15 156.31 493.94 159.9 497.52 161.98 503.74 158.39"/><polygon class="j" points="499.35 155.85 495.76 153.77 489.54 157.36 493.13 159.44 499.35 155.85"/><polygon class="j" points="494.95 153.31 491.36 151.23 485.14 154.82 488.73 156.9 494.95 153.31"/><polygon class="j" points="490.56 150.77 486.97 148.69 480.75 152.28 484.34 154.36 490.56 150.77"/><polygon class="j" points="451.48 128.28 441.27 122.35 435.06 125.94 445.26 131.88 451.48 128.28"/><polygon class="j" points="292.7 279.5 282.5 273.56 276.28 277.15 286.48 283.09 292.7 279.5"/><polygon class="j" points="238.58 248.25 228.38 242.32 222.16 245.91 232.36 251.85 238.58 248.25"/><polygon class="j" points="190.6 220.44 180.4 214.5 174.18 218.09 184.38 224.03 190.6 220.44"/><path class="g" d="M526.57,150a5.39,5.39,0,0,0-2.72-4.56l-.22-.12-47-27.2-.87-.51-.87-.5-11.94-6.91-2.08-1.2-1.5-.87-1.51-.87-9.69-5.61-29.32-17L416.5,83.3l-.37-.21-8.67-5a5.4,5.4,0,0,0-1.85-.66,4.6,4.6,0,0,0-.91-.09h-.06a5.31,5.31,0,0,0-1,.09,4.29,4.29,0,0,0-.62.14c-.15,0-.3.1-.45.15a6,6,0,0,0-.77.37l-.26.15-1,.56-7.55,4.35-1.55.9-3,1.74-1.43.83-1.12.65-9.08,5.24-3.24,1.87-1,.58-1,.59-5.17,3-10.47,6-.88.51-.44.26-.43.24-18.35,10.6-2.52,1.45-3,1.75-5.07,2.93-.82.47-8.51,4.92-2.62,1.51-.45.26-4.09,2.36-10.3,5.95h0l-.65.37-.48.28-.75.43-.28.16-1.5.87-4.22,2.43-.37.22-2.72,1.57-10.07,5.81L275.58,151l-3.89,2.24-1.75,1-2.79,1.61L258.28,161l-1.13.65h0l-1.4.81-.69.39-5.2,3-.81.47-.45.26-.27.15-.13.08-1.37.79-.95.55-3.57,2.06-.83.48-3.31,1.91-1.74,1-.09.05-.79.46-3,1.75h0l-3.65,2.1-4.11,2.38-.14.08-.58.33-1.24.72L220.07,183,210,188.85l-1.13.65h0l-.27.16-.92.54-1.13.65-4.8,2.77-.14.08-2.72,1.57-5.1,2.95-5.13,3-.87.5-.87.5-18.17,10.49-.65.38-.1.06-.76.43-.29.17h0l-1.44.85-2.89,1.67-4.25,2.45-.09.05-.22.13-3.33,1.92-1,.6-.75.43-.76.44-7.93,4.57a3,3,0,0,0-1.52,2.59h0v.28a3.06,3.06,0,0,0,1.53,2.47l3.81,2.2,16.15,9.34,9,5.23.75.43.76.44.92.54,1.7,1,.16.09,2.51,1.45,1.9,1.1,6.69,3.87h0l2.26,1.33L198,263.3l3,1.76,5.63,3.26.77.44.76.44,1.81,1.05,2.37,1.37.64.37,51.14,29.58a5.81,5.81,0,0,0,2.37.74l.45,0a5.65,5.65,0,0,0,.71-.05h.11a5.86,5.86,0,0,0,2-.7l.39-.23,1.77-1,10-5.78,1.74-1,2.62-1.51.08,0,.87-.5.74-.43.13-.07,1.57-.91L321,272l1.5-.87,1.51-.87.45-.26,5.18-3,1.51-.87,1.52-.88,6.73-3.89.76-.43.75-.44,1-.6,1.74-1,10.91-6.3.68-.39.08,0,.68-.39h0l.05,0,.68-.4.83-.48,5.4-3.11,1.52-.88,4.69-2.71.33-.19,1.53-.88,1.5-.87,14.9-8.6,2.46-1.42.24-.14,4.54-2.62,1.51-.87,1.5-.87,2.12-1.22,6.27-3.62,1.52-.88,1.51-.87.73-.42.87-.5.87-.51,6.24-3.6,3-1.74.56-.33,1.46-.84,1.06-.61,1.18-.68,7.1-4.1.87-.5.87-.51.14-.07,1.17-.68,1.06-.61L464.68,189l2.89-1.67,1.08-.62,1.15-.67,7.53-4.34,6-3.46,2.55-1.47,1.15-.67,3.83-2.21,1.17-.67,1.07-.62,16.14-9.32,14.61-8.42a5.44,5.44,0,0,0,2.74-4.75A1.09,1.09,0,0,0,526.57,150Zm-72.82,38.89L434,200.27l-1.74,1-20.62,11.91-1.74,1-.24.14-1.5.87-1.51.87L399.85,220l-1.93,1.12-1.51.87-1.52.88-5.07,2.93-1.74,1-.49.28-2.13,1.23-6.75,3.9-17.35,10-.39.22-.8.47-.32.18-.48.28-1,.6-.33.19-4.32,2.49-.18.11-.58.33-.15.09-.6.35-.15.08-.08,0-.7.4-7.56,4.37-1.74,1-4.14,2.39-.75.44-.76.44-14.85,8.57-1.19.69-.33.19-1.51.87-5.63,3.25-1.51.87-1.5.87-13.18,7.61-.53.31-1.15.66h0l-1.68,1h0l-5.1,2.94-.87.5-.21.12h0l-.65-.38-2.7-1.56-.61-.35-.26-.15-.87-.5-6.5-3.76-.75-.44-.76-.44L264.29,272l-.64-.37-.33-.19-.09-.06-.19-.12h0l-.39-.23-.78-.46-.11-.07h-.06l-.38-.22-.59-.34-.61-.35-2.94-1.7-.62-.36-.61-.35-1.16-.68-.56-.32-.58-.33-10.4-6-.22-.13-.71-.42-.08-.05h0l-.77-.44-.9-.52-.07-.05-.19-.11-.81-.47h0L236.71,256l-.52-.3-.52-.3-3-1.71-.54-.32h0l-.55-.32L217,244.64l-.48-.28-.07,0h0l0,0-.17-.1-.07,0-.07,0-.19-.12L213,242.3l-.54-.31-.51-.3-2.74-1.58-1-.59-.36-.21-2-1.19h0l-.12-.07-.07,0-.09-.06-.7-.41h0l0,0-1.79-1-4.85-2.8-2.8-1.62-1.74-1-4.11-2.38L181,223.79l-.43-.25-.44-.25h0l-.88-.5h0l-.22-.12-1.33-.77-1.23-.71L172,218.59h0l-1.11-.64.57-.34,1.43-.83h0l2-1.19.37-.21,4.59-2.66h0l7-4,.87-.51.87-.5,6.1-3.52,3.56-2.06,2.74-1.58,5.85-3.38,1.75-1,3.32-1.92,2.38-1.37,5.78-3.34,1.13-.65,3.76-2.17.23-.14,2.33-1.34,1.06-.61h0l4.31-2.49,3.52-2,.65-.38h0l.18-.1h0l.87-.5,7.13-4.12,2.75-1.59.15-.08,5.34-3.09.74-.43,3.78-2.18,1.21-.7.3-.17,1.52-.88.74-.42h0l5.32-3.08,2.37-1.37,2.54-1.47.18-.1,4.39-2.54,8.09-4.67,2.18-1.26,1.74-1,1-.59,6.12-3.53,5-2.9,2.51-1.45,2.71-1.56,1.5-.87,1.24-.71.27-.16,4.63-2.68,2.72-1.56L318,133h0l2.43-1.4,4.95-2.86,8-4.6,2.24-1.3,4.49-2.59,1.13-.65,4.17-2.41,1.71-1,10.48-6,.9-.52.9-.52,19.1-11,.25-.14,2.49-1.44.64-.39H382l3.7-2.14h0l4.56-2.64,1.22.71,1,.58.6.34.41.24L401.88,98l.66.39.21.12.87.5,6.49,3.75.14.09h0l4,2.3.35.2,5.82,3.37.86.49.78.46h0l.78.45.88.51,4.42,2.56,4.07,2.35,6.27,3.63,2.2,1.27,1.22.71h0l2.33,1.35.87.5h0l.56.33,3.08,1.78.24.14.93.54.24.14.87.5h0l23.82,13.78.21.12.66.38.87.51.65.37h0l4.29,2.49.24.14,4.49,2.6.87.5.87.5,18.39,10.64-9,5.22-12.95,7.48-1.14.65-1.61.94h0Z"/><path class="k" d="M498.14,183.24l0,0a.73.73,0,0,1-.09-.08l0,0-.1-.1s0,0,0,0l-.07-.08,0,0-.07-.1v0l-.09-.14a1,1,0,0,1-.07-.15l0,0,0-.12a.06.06,0,0,1,0,0l0-.08a.5.5,0,0,1,0-.13l0-.08,0-.1a.3.3,0,0,0,0-.1s0-.06,0-.09a.43.43,0,0,0,0-.11.28.28,0,0,0,0-.09s0-.08,0-.12a.19.19,0,0,1,0-.08c0-.05,0-.09,0-.14a.13.13,0,0,0,0-.06v-.43s0-.05,0-.07a.81.81,0,0,1,0-.16v-.07c0-.06,0-.11,0-.16a.2.2,0,0,1,0-.07,1.66,1.66,0,0,1,0-.22v0c0-.06,0-.13,0-.2s0,0,0-.08l0-.15,0-.08,0-.15a.29.29,0,0,0,0-.09c0-.05,0-.1.05-.15s0-.05,0-.08.05-.15.08-.23h0c0-.07.05-.14.07-.21l0-.07.06-.16,0-.08s.05-.1.07-.16l0-.06.1-.22s0,0,0-.05l.08-.17.06-.12a.6.6,0,0,0,.06-.11l.18-.31.06-.1a.75.75,0,0,1,.07-.12l.07-.11a.83.83,0,0,1,.08-.12.35.35,0,0,1,.05-.08l.22-.32h0l.16-.22.13-.16,0,0c.05-.07.11-.13.16-.19l.05-.06.12-.13.07-.07.1-.1.07-.08.1-.09.08-.08.1-.09.09-.07.1-.09.08-.07.11-.08.08-.06.12-.09.06,0,.19-.13h0l.19-.12.17-.1.07,0,.13-.06.06,0,.18-.08.18-.06.06,0,.12,0,.07,0,.11,0h.07l.1,0h.08l.09,0h.59l.15,0h0l.11,0h.06l.08,0,.11,0,.05,0,.15.07-1.9-1.1-.14-.07-.06,0a2.54,2.54,0,0,0-1.76,0,4.93,4.93,0,0,0-1.57.87l-.05,0-.07.07a8.63,8.63,0,0,0-3.08,5.82,3.86,3.86,0,0,0,.44,2.29h0l0,0,.07.1s0,0,0,0l.07.09,0,0a.94.94,0,0,0,.1.1h0l.09.09,0,0a.27.27,0,0,0,.08.07l0,0,.12.07,1.89,1.11-.11-.08,0,0Z"/><path class="l" d="M501.16,174a8.69,8.69,0,0,0-3.94,6.83c0,2.51,1.78,3.52,4,2.26a8.69,8.69,0,0,0,3.94-6.83C505.12,173.78,503.35,172.77,501.16,174Z"/><path class="k" d="M477.71,195l0,0-.1-.09h0l-.1-.1,0,0-.07-.09,0,0-.07-.1,0,0-.08-.13a1.11,1.11,0,0,1-.07-.16l0,0a1.12,1.12,0,0,0,0-.13l0,0a.24.24,0,0,0,0-.08.56.56,0,0,1,0-.12l0-.09,0-.11a.29.29,0,0,0,0-.09.44.44,0,0,0,0-.1s0-.07,0-.1a.29.29,0,0,1,0-.09s0-.08,0-.12a.22.22,0,0,1,0-.08.76.76,0,0,1,0-.15s0,0,0-.06v-.43a.2.2,0,0,1,0-.07.76.76,0,0,1,0-.15v-.08s0-.1,0-.16v-.06c0-.07,0-.15,0-.22v0a1.42,1.42,0,0,1,0-.2s0-.05,0-.08l0-.15a.31.31,0,0,0,0-.08.83.83,0,0,0,0-.15l0-.09a.83.83,0,0,1,0-.15s0-.05,0-.08,0-.15.07-.23v0c0-.07.05-.14.07-.2l0-.07.06-.16,0-.08.07-.16,0-.06.09-.22,0-.05c0-.06.05-.12.08-.17l.06-.12.06-.11.18-.31a.53.53,0,0,1,.06-.1l.07-.12.07-.11.08-.12a.35.35,0,0,1,.05-.08l.22-.32h0a1.77,1.77,0,0,1,.16-.22l.13-.17,0,0c0-.06.11-.12.16-.19l.05-.05.12-.13.07-.07a.94.94,0,0,1,.1-.1l.07-.08a.47.47,0,0,0,.1-.1l.09-.07.1-.09a.27.27,0,0,1,.08-.07l.1-.09.08-.07.11-.08.07-.06.13-.09.06,0,.19-.13h0l.19-.12a1.51,1.51,0,0,1,.18-.09l.06,0,.13-.06.06,0,.18-.08.18-.07h.06l.12,0,.07,0,.11,0H482l.1,0,.08,0h.68l.14,0h0l.11,0h.06l.08,0,.11,0,0,0,.15.08-1.9-1.1-.15-.08-.05,0a2.48,2.48,0,0,0-1.76,0,5,5,0,0,0-1.57.87l0,0a.27.27,0,0,0-.08.07,8.63,8.63,0,0,0-3.08,5.82,3.83,3.83,0,0,0,.44,2.28h0l0,0,.06.1,0,0,.07.08,0,0a.94.94,0,0,0,.1.1h0l.09.08,0,0,.08.06,0,0,.12.07,1.89,1.11-.11-.08,0,0Z"/><path class="l" d="M480.73,185.83a8.69,8.69,0,0,0-3.94,6.83c0,2.51,1.78,3.52,4,2.26a8.69,8.69,0,0,0,3.94-6.83C484.7,185.58,482.92,184.57,480.73,185.83Z"/><path class="f" d="M523.54,53.86v61.86a3.07,3.07,0,0,1-1.57,2.69l-3.07,1.77-.16.1h0l-.94-2.53L437,71a5.66,5.66,0,0,1-2.83-4.9V10.54l0-.1-.26-.92-2.07-7.41h0L434,.83l1-.6h0a1.67,1.67,0,0,1,1.69,0l1,.6,82.83,47.93A5.87,5.87,0,0,1,523.54,53.86Z"/><path class="g" d="M520.3,55.74V117.6a3.08,3.08,0,0,1-4.62,2.67l-81.93-47.4A5.68,5.68,0,0,1,430.92,68V3.59a1.71,1.71,0,0,1,2.56-1.48l83.88,48.53A5.89,5.89,0,0,1,520.3,55.74Z"/><polygon class="m" points="518.03 58.21 518.03 113.26 432.92 64.02 432.92 8.97 518.03 58.21"/><polygon class="j" points="454.7 28.85 454.7 26.84 436.67 16.41 436.67 18.41 454.7 28.85"/><polygon class="j" points="454.7 32.7 454.7 30.69 436.67 20.26 436.67 22.27 454.7 32.7"/><polygon class="j" points="454.7 36.56 454.7 34.55 436.67 24.12 436.67 26.13 454.7 36.56"/><polygon class="j" points="464.82 32.78 464.82 34.79 482.85 45.22 482.85 43.21 464.82 32.78"/><polygon class="j" points="464.82 38.65 482.85 49.08 482.85 47.07 464.82 36.64 464.82 38.65"/><polygon class="j" points="464.82 42.5 482.85 52.93 482.85 50.93 464.82 40.49 464.82 42.5"/><polygon class="j" points="464.82 52.17 482.85 62.6 482.85 60.59 464.82 50.16 464.82 52.17"/><polygon class="j" points="464.82 56.02 482.85 66.45 482.85 64.45 464.82 54.02 464.82 56.02"/><polygon class="j" points="464.82 59.88 482.85 70.31 482.85 68.3 464.82 57.87 464.82 59.88"/><polygon class="j" points="464.82 69.55 482.85 79.98 482.85 77.97 464.82 67.54 464.82 69.55"/><polygon class="j" points="464.82 73.4 482.85 83.83 482.85 81.83 464.82 71.39 464.82 73.4"/><polygon class="j" points="464.82 77.26 482.85 87.69 482.85 85.68 464.82 75.25 464.82 77.26"/><polygon class="j" points="454.7 40.41 454.7 38.41 436.67 27.97 436.67 29.98 454.7 40.41"/><polygon class="j" points="496.28 74.35 489.9 70.66 489.9 91.53 496.28 95.22 496.28 74.35"/><polygon class="j" points="504.71 67.92 498.33 64.23 498.33 96.41 504.71 100.1 504.71 67.92"/><polygon class="j" points="513.14 61.53 506.76 57.84 506.76 101.3 513.14 104.99 513.14 61.53"/><path class="j" d="M447.32,54.53V42.85l-.6-.38c-5.53-3.19-10-.63-10.05,5.73s4.45,14.1,10,17.3,10,.63,10-5.73c0-.1,0-.19,0-.29Z"/><path class="j" d="M443.66,180.24a3.83,3.83,0,0,1-.61-.3l-.84-.49-2.73-1.59-5.5-3.2-.87-.5-.87-.51-4.35-2.53a1.63,1.63,0,0,1,0-2.82l4.35-2.51v-2.07a.75.75,0,0,0-.05-.26l-5.32,3.07a3.67,3.67,0,0,0,0,6.36l5.38,3.13.87.51.87.51,5.16,3,2.29,1.34,3.8-.82A4.44,4.44,0,0,1,443.66,180.24Zm0,0a3.83,3.83,0,0,1-.61-.3l-.84-.49-2.73-1.59-5.5-3.2-.87-.5-.87-.51-4.35-2.53a1.63,1.63,0,0,1,0-2.82l4.35-2.51v-2.07a.75.75,0,0,0-.05-.26l-5.32,3.07a3.67,3.67,0,0,0,0,6.36l5.38,3.13.87.51.87.51,5.16,3,2.29,1.34,3.8-.82A4.44,4.44,0,0,1,443.66,180.24Zm0,0a3.83,3.83,0,0,1-.61-.3l-.84-.49-2.73-1.59-5.5-3.2-.87-.5-.87-.51-4.35-2.53a1.63,1.63,0,0,1,0-2.82l4.35-2.51v-2.07a.75.75,0,0,0-.05-.26l-5.32,3.07a3.67,3.67,0,0,0,0,6.36l5.38,3.13.87.51.87.51,5.16,3,2.29,1.34,3.8-.82A4.44,4.44,0,0,1,443.66,180.24Zm21.75-14-16.09-9.37a5.63,5.63,0,0,0-5.64,0l-10,5.76L433,163l-.77.44-5.32,3.07a3.67,3.67,0,0,0,0,6.36l5.38,3.13.87.51.87.51,5.16,3,2.29,1.34.59.34a6.59,6.59,0,0,0,3.34.9h0a6.74,6.74,0,0,0,3.34-.89l2.58-1.49,2.49-1.44.22-.13,4.41-2.54,1.25-.73,5.73-3.31a3.4,3.4,0,0,0,0-5.89Zm-1,4.12-5.74,3.31-1.25.72-7.71,4.45-2,1.15a2.1,2.1,0,0,1-.3.15,1.73,1.73,0,0,1-.31.14,1.31,1.31,0,0,1-.28.09,4,4,0,0,1-1.57.23,4.44,4.44,0,0,1-1.57-.32,3.83,3.83,0,0,1-.61-.3l-.84-.49-2.73-1.59-5.5-3.2-.87-.5-.87-.51-4.35-2.53a1.63,1.63,0,0,1,0-2.82l4.35-2.51.87-.51.87-.5,10.72-6.19a3.63,3.63,0,0,1,3.59,0l2.53,1.47,5.11,3,8.45,4.92a1.36,1.36,0,0,1,0,2.35Zm-20.72,9.92a3.83,3.83,0,0,1-.61-.3l-.84-.49-2.73-1.59-5.5-3.2-.87-.5-.87-.51-4.35-2.53a1.63,1.63,0,0,1,0-2.82l4.35-2.51v-2.07a.75.75,0,0,0-.05-.26l-5.32,3.07a3.67,3.67,0,0,0,0,6.36l5.38,3.13.87.51.87.51,5.16,3,2.29,1.34,3.8-.82A4.44,4.44,0,0,1,443.66,180.24Zm0,0a3.83,3.83,0,0,1-.61-.3l-.84-.49-2.73-1.59-5.5-3.2-.87-.5-.87-.51-4.35-2.53a1.63,1.63,0,0,1,0-2.82l4.35-2.51v-2.07a.75.75,0,0,0-.05-.26l-5.32,3.07a3.67,3.67,0,0,0,0,6.36l5.38,3.13.87.51.87.51,5.16,3,2.29,1.34,3.8-.82A4.44,4.44,0,0,1,443.66,180.24Z"/><path class="j" d="M419.41,139.53l-8.34-4.86a5.65,5.65,0,0,0-5.64,0l-6,3.48-1.51.87-1.51.87h4.1L402,139l1.5-.87,2.95-1.7a3.56,3.56,0,0,1,1.79-.48,3.62,3.62,0,0,1,1.8.48l9.37,5.46.87.5V140Zm.87.5-.87-.5-8.34-4.86a5.65,5.65,0,0,0-5.64,0l-6,3.48-1.51.87-1.51.87h4.1L402,139l1.5-.87,2.95-1.7a3.56,3.56,0,0,1,1.79-.48,3.62,3.62,0,0,1,1.8.48l9.37,5.46.87.5.87.51v-2.37Zm0,0-.87-.5-8.34-4.86a5.65,5.65,0,0,0-5.64,0l-6,3.48-1.51.87-1.51.87h4.1L402,139l1.5-.87,2.95-1.7a3.56,3.56,0,0,1,1.79-.48,3.62,3.62,0,0,1,1.8.48l9.37,5.46.87.5.87.51v-2.37Zm6.88,4-6-3.5-.87-.51-.87-.5-8.34-4.86a5.65,5.65,0,0,0-5.64,0l-6,3.48-1.51.87-1.51.87-7.77,4.49a3.66,3.66,0,0,0-1.05.9,3.69,3.69,0,0,0-.21,4.27h0a2.42,2.42,0,0,0,.27.36,3.58,3.58,0,0,0,1,.83l11.24,6.54,3.92,2.28a6.69,6.69,0,0,0,3.36.9,6.77,6.77,0,0,0,2.75-.59,6.54,6.54,0,0,0,.59-.3l.28-.16.87-.5,14.7-8.5.76-.44.07,0a3.23,3.23,0,0,0,.63-.47,3.39,3.39,0,0,0-.62-5.42Zm-15.54,12.5-1.74,1-.43.25a4.65,4.65,0,0,1-4.65,0l-4.95-2.88-8.58-5-1.63-.95a1.63,1.63,0,0,1,0-2.82l10.85-6.26L402,139l1.5-.87,2.95-1.7a3.56,3.56,0,0,1,1.79-.48,3.62,3.62,0,0,1,1.8.48l9.37,5.46.87.5.87.51,5,2.9a1.34,1.34,0,0,1,.68,1.18,1.28,1.28,0,0,1-.19.69,1.33,1.33,0,0,1-.49.48l-.64.37-1.19.69ZM420.28,140l-.87-.5-8.34-4.86a5.65,5.65,0,0,0-5.64,0l-6,3.48-1.51.87-1.51.87h4.1L402,139l1.5-.87,2.95-1.7a3.56,3.56,0,0,1,1.79-.48,3.62,3.62,0,0,1,1.8.48l9.37,5.46.87.5.87.51v-2.37Zm0,0-.87-.5-8.34-4.86a5.65,5.65,0,0,0-5.64,0l-6,3.48-1.51.87-1.51.87h4.1L402,139l1.5-.87,2.95-1.7a3.56,3.56,0,0,1,1.79-.48,3.62,3.62,0,0,1,1.8.48l9.37,5.46.87.5.87.51v-2.37Z"/><path class="j" d="M359.54,131.55l-1.17-.68-6.11-3.55v2.37l.21.12,2.91,1.69L358,133h4.07Zm0,0-1.17-.68-6.11-3.55v2.37l.21.12,2.91,1.69L358,133h4.07Zm0,0-1.17-.68-6.11-3.55v2.37l.21.12,2.91,1.69L358,133h4.07Zm30.85-7.91a3.33,3.33,0,0,0-1.47-1.76l-2-1.19-9.41-5.47-2.1-1.22-1.63-1h0l-.9-.52a5.21,5.21,0,0,0-1.24-.53,5.43,5.43,0,0,0-1.91-.22,5.51,5.51,0,0,0-2.13.55h0l-.35.19-.82.47-9.89,5.71-2.93,1.69-2.24,1.29-.93.54a3.61,3.61,0,0,0-1.83,3.07.41.41,0,0,0,0,.11,3.8,3.8,0,0,0,.11.89,3.62,3.62,0,0,0,1.72,2.3l.15.09,1.75,1,.21.12,2.91,1.69L358,133l7.49,4.36.11.06a6.47,6.47,0,0,0,1.82.68,6.27,6.27,0,0,0,1.43.16,6.53,6.53,0,0,0,1.46-.16,6.27,6.27,0,0,0,1.88-.73l7.57-4.37,9.12-5.26a3.39,3.39,0,0,0,1.7-3A3.15,3.15,0,0,0,390.39,123.64ZM387.88,126l-12.18,7-4.5,2.6a4.65,4.65,0,0,1-4.61,0l0,0L362.1,133l-2.56-1.49-1.17-.68-6.11-3.55-.87-.51a1.61,1.61,0,0,1-.55-.52h0a1.59,1.59,0,0,1-.26-.88.49.49,0,0,1,0-.12,1.55,1.55,0,0,1,.71-1.22l.1-.07,2.14-1.24,3.33-1.92,11.34-6.55a3.55,3.55,0,0,1,1.78-.48,3.51,3.51,0,0,1,1.8.49l4.72,2.74,11.38,6.62a1.36,1.36,0,0,1,0,2.35Zm-28.34,5.55-1.17-.68-6.11-3.55v2.37l.21.12,2.91,1.69L358,133h4.07Zm0,0-1.17-.68-6.11-3.55v2.37l.21.12,2.91,1.69L358,133h4.07Z"/><polygon class="d" points="332.47 0.83 332.47 40.25 330.81 41.21 330.8 41.21 322.57 45.98 321.82 46.41 321.05 46.86 281.52 69.73 277.33 72.15 270.89 75.88 269.86 76.47 268.74 77.12 268.24 77.41 265.07 79.24 256.43 84.24 252.77 86.36 251.66 87 250.63 87.6 247.36 89.49 247.36 34.44 305.45 0.83 332.47 0.83"/><polygon class="d" points="137.05 126.14 137.05 181.19 222.16 131.95 222.16 76.9 137.05 126.14"/><path class="j" d="M481.72,147.46a3.15,3.15,0,0,0-.16-.78,3.45,3.45,0,0,0-.2-.48,4.13,4.13,0,0,0-.65-.9,5.56,5.56,0,0,0-1.36-1.05,9.32,9.32,0,0,0-2.19-.89,12.6,12.6,0,0,0-2.66-.42l-.72,0a5.45,5.45,0,0,0-.7,0,1,1,0,0,0-.54.17c-.1.06-.25.18-.25.31a.42.42,0,0,0,.24.35,2.32,2.32,0,0,0,1.17.12,9.26,9.26,0,0,1,4.53,1.08,3.23,3.23,0,0,1,1.83,2.43l0,.35a.42.42,0,0,0,.24.35,1.18,1.18,0,0,0,.6.14,1.28,1.28,0,0,0,.63-.18A.65.65,0,0,0,481.72,147.46Z"/><path class="j" d="M478.67,147.39a2,2,0,0,0-.41-1.07,3.23,3.23,0,0,0-1-.82,6.5,6.5,0,0,0-3.29-.78,4.55,4.55,0,0,0-1.11,0c-.22.05-.54.2-.54.47a.43.43,0,0,0,.27.36,1.48,1.48,0,0,0,.66.18l.68,0a4.2,4.2,0,0,1,2.07.5,2,2,0,0,1,.71.66,1.14,1.14,0,0,1,.15.4c0,.17-.06.35,0,.52a.49.49,0,0,0,.24.27c.48.28,1.48.26,1.56-.43A.82.82,0,0,0,478.67,147.39Z"/><path class="j" d="M474.8,146.88a2.19,2.19,0,0,0-2.05,0c-.56.32-.6.86,0,1.21a2.26,2.26,0,0,0,2,0C475.37,147.72,475.36,147.21,474.8,146.88Z"/><path class="n" d="M317.24,255.33,294.9,242.44a2.1,2.1,0,0,0-2.11,0L270.6,255.21a2.11,2.11,0,0,0,0,3.66l22.33,12.89a2.12,2.12,0,0,0,2.11,0L317.24,259A2.11,2.11,0,0,0,317.24,255.33Z"/><path class="n" d="M243.39,210.93,221.06,198a2.16,2.16,0,0,0-2.12,0l-22.19,12.77a2.12,2.12,0,0,0,0,3.67l22.33,12.89a2.1,2.1,0,0,0,2.11,0l22.2-12.77A2.12,2.12,0,0,0,243.39,210.93Z"/><path class="n" d="M289.54,184,267.2,171.15a2.1,2.1,0,0,0-2.11,0L242.9,183.92a2.11,2.11,0,0,0,0,3.66l22.33,12.89a2.1,2.1,0,0,0,2.11,0l22.2-12.77A2.11,2.11,0,0,0,289.54,184Z"/><path class="n" d="M330.64,160.12l-22.33-12.89a2.1,2.1,0,0,0-2.11,0L284,160a2.11,2.11,0,0,0,0,3.66l22.34,12.9a2.14,2.14,0,0,0,2.11,0l22.19-12.78A2.11,2.11,0,0,0,330.64,160.12Z"/><path class="n" d="M363.75,227.76l-22.33-12.89a2.11,2.11,0,0,0-2.12,0l-22.19,12.77a2.12,2.12,0,0,0,0,3.67l22.33,12.89a2.14,2.14,0,0,0,2.11,0l22.2-12.77A2.12,2.12,0,0,0,363.75,227.76Z"/><path class="n" d="M405.59,203.83l-22.33-12.89a2.1,2.1,0,0,0-2.11,0L359,203.71a2.11,2.11,0,0,0,0,3.66l22.34,12.9a2.14,2.14,0,0,0,2.11,0l22.19-12.78A2.11,2.11,0,0,0,405.59,203.83Z"/><path class="o" d="M317.72,149.59a7.79,7.79,0,0,0,3.51-.72c1.13-.76,3.77,2.41,1.17,4.09s-5.3,3.37-6.7,3.13-2.17-.48-2.29-.8-.16-5.94-.16-5.94Z"/><path class="p" d="M318.71,145.36v6.41s-3.62,1.58-6,.66l-.9-4.26Z"/><path class="o" d="M328,153.27a7.79,7.79,0,0,0,3.51-.72c1.13-.76,3.77,2.41,1.17,4.09s-5.3,3.37-6.7,3.13-2.17-.48-2.29-.8-.16-5.94-.16-5.94Z"/><path class="q" d="M327.43,125.39a31.23,31.23,0,0,1,1.79-2.76c.79-1,1.86-2.67.88-3.51s-2.86-1.84-3.75-1.78-2.31,1.21-1.83,1.79-.41,3.37-.41,3.37Z"/><path class="j" d="M293.45,107.11a3.63,3.63,0,0,1,3.72-1l2.79.84,7.62,3.55,5.28,2.76.45,16.86.53,8.24L310.71,141c-3.73,3.5-15.16-2.64-15.16-2.64-1.93-6.38-4.76-23.95-4.76-23.95A11.14,11.14,0,0,1,293.45,107.11Z"/><path class="p" d="M312.58,134s8-1.69,12.87-2.13a3.14,3.14,0,0,1,3.42,3,153.35,153.35,0,0,1-.17,19.61l-2.95,1.86a2.08,2.08,0,0,1-3.18-1.66l-.55-10.9c0-.93-1.15.2-1.86.81-2.22,1.91-7.59,4.06-10.85,2.92,0,0-9.78-3-12.13-9.39Z"/><path class="r" d="M307.79,149.6l2.76-1.43L309,172.47a1.45,1.45,0,0,1-.47,1,2.09,2.09,0,0,1-1,.52c-.69.11-1.29-.63-1.23-1.5Z"/><path class="r" d="M287.87,139.39l2.69-1.43-1.79,22.39a1.6,1.6,0,0,1-.49,1.05,2.12,2.12,0,0,1-.79.46c-.76.22-1.45-.61-1.37-1.59Z"/><path class="r" d="M324.76,144.26l3.2,19.5a1.33,1.33,0,0,1-.32,1.17,1.25,1.25,0,0,1-.59.34c-.43.13-.86-.25-1-.83l-3.86-19.28Z"/><path class="q" d="M302.53,92.34c1.83-.3,2.86-.64,4.62-.12,3,.87,4.53,3.68,5.25,6.49s.93,7-.69,9.59c-1,1.64-3.27,1.34-4.89.91a19.07,19.07,0,0,1-6.1-2.57c-2.22-1.68-3.4-5.36-3.54-8C297.07,96.32,299.75,92.8,302.53,92.34Z"/><path class="s" d="M300,106a6.07,6.07,0,0,0,.75.69,19.07,19.07,0,0,0,6.1,2.57c.31.08.65.15,1,.21l-.24,1.07a15.51,15.51,0,0,1-5.67.33,2.2,2.2,0,0,1-2-2.19V106Z"/><path class="t" d="M310.05,112.77s4.39-.12,5.48,3,3.55,9.21,3.55,9.21,3.73-2.89,5.11-3.25c0,0,3.07,1.56,3.79,3.25,0,0-4.63,8-10.29,10.35a39.66,39.66,0,0,1-9.11-14S304.93,115.24,310.05,112.77Z"/><path class="u" d="M288.91,115.35c11.5,2.39,17.34,8.53,19.18,10.83a3.07,3.07,0,0,1,.66,1.91v22.09c-15.41-2.57-22-11.63-22-11.63V117.09A1.79,1.79,0,0,1,288.91,115.35Z"/><path class="u" d="M308.75,150.18s13.27-1.33,17.37-5.92c0,0,.3-3.08-1-2.66s-7.26,4.09-16.4,5.05Z"/><path class="v" d="M311.48,93.72l2-.86a15.63,15.63,0,0,0-11-1,5.43,5.43,0,0,0-1.46.46c-2,1-4,3.95-3.85,6.24.14,2.67,1.32,6.35,3.54,8a16.24,16.24,0,0,0,4.68,2.16c.45-.22,1.13-2.71,1.13-2.71-.93-.54-1.65-3.64-.66-4.18s1.66,1.38,1.66,1.38a1.47,1.47,0,0,0,1-2,2.9,2.9,0,0,1-.22-1.12,1.28,1.28,0,0,1,1.2-1.25c.3,0,.59-.06.86-.1a29.22,29.22,0,0,1,4.91.14A17.92,17.92,0,0,0,311.48,93.72Z"/><path class="w" d="M392.43,193.31a7.81,7.81,0,0,0,3.51-.72c1.12-.76,3.77,2.42,1.16,4.1s-5.3,3.36-6.7,3.12-2.17-.48-2.28-.8-.17-5.93-.17-5.93Z"/><path class="o" d="M393.41,189.08v6.41s-3.61,1.58-6,.67l-.9-4.27Z"/><path class="w" d="M402.69,197a7.66,7.66,0,0,0,3.51-.72c1.12-.76,3.77,2.42,1.16,4.1s-5.29,3.36-6.7,3.12-2.17-.48-2.29-.8-.16-5.94-.16-5.94Z"/><path class="x" d="M368.5,151.17a3.88,3.88,0,0,1,3.82-1.21l2.34.7,7.63,3.55,5.27,2.76.45,16.87.53,8.23-3.12,2.65c-3.73,3.49-15.17-2.65-15.17-2.65-1.92-6.38-4-23.73-4-23.73C366.34,154.73,367.3,152.52,368.5,151.17Z"/><path class="g" d="M387.28,177.74s9.14-1.87,14-2.31a3.13,3.13,0,0,1,3.41,3c.21,4.43-.68,13.16-1.32,19.8l-3,1.85a2.08,2.08,0,0,1-3.18-1.66l-.54-10.9c-.05-.93-1.16.2-1.86.81-2.23,1.91-7.59,4.07-10.86,2.93,0,0-9.78-3-12.13-9.4Z"/><path class="r" d="M382.5,193.32l2.76-1.43-1.58,24.31a1.5,1.5,0,0,1-.48,1,2.08,2.08,0,0,1-1,.51c-.7.11-1.3-.63-1.24-1.5Z"/><path class="r" d="M362.57,183.11l2.69-1.42-1.79,22.38a1.57,1.57,0,0,1-.48,1.05,2,2,0,0,1-.8.46c-.75.22-1.45-.61-1.36-1.58Z"/><path class="r" d="M399.46,188l3.2,19.49a1.35,1.35,0,0,1-.31,1.18,1.54,1.54,0,0,1-.6.34c-.43.12-.86-.26-1-.84l-3.87-19.27Z"/><path class="q" d="M377.24,136.07c1.82-.3,2.85-.65,4.61-.13,3,.87,4.53,3.68,5.25,6.49s.93,7-.69,9.59c-1,1.65-3.27,1.34-4.88.91a18.83,18.83,0,0,1-6.1-2.56c-2.23-1.69-3.41-5.37-3.54-8C371.77,140,374.46,136.52,377.24,136.07Z"/><path class="s" d="M381.53,152.93a18.83,18.83,0,0,1-6.1-2.56,6.24,6.24,0,0,1-.76-.7h0v2.68a3.57,3.57,0,0,0,2.9,1.61c1.48.17,2.65.82,4.73.25l.23-1.06A9.58,9.58,0,0,1,381.53,152.93Z"/><path class="u" d="M363.61,159.07c11.51,2.39,17.34,8.53,19.18,10.84a3,3,0,0,1,.66,1.9v22.1c-15.41-2.57-22-11.64-22-11.64V160.82A1.78,1.78,0,0,1,363.61,159.07Z"/><path class="u" d="M383.45,193.91s13.28-1.33,17.37-5.92c0,0,.3-3.09-1-2.67s-7.27,4.09-16.41,5.05Z"/><path class="j" d="M374.5,150.19l-.59,1.79a8.26,8.26,0,0,0,9.38,2.76l-.84-1.06S377,153.82,374.5,150.19Z"/><path class="q" d="M401.9,173.3a9,9,0,0,1,1.85-.22c.68,0,1.14.88,1.69,1.19a3.4,3.4,0,0,1,1.49,2.58c0,1.19-.53,2.49-1.18,2.49s-.8.13-1-.36a23.46,23.46,0,0,0-1.35-2.16Z"/><path class="j" d="M402.5,172.63c-1.38.36-9.07.92-9.07.92s-.93-9.78-2-12.85a6.17,6.17,0,0,0-4-3.79c-5.11,2.47-2.45,8.86-2.45,8.86a75.28,75.28,0,0,1,3.36,12.49,2,2,0,0,0,2.28,1.62c6.81-1.11,13.22-2.66,13.22-2.66A8.7,8.7,0,0,0,402.5,172.63Z"/><path class="y" d="M387,137.26c-4.2-3.5-10-1.59-10-1.59h0a4.79,4.79,0,0,0-1.26.42c-2,1-4,3.94-3.85,6.24.13,2.66,1.31,6.34,3.54,8a15.9,15.9,0,0,0,4.67,2.15c.45-.22,1.14-2.7,1.14-2.7-.94-.54-1.66-3.64-.66-4.18s1.65,1.38,1.65,1.38a1.47,1.47,0,0,0,1-2,3.41,3.41,0,0,1,0-2.34c4.15-.11,4.68,1.35,4.68,1.35A6.25,6.25,0,0,0,387,137.26Z"/><path class="u" d="M276.13,173.51a7.72,7.72,0,0,0,3.51-.73c1.12-.76,3.77,2.42,1.16,4.1s-5.3,3.37-6.7,3.12-2.17-.47-2.29-.8-.16-5.93-.16-5.93Z"/><path class="o" d="M277.11,169.27v6.41s-3.61,1.59-6,.67l-.9-4.26Z"/><path class="u" d="M286.38,177.19a7.7,7.7,0,0,0,3.51-.73c1.13-.76,3.78,2.42,1.17,4.1s-5.3,3.37-6.7,3.13-2.17-.49-2.29-.81-.16-5.94-.16-5.94Z"/><path class="z" d="M251.86,131a3.59,3.59,0,0,1,3.71-1l2.79.83L266,134.4l5.28,2.77.45,16.86.53,8.23-3.13,2.65c-3.73,3.49-15.16-2.65-15.16-2.65-1.93-6.38-4.75-23.95-4.75-23.95A11,11,0,0,1,251.86,131Z"/><path class="o" d="M271,157.93s8-1.68,12.88-2.12a3.13,3.13,0,0,1,3.41,3,155,155,0,0,1-.16,19.61l-3,1.85a2.08,2.08,0,0,1-3.18-1.66l-.54-10.89c-.05-.93-1.16.2-1.87.8-2.22,1.91-7.58,4.07-10.85,2.93,0,0-9.78-3-12.13-9.4Z"/><path class="r" d="M266.19,173.51l2.77-1.42-1.58,24.3a1.5,1.5,0,0,1-.48,1,2,2,0,0,1-1,.51c-.69.12-1.29-.62-1.23-1.49Z"/><path class="r" d="M246.27,163.3l2.69-1.42-1.79,22.38a1.61,1.61,0,0,1-.48,1.05,2,2,0,0,1-.8.46c-.76.22-1.45-.6-1.37-1.58Z"/><path class="r" d="M283.16,168.18l3.2,19.5a1.31,1.31,0,0,1-.32,1.17,1.34,1.34,0,0,1-.59.34c-.43.12-.86-.25-1-.83l-3.87-19.28Z"/><path class="q" d="M260.94,116.26c1.82-.3,2.85-.65,4.61-.13,3,.88,4.53,3.69,5.25,6.5s.93,7-.69,9.59c-1,1.64-3.27,1.33-4.89.91a18.92,18.92,0,0,1-6.09-2.57c-2.23-1.68-3.41-5.37-3.54-8C255.47,120.24,258.15,116.71,260.94,116.26Z"/><path class="s" d="M258.37,129.87a6.15,6.15,0,0,0,.76.69,18.92,18.92,0,0,0,6.09,2.57c.32.08.65.15,1,.21L266,134.4c-2.07.57-3.15.11-4.62-.06-1.12-.13-3-.68-3-1.8v-2.68Z"/><path class="u" d="M247.31,139.27c11.5,2.38,17.34,8.52,19.18,10.83a3,3,0,0,1,.66,1.9v22.1c-15.41-2.57-22-11.64-22-11.64V141A1.79,1.79,0,0,1,247.31,139.27Z"/><path class="u" d="M267.15,174.1s13.28-1.33,17.37-5.92c0,0,.3-3.09-1-2.67s-7.27,4.09-16.41,5.06Z"/><path class="q" d="M285.2,152.72a8.28,8.28,0,0,1,1.85-.22c.69.05,1.14.88,1.69,1.19a3.4,3.4,0,0,1,1.5,2.58c0,1.18-.54,2.49-1.19,2.48s-.79.13-1-.35a21.45,21.45,0,0,0-1.35-2.16Z"/><path class="j" d="M284.46,152.36l1.35-.28a10,10,0,0,1,1.15,4.28l-1.18.28Z"/><path class="aa" d="M284.87,152.14c-1.39.36-9.07.92-9.07.92s-.94-9.77-2-12.84a6.17,6.17,0,0,0-4-3.79c-5.11,2.47-2.44,8.85-2.44,8.85a76.32,76.32,0,0,1,3.35,12.5,2,2,0,0,0,2.29,1.61c6.81-1.1,13.22-2.66,13.22-2.66A8.74,8.74,0,0,0,284.87,152.14Z"/><path class="ab" d="M270.66,122.17s5.1-5.38,0-6.86-10-1.41-13.64.39-3.24,7.19-2.56,8.51a25.15,25.15,0,0,0,4.19,6,.53.53,0,0,0,.22.12,2.75,2.75,0,0,0,.26.22,15.9,15.9,0,0,0,4.67,2.15c.45-.21,1.14-2.7,1.14-2.7-.94-.54-1.66-3.64-.67-4.18s1.66,1.38,1.66,1.38a1.47,1.47,0,0,0,1-2,3.44,3.44,0,0,1,0-2.35A8.47,8.47,0,0,0,270.66,122.17Z"/><path class="j" d="M258.36,130.36l-.82,1.82a7.22,7.22,0,0,0,9.07,2.55l-.46-1.1S260.81,134,258.36,130.36Z"/><path class="w" d="M350.83,217.23a7.79,7.79,0,0,0,3.51-.72c1.12-.76,3.77,2.41,1.16,4.1s-5.29,3.36-6.7,3.12-2.16-.48-2.28-.8-.16-5.94-.16-5.94Z"/><path class="o" d="M351.82,213v6.41s-3.62,1.58-6,.66l-.9-4.26Z"/><path class="w" d="M361.09,220.91a7.81,7.81,0,0,0,3.51-.72c1.12-.76,3.77,2.41,1.16,4.1s-5.29,3.36-6.7,3.12-2.16-.48-2.28-.8-.17-5.94-.17-5.94Z"/><path class="q" d="M360.54,193a32.22,32.22,0,0,1,1.78-2.77c.8-1,1.87-2.67.88-3.51s-2.85-1.84-3.74-1.78-2.32,1.21-1.84,1.79-.41,3.37-.41,3.37Z"/><path class="ac" d="M326.56,174.76a3.58,3.58,0,0,1,3.72-1l2.79.82,7.62,3.56,5.27,2.76.45,16.86L347,206l-3.13,2.64c-3.73,3.49-15.17-2.64-15.17-2.64-1.92-6.38-4.75-24-4.75-24A11.09,11.09,0,0,1,326.56,174.76Z"/><path class="o" d="M345.68,201.65s8-1.68,12.88-2.11a3.11,3.11,0,0,1,3.41,3,153,153,0,0,1-.16,19.6L358.86,224a2.07,2.07,0,0,1-3.18-1.65l-.55-10.9c-.05-.93-1.16.2-1.86.8-2.23,1.92-7.59,4.07-10.85,2.93,0,0-9.79-3-12.14-9.39Z"/><path class="r" d="M340.9,217.24l2.76-1.43-1.58,24.31a1.49,1.49,0,0,1-.47,1,2.09,2.09,0,0,1-1,.52c-.7.11-1.29-.63-1.24-1.5Z"/><path class="r" d="M321,207l2.69-1.43L321.87,228a1.57,1.57,0,0,1-.48,1,2.15,2.15,0,0,1-.8.46c-.75.22-1.44-.61-1.36-1.59Z"/><path class="r" d="M357.87,211.9l3.2,19.5a1.36,1.36,0,0,1-.32,1.17,1.5,1.5,0,0,1-.59.35c-.44.11-.86-.26-1-.84l-3.87-19.27Z"/><path class="q" d="M335.64,160c1.82-.3,2.85-.64,4.61-.12,3,.87,4.54,3.68,5.25,6.49s.93,7-.69,9.59c-1,1.64-3.27,1.34-4.88.91a19.07,19.07,0,0,1-6.1-2.57c-2.23-1.68-3.41-5.36-3.54-8C330.17,164,332.86,160.44,335.64,160Z"/><path class="s" d="M333.07,173.59a6.15,6.15,0,0,0,.76.69,19.07,19.07,0,0,0,6.1,2.57c.31.08.65.15,1,.22l-.23,1.06a15.3,15.3,0,0,1-5.67.33,2.19,2.19,0,0,1-1.95-2.19v-2.68Z"/><path class="ad" d="M343.16,180.41s4.39-.12,5.47,3,3.55,9.21,3.55,9.21,3.73-2.89,5.12-3.25c0,0,3.07,1.56,3.79,3.25,0,0-4.64,8-10.29,10.35a39.66,39.66,0,0,1-9.11-14S338,182.88,343.16,180.41Z"/><path class="u" d="M322,183c11.51,2.39,17.35,8.53,19.19,10.83a3.06,3.06,0,0,1,.65,1.91v22.09c-15.4-2.57-22-11.63-22-11.63V184.73A1.78,1.78,0,0,1,322,183Z"/><path class="u" d="M341.85,217.82s13.28-1.33,17.37-5.92c0,0,.3-3.08-1-2.66s-7.26,4.09-16.41,5Z"/><path class="ae" d="M345.36,165.9s3.26-2.83,1-4.36c-.7-.49-1.45-.53-2-1.22a6.78,6.78,0,0,0-2.1-2c-.79-.4-1.46.38-2.2.58-1.39.37-2.43-1.23-3.78-.87a5.2,5.2,0,0,0-1.23.75c-1.05.64-3.72.13-3.61,1.91a2.72,2.72,0,0,1-1.2,2.45,2.32,2.32,0,0,0-1.18,2.38,6.21,6.21,0,0,0,.55,1.13,4.81,4.81,0,0,1,.29,1.5,5.63,5.63,0,0,0,1.07,3.07,15.82,15.82,0,0,0,2.84,3.05,16.18,16.18,0,0,0,4.67,2.16c.46-.22,1.14-2.71,1.14-2.71-.93-.54-1.66-3.64-.66-4.18s1.65,1.39,1.65,1.39a1.47,1.47,0,0,0,1-2,3.44,3.44,0,0,1,0-2.35A8.47,8.47,0,0,0,345.36,165.9Z"/><path class="w" d="M229.05,201.08a7.87,7.87,0,0,0,3.51-.73c1.12-.76,3.77,2.42,1.16,4.1s-5.3,3.37-6.7,3.12-2.17-.48-2.29-.8-.16-5.93-.16-5.93Z"/><path class="o" d="M230,196.84v6.41s-3.61,1.59-6,.67l-.9-4.26Z"/><path class="w" d="M239.3,204.76a7.76,7.76,0,0,0,3.52-.73c1.12-.76,3.77,2.42,1.16,4.1s-5.3,3.36-6.7,3.12-2.17-.48-2.29-.8-.16-5.94-.16-5.94Z"/><path class="q" d="M238.75,176.88a30.78,30.78,0,0,1,1.79-2.77c.8-1,1.87-2.67.88-3.51s-2.85-1.84-3.74-1.78-2.32,1.22-1.84,1.79-.41,3.37-.41,3.37Z"/><path class="af" d="M204.78,158.6a3.59,3.59,0,0,1,3.71-1l2.79.83,7.63,3.55,5.27,2.76.45,16.87.53,8.23L222,192.48c-3.74,3.49-15.17-2.65-15.17-2.65-1.93-6.38-4.75-24-4.75-24A11.11,11.11,0,0,1,204.78,158.6Z"/><path class="o" d="M223.9,185.5s8-1.68,12.88-2.12a3.13,3.13,0,0,1,3.41,3A153.14,153.14,0,0,1,240,206l-3,1.85a2.08,2.08,0,0,1-3.18-1.66l-.54-10.89c0-.93-1.16.19-1.86.8-2.23,1.91-7.59,4.07-10.86,2.92,0,0-9.78-3-12.13-9.39Z"/><path class="r" d="M219.11,201.08l2.77-1.42L220.3,224a1.5,1.5,0,0,1-.48,1,2.08,2.08,0,0,1-1,.51c-.7.12-1.3-.62-1.24-1.49Z"/><path class="r" d="M199.19,190.87l2.69-1.42-1.79,22.38a1.55,1.55,0,0,1-.48,1,2,2,0,0,1-.8.46c-.75.22-1.45-.6-1.36-1.58Z"/><path class="r" d="M236.08,195.75l3.2,19.49a1.35,1.35,0,0,1-.31,1.18,1.43,1.43,0,0,1-.6.34c-.43.12-.86-.26-1-.83l-3.87-19.28Z"/><path class="q" d="M213.86,143.83c1.82-.3,2.85-.65,4.61-.13,3,.88,4.53,3.68,5.25,6.49s.93,7-.69,9.59c-1,1.65-3.27,1.34-4.88.91a18.83,18.83,0,0,1-6.1-2.56c-2.23-1.68-3.41-5.37-3.54-8C208.39,147.81,211.08,144.28,213.86,143.83Z"/><path class="v" d="M212.36,143.86c1.64-.84,4.35-.68,6.11-.16,2.8.83,4.34,3.44,5.11,6a8.62,8.62,0,0,1-3.77.68,3.44,3.44,0,0,0,0,2.35,1.47,1.47,0,0,1-1,2s-.66-1.93-1.66-1.38-.27,3.64.67,4.18c0,0-.69,2.48-1.14,2.7a15.9,15.9,0,0,1-4.67-2.15c-2.23-1.68-3.41-5.37-3.54-8C208.39,147.81,210.39,144.87,212.36,143.86Z"/><path class="s" d="M211.29,157.43a5.53,5.53,0,0,0,.76.7,18.83,18.83,0,0,0,6.1,2.56,9,9,0,0,0,1,.22l-.23,1.06a15.34,15.34,0,0,1-5.67.34,2.22,2.22,0,0,1-2-2.2v-2.68Z"/><path class="ag" d="M221.37,164.26s4.4-.12,5.48,3,3.55,9.2,3.55,9.2,3.73-2.89,5.11-3.25c0,0,3.07,1.57,3.79,3.25,0,0-4.63,8-10.29,10.35a39.59,39.59,0,0,1-9.1-14S216.26,166.72,221.37,164.26Z"/><path class="u" d="M200.23,166.83c11.5,2.39,17.34,8.53,19.18,10.84a3,3,0,0,1,.66,1.9v22.1c-15.41-2.57-22-11.64-22-11.64V168.58A1.79,1.79,0,0,1,200.23,166.83Z"/><path class="u" d="M220.07,201.67s13.28-1.33,17.37-5.92c0,0,.3-3.09-1-2.67s-7.27,4.09-16.41,5.06Z"/><path class="q" d="M312.51,223.94a8.28,8.28,0,0,1,1.85-.22c.68.05,1.14.88,1.69,1.19a3.4,3.4,0,0,1,1.49,2.58c0,1.19-.53,2.49-1.18,2.49s-.8.13-1-.36a23.46,23.46,0,0,0-1.35-2.16Z"/><path class="g" d="M303.75,244.8a7.79,7.79,0,0,0,3.51-.72c1.12-.76,3.77,2.41,1.16,4.09s-5.29,3.37-6.7,3.13-2.16-.48-2.28-.8-.16-5.94-.16-5.94Z"/><path class="o" d="M304.74,240.57V247s-3.62,1.59-6,.67l-.9-4.26Z"/><path class="g" d="M314,248.48a7.79,7.79,0,0,0,3.51-.72c1.12-.77,3.77,2.41,1.16,4.09s-5.29,3.37-6.7,3.13-2.16-.48-2.28-.8-.16-5.94-.16-5.94Z"/><path class="g" d="M279.48,202.33a3.6,3.6,0,0,1,3.71-1l2.8.83,7.62,3.55,3.45,2,2.27,17.67.54,8.24-3.13,2.64c-3.73,3.5-15.17-2.64-15.17-2.64-1.92-6.38-4.75-23.95-4.75-23.95A11.09,11.09,0,0,1,279.48,202.33Z"/><path class="o" d="M298.6,229.22s8.81-1.68,13.7-2.12a3.14,3.14,0,0,1,3.42,3,173.11,173.11,0,0,1-1,19.61l-3,1.85a2.08,2.08,0,0,1-3.18-1.66L308.05,239c0-.93-1.15.2-1.86.81-2.23,1.91-7.59,4.06-10.85,2.92,0,0-9.79-3-12.14-9.4Z"/><path class="r" d="M293.82,244.81l2.76-1.43L295,267.68a1.45,1.45,0,0,1-.47,1,2.09,2.09,0,0,1-1,.52c-.7.11-1.29-.63-1.23-1.5Z"/><path class="r" d="M273.89,234.6l2.69-1.43-1.79,22.38a1.59,1.59,0,0,1-.48,1.06,2.3,2.3,0,0,1-.8.46c-.75.22-1.44-.61-1.36-1.59Z"/><path class="r" d="M310.79,239.47,314,259a1.33,1.33,0,0,1-.32,1.17,1.3,1.3,0,0,1-.59.34c-.44.12-.86-.25-1-.83l-3.87-19.28Z"/><path class="q" d="M288.56,187.55c1.82-.3,2.85-.64,4.61-.13,3,.88,4.54,3.69,5.25,6.5s.94,7-.69,9.59c-1,1.64-3.27,1.34-4.88.91a19.07,19.07,0,0,1-6.1-2.57c-2.23-1.68-3.4-5.36-3.54-8C283.09,191.53,285.78,188,288.56,187.55Z"/><path class="s" d="M286,201.16a6.15,6.15,0,0,0,.76.69,19.07,19.07,0,0,0,6.1,2.57c.31.08.65.15,1,.21l-.23,1.06c-2.07.58-3.62-.3-5.09-.47-1.12-.13-2.21-.39-2.53-1.38v-2.68Z"/><path class="u" d="M274.93,210.56c11.51,2.39,17.35,8.53,19.19,10.83a3.06,3.06,0,0,1,.65,1.91v22.09c-15.4-2.57-22-11.63-22-11.63V212.3A1.78,1.78,0,0,1,274.93,210.56Z"/><path class="u" d="M294.77,245.39s13.28-1.33,17.37-5.92c0,0,.31-3.08-1-2.66s-7.26,4.09-16.41,5.05Z"/><path class="ae" d="M299.87,187.16a3.29,3.29,0,0,1-4.74,0c-2.6-2.29-12.83-1.6-12.26,7.8l1.23,3h0a8.8,8.8,0,0,0,2.65,3.9,16.18,16.18,0,0,0,4.67,2.16c.46-.22,1.14-2.71,1.14-2.71-.93-.54-1.65-3.64-.66-4.18s1.65,1.38,1.65,1.38a1.46,1.46,0,0,0,1-2,3.38,3.38,0,0,1,0-2.35,8.47,8.47,0,0,0,3.77-.68A6,6,0,0,0,299.87,187.16Z"/><path class="j" d="M285.84,201.94s1.91,2.67,7.92,3.05l.93,1.27s-5.18-.16-7-.86-2.08-1.17-2.11-2.36Z"/><path class="j" d="M311.77,223.59l1.34-.28a10,10,0,0,1,1.16,4.27l-1.18.28Z"/><path class="ah" d="M312.17,223.36c-1.38.37-9.07.93-9.07.93s-.93-9.78-2-12.85a6.17,6.17,0,0,0-4-3.79c-5.11,2.47-2.45,8.86-2.45,8.86A75.28,75.28,0,0,1,298,229a2,2,0,0,0,2.28,1.62c6.81-1.11,13.23-2.66,13.23-2.66A8.71,8.71,0,0,0,312.17,223.36Z"/><path class="n" d="M407.42,113.81c11.4,0,20.65,2.81,20.65,6.28s-9.25,6.29-20.65,6.29-20.64-2.82-20.64-6.29S396,113.81,407.42,113.81Z"/><path class="q" d="M386.47,71.18a2.5,2.5,0,0,0,.17-.76c0-.29-.24-.1-.39.07-.4.48-.67,1-1.1,1.51-.12.13-.44.32-.46,0a5.13,5.13,0,0,1,.91-2.62,13,13,0,0,1,1-1.55c.19-.27.39-.52.6-.77s.45-.39.48-.59a2.11,2.11,0,0,0,0-.25l3.82.46a7.88,7.88,0,0,1,.14,1.62,5.41,5.41,0,0,1-.73,3,4.61,4.61,0,0,0-.29,2.09c0,.76.49,1.26.17,2s-2.43.9-3.67-.24a3.29,3.29,0,0,1-.83-2.37,6.37,6.37,0,0,1,.1-1.31A2,2,0,0,1,386.47,71.18Z"/><path class="j" d="M387.3,65.11,387,66.55a10.27,10.27,0,0,0,5,.93l.39-1.67Z"/><path class="z" d="M391.51,32S389.71,51.2,387,65.45a8.08,8.08,0,0,0,5.38,1l2.94-15.66Z"/><path class="s" d="M416.26,61.58a1.71,1.71,0,0,0-1.08,1.11c-.39,1-1.7,2.59-2.14,2.34s0-4.31,0-4.31l.78-1.75Z"/><polygon class="j" points="417.32 61.45 416.53 62.48 413.04 58.84 414.04 57.69 417.32 61.45"/><path class="o" d="M419.72,112.09s.26,3.11,1.63,4.21c3.32,2.69,4.79,5.24,1.83,6.13s-9.13-2.49-9.72-4.76l.44-6.77Z"/><path class="o" d="M395.53,112.09s-.26,3.11-1.63,4.21c-3.33,2.69-4.8,5.24-1.84,6.13s9.14-2.49,9.73-4.76l-.44-6.77Z"/><path class="p" d="M393.06,61v53.7s5.18,2,9.47-.66c0,0-.22-25.63.66-38.95,0,0,.66-.88,1.16.71,0,0,6.29,26.24,7.9,38.72,0,0,5,1.17,9-1.18,0,0-4-22.89-4.41-25.83S413,62.36,413,62.36,399,59.13,393.06,61Z"/><path class="s" d="M411,22l-1.57.42L409.25,25C411.28,25.08,411,22,411,22Z"/><path class="s" d="M397.06,22l1.57.42.18,2.53C396.78,25.08,397.06,22,397.06,22Z"/><path class="ai" d="M399.3,28s3.21-1.06,9.33-.09l-.51,1.48-6.88,1.38L399.57,29Z"/><path class="aa" d="M408.5,28.85s8,1.69,8.82,2.57-1.18,12.84-2.06,15.41S413,62.36,413,62.36s-9,3.85-19.94-1.32c0,0-.51-9.32-1-14.21-.41-4.3-.58-14.81-.58-14.81a16.83,16.83,0,0,1,7.83-2.86A53,53,0,0,1,408.5,28.85Z"/><path class="aa" d="M417.32,31.42s8.34,12.75,10.76,19.13L417.31,61.91l-3.67-4,7.18-7.27-4.09-7.21-5.28-7.22Z"/><path class="s" d="M408.31,22.83,408,29.16s-3,2.92-8.08,0V22.39Z"/><path class="q" d="M410,20.39c0,4.61-2.7,8.36-6,8.36s-6-3.75-6-8.36,2.7-8.37,6-8.37S410,15.77,410,20.39Z"/><path class="v" d="M403.73,18.07s4.65-2.27,4.86,4.75a3.39,3.39,0,0,0,2.79-.47s2.26-12.25-7.59-11.1c0,0-8.44-.77-7.18,11.31a4,4,0,0,0,3.11.16S399.13,17.21,403.73,18.07Z"/><polygon class="s" points="400 29.31 404.02 32.45 407.17 30.15 406.76 29.4 400 29.31"/><polygon class="t" points="408.63 27.88 404.02 32.45 407.5 34.64 409.18 28.99 408.63 27.88"/><polygon class="t" points="399.3 27.97 404.02 32.45 400.54 34.64 398.47 29.24 399.3 27.97"/><path class="t" d="M392.77,55c0,.36,0,.73.05,1.08a42.22,42.22,0,0,0,20.71.94c0-.36.07-.74.11-1.12C402.3,57.82,395.58,56.07,392.77,55Z"/><path class="t" d="M392.93,58.08c0,.39,0,.75.05,1.07a42.2,42.2,0,0,0,20.23,1c0-.35.07-.73.11-1.13C402.39,60.81,395.8,59.17,392.93,58.08Z"/><path class="q" d="M413.64,59a2.14,2.14,0,0,1,.32,1.19c-.32,1.87.19,2,.28,3a2.72,2.72,0,0,1-.45,1.73c-.2.33-.59.92-1.05.87a2.35,2.35,0,0,1-1.56-2.65,3.47,3.47,0,0,0,.35-2.1c-.13-.75.16-1,.77-1.42C412.41,59.53,413.53,58.83,413.64,59Z"/><polygon class="j" points="251.77 49.43 258.14 45.74 258.14 77.92 251.77 81.61 251.77 49.43"/><polygon class="j" points="260.84 44.22 267.21 40.53 267.21 72.72 260.84 76.41 260.84 44.22"/><polygon class="j" points="269.91 39.02 276.28 35.33 276.28 67.51 269.91 71.2 269.91 39.02"/><polygon class="j" points="278.97 33.81 285.35 30.12 285.35 62.31 278.97 65.99 278.97 33.81"/><polygon class="j" points="317.76 0.83 310.15 5.23 310.15 3.22 314.28 0.83 317.76 0.83"/><polygon class="j" points="324.41 0.83 310.15 9.08 310.15 7.08 320.94 0.83 324.41 0.83"/><polygon class="j" points="328.18 0.83 328.18 2.51 310.15 12.94 310.15 10.93 327.61 0.83 328.18 0.83"/><polygon class="j" points="328.18 6.37 310.15 16.8 310.15 14.79 328.18 4.36 328.18 6.37"/><polygon class="j" points="328.18 12.94 328.18 14.95 310.15 25.38 310.15 23.38 328.18 12.94"/><polygon class="j" points="328.18 18.81 310.15 29.24 310.15 27.23 328.18 16.8 328.18 18.81"/><polygon class="j" points="328.18 22.66 310.15 33.1 310.15 31.09 328.18 20.66 328.18 22.66"/><polygon class="j" points="328.18 26.52 310.15 36.95 310.15 34.94 328.18 24.51 328.18 26.52"/><polygon class="j" points="159.76 119.51 159.76 121.52 141.73 131.95 141.73 129.94 159.76 119.51"/><polygon class="j" points="159.76 125.37 141.73 135.81 141.73 133.8 159.76 123.37 159.76 125.37"/><polygon class="j" points="159.76 129.23 141.73 139.66 141.73 137.65 159.76 127.22 159.76 129.23"/><polygon class="j" points="159.76 133.09 141.73 143.52 141.73 141.51 159.76 131.08 159.76 133.09"/><polygon class="j" points="159.76 137.96 159.76 139.97 141.73 150.4 141.73 148.39 159.76 137.96"/><polygon class="j" points="159.76 143.82 141.73 154.25 141.73 152.24 159.76 141.81 159.76 143.82"/><polygon class="j" points="159.76 147.68 141.73 158.11 141.73 156.1 159.76 145.67 159.76 147.68"/><polygon class="j" points="159.76 151.53 141.73 161.97 141.73 159.96 159.76 149.53 159.76 151.53"/><polygon class="j" points="140.08 171.88 140.08 175.51 219.49 129.56 219.49 125.94 140.08 171.88"/><path class="j" d="M203.5,100.12c-6.08,3.51-11,12-11,19s5,9.8,11,6.29,11-12,11-19S209.58,96.61,203.5,100.12Z"/><polygon class="aj" points="432.92 8.97 518.03 113.26 518.03 58.21 432.92 8.97"/></g></g></svg>