<svg xmlns="http://www.w3.org/2000/svg" xmlns:xlink="http://www.w3.org/1999/xlink" viewBox="0 0 1920 1080"><defs><style>.a{fill:#fff;}.b{fill:#20262b;}.c{mask:url(#a);}.d{opacity:0.03;}.e{fill:none;stroke:#00ffec;stroke-miterlimit:10;stroke-width:2px;}.f{opacity:0.5;}.g{fill:#3498db;}.h{fill:url(#b);}.i{fill:url(#c);}.j{fill:url(#d);}.k{fill:url(#e);}.l{fill:url(#f);}.m{fill:url(#g);}.n{fill:url(#h);}.o{fill:url(#i);}.p{fill:url(#j);}.q{fill:url(#k);}.r{fill:url(#l);}.s{fill:url(#m);}.t{fill:url(#n);}.u{fill:url(#o);}.v{fill:url(#p);}.w{fill:url(#q);}.x{fill:url(#r);}.y{fill:url(#s);}.z{fill:url(#t);}.aa{fill:url(#u);}.ab{fill:url(#v);}.ac{fill:url(#w);}.ad{fill:url(#x);}.ae{fill:url(#y);}.af{fill:url(#z);}.ag{fill:url(#aa);}.ah{fill:url(#ab);}.ai{fill:url(#ac);}.aj{fill:url(#ad);}.ak{fill:url(#ae);}.al{fill:url(#af);}.am{fill:url(#ag);}.an{fill:url(#ah);}.ao{fill:url(#ai);}.ap{fill:url(#aj);}.aq{fill:url(#ak);}.ar{fill:url(#al);}.as{fill:url(#am);}.at{fill:url(#an);}.au{fill:url(#ao);}.av{fill:url(#ap);}.aw{fill:url(#aq);}.ax{fill:url(#ar);}.ay{fill:url(#as);}.az{fill:url(#at);}.ba{fill:url(#au);}.bb{fill:url(#av);}.bc{fill:url(#aw);}.bd{fill:url(#ax);}.be{fill:url(#ay);}.bf{fill:url(#az);}.bg{fill:url(#ba);}.bh{fill:url(#bb);}.bi{fill:url(#bc);}.bj{fill:url(#bd);}.bk{fill:url(#be);}.bl{fill:url(#bf);}.bm{fill:url(#bg);}.bn{fill:url(#bh);}.bo{fill:url(#bi);}.bp{fill:url(#bj);}.bq{fill:url(#bk);}.br{fill:url(#bl);}.bs{fill:url(#bm);}.bt{fill:url(#bn);}.bu{fill:url(#bo);}.bv{fill:url(#bp);}.bw{fill:url(#bq);}</style><mask id="a" x="-1850.82" y="-1035.15" width="5553.65" height="3206.3" maskUnits="userSpaceOnUse"><rect class="a" width="1920" height="1080"/></mask><linearGradient id="b" x1="1631.58" y1="888.66" x2="1671.03" y2="820.32" gradientUnits="userSpaceOnUse"><stop offset="0" stop-color="#257eaf" stop-opacity="0"/><stop offset="1" stop-color="#257eaf"/></linearGradient><linearGradient id="c" x1="1698.47" y1="888.66" x2="1659.01" y2="820.32" gradientUnits="userSpaceOnUse"><stop offset="0" stop-color="#2c8dc4" stop-opacity="0"/><stop offset="1" stop-color="#2c8dc4"/></linearGradient><linearGradient id="d" x1="1712.15" y1="875.76" x2="1769.76" y2="775.98" xlink:href="#b"/><linearGradient id="e" x1="1809.81" y1="875.76" x2="1752.2" y2="775.98" xlink:href="#c"/><linearGradient id="f" x1="1788.34" y1="1006.44" x2="1865.15" y2="873.4" xlink:href="#b"/><linearGradient id="g" x1="1918.55" y1="1006.44" x2="1841.74" y2="873.4" xlink:href="#c"/><linearGradient id="h" x1="1600.04" y1="1028.63" x2="1657.65" y2="928.85" xlink:href="#b"/><linearGradient id="i" x1="1697.7" y1="1028.63" x2="1640.09" y2="928.85" xlink:href="#c"/><linearGradient id="j" x1="1723.3" y1="1012.32" x2="1762.76" y2="943.98" xlink:href="#b"/><linearGradient id="k" x1="1790.19" y1="1012.32" x2="1750.73" y2="943.98" xlink:href="#c"/><linearGradient id="l" x1="1359.58" y1="1093.66" x2="1427.21" y2="976.53" xlink:href="#b"/><linearGradient id="m" x1="1474.22" y1="1093.66" x2="1406.6" y2="976.53" xlink:href="#c"/><linearGradient id="n" x1="1469.15" y1="965.22" x2="1524.33" y2="869.64" xlink:href="#b"/><linearGradient id="o" x1="1562.69" y1="965.22" x2="1507.51" y2="869.64" xlink:href="#c"/><linearGradient id="p" x1="1499.27" y1="1092.31" x2="1552.98" y2="999.28" xlink:href="#b"/><linearGradient id="q" x1="1590.33" y1="1092.31" x2="1536.61" y2="999.28" xlink:href="#c"/><linearGradient id="r" x1="1816.92" y1="807.26" x2="1882.59" y2="693.5" xlink:href="#b"/><linearGradient id="s" x1="1928.25" y1="807.26" x2="1862.58" y2="693.5" xlink:href="#c"/><linearGradient id="t" x1="1631.58" y1="877.66" x2="1671.03" y2="809.32" xlink:href="#b"/><linearGradient id="u" x1="1698.47" y1="877.66" x2="1659.01" y2="809.32" xlink:href="#c"/><linearGradient id="v" x1="1712.15" y1="864.76" x2="1769.76" y2="764.98" xlink:href="#b"/><linearGradient id="w" x1="1809.81" y1="864.76" x2="1752.2" y2="764.98" xlink:href="#c"/><linearGradient id="x" x1="1788.34" y1="995.44" x2="1865.15" y2="862.4" xlink:href="#b"/><linearGradient id="y" x1="1918.55" y1="995.44" x2="1841.74" y2="862.4" xlink:href="#c"/><linearGradient id="z" x1="1600.04" y1="1017.63" x2="1657.65" y2="917.85" xlink:href="#b"/><linearGradient id="aa" x1="1697.7" y1="1017.63" x2="1640.09" y2="917.85" xlink:href="#c"/><linearGradient id="ab" x1="1723.3" y1="1001.32" x2="1762.76" y2="932.98" xlink:href="#b"/><linearGradient id="ac" x1="1790.19" y1="1001.32" x2="1750.73" y2="932.98" xlink:href="#c"/><linearGradient id="ad" x1="1359.58" y1="1082.66" x2="1427.21" y2="965.53" xlink:href="#b"/><linearGradient id="ae" x1="1474.22" y1="1082.66" x2="1406.6" y2="965.53" xlink:href="#c"/><linearGradient id="af" x1="1469.15" y1="954.22" x2="1524.33" y2="858.64" xlink:href="#b"/><linearGradient id="ag" x1="1562.69" y1="954.22" x2="1507.51" y2="858.64" xlink:href="#c"/><linearGradient id="ah" x1="1499.27" y1="1081.31" x2="1552.98" y2="988.28" xlink:href="#b"/><linearGradient id="ai" x1="1590.33" y1="1081.31" x2="1536.61" y2="988.28" xlink:href="#c"/><linearGradient id="aj" x1="1816.92" y1="796.26" x2="1882.59" y2="682.5" xlink:href="#b"/><linearGradient id="ak" x1="1928.25" y1="796.26" x2="1862.58" y2="682.5" xlink:href="#c"/><linearGradient id="al" x1="102.9" y1="837.29" x2="145.9" y2="762.81" xlink:href="#b"/><linearGradient id="am" x1="175.8" y1="837.29" x2="132.79" y2="762.81" xlink:href="#c"/><linearGradient id="an" x1="389.72" y1="981.1" x2="448.2" y2="879.82" xlink:href="#b"/><linearGradient id="ao" x1="488.85" y1="981.1" x2="430.38" y2="879.82" xlink:href="#c"/><linearGradient id="ap" x1="477.05" y1="831.37" x2="535.52" y2="730.09" xlink:href="#b"/><linearGradient id="aq" x1="576.18" y1="831.37" x2="517.7" y2="730.09" xlink:href="#c"/><linearGradient id="ar" x1="457.11" y1="1115.13" x2="515.59" y2="1013.85" xlink:href="#b"/><linearGradient id="as" x1="556.24" y1="1115.13" x2="497.77" y2="1013.85" xlink:href="#c"/><linearGradient id="at" x1="231.18" y1="936.35" x2="314.9" y2="791.35" xlink:href="#b"/><linearGradient id="au" x1="373.1" y1="936.35" x2="289.38" y2="791.35" xlink:href="#c"/><linearGradient id="av" x1="143.7" y1="1031.63" x2="206.48" y2="922.88" xlink:href="#b"/><linearGradient id="aw" x1="250.14" y1="1031.63" x2="187.35" y2="922.88" xlink:href="#c"/><linearGradient id="ax" x1="8.32" y1="1022.14" x2="79.9" y2="898.16" xlink:href="#b"/><linearGradient id="ay" x1="129.67" y1="1022.14" x2="58.09" y2="898.16" xlink:href="#c"/><linearGradient id="az" x1="303.22" y1="1031.62" x2="346.22" y2="957.13" xlink:href="#b"/><linearGradient id="ba" x1="376.12" y1="1031.62" x2="333.12" y2="957.13" xlink:href="#c"/><linearGradient id="bb" x1="102.9" y1="825.29" x2="145.9" y2="750.81" xlink:href="#b"/><linearGradient id="bc" x1="175.8" y1="825.29" x2="132.79" y2="750.81" xlink:href="#c"/><linearGradient id="bd" x1="389.72" y1="970.1" x2="448.2" y2="868.82" xlink:href="#b"/><linearGradient id="be" x1="488.85" y1="970.1" x2="430.38" y2="868.82" xlink:href="#c"/><linearGradient id="bf" x1="477.05" y1="822.37" x2="535.52" y2="721.09" xlink:href="#b"/><linearGradient id="bg" x1="576.18" y1="822.37" x2="517.7" y2="721.09" xlink:href="#c"/><linearGradient id="bh" x1="457.11" y1="1104.13" x2="515.59" y2="1002.85" xlink:href="#b"/><linearGradient id="bi" x1="556.24" y1="1104.13" x2="497.77" y2="1002.85" xlink:href="#c"/><linearGradient id="bj" x1="231.18" y1="925.35" x2="314.9" y2="780.35" xlink:href="#b"/><linearGradient id="bk" x1="373.1" y1="925.35" x2="289.38" y2="780.35" xlink:href="#c"/><linearGradient id="bl" x1="143.7" y1="1020.63" x2="206.48" y2="911.88" xlink:href="#b"/><linearGradient id="bm" x1="250.14" y1="1020.63" x2="187.35" y2="911.88" xlink:href="#c"/><linearGradient id="bn" x1="8.32" y1="1011.14" x2="79.9" y2="887.16" xlink:href="#b"/><linearGradient id="bo" x1="129.67" y1="1011.14" x2="58.09" y2="887.16" xlink:href="#c"/><linearGradient id="bp" x1="303.22" y1="1020.62" x2="346.22" y2="946.13" xlink:href="#b"/><linearGradient id="bq" x1="376.12" y1="1020.62" x2="333.12" y2="946.13" xlink:href="#c"/></defs><title>Website mockups</title><rect class="b" width="1920" height="1080"/><g class="c"><g class="d"><polygon class="e" points="-1848.82 1102 1.01 34 1850.82 1102 0.99 2170 -1848.82 1102"/><line class="e" x1="-87.09" y1="2119.14" x2="1762.74" y2="1051.14"/><line class="e" x1="-175.18" y1="2068.28" x2="1674.65" y2="1000.28"/><line class="e" x1="-263.27" y1="2017.43" x2="1586.56" y2="949.43"/><line class="e" x1="-351.35" y1="1966.57" x2="1498.48" y2="898.57"/><line class="e" x1="-439.44" y1="1915.71" x2="1410.39" y2="847.71"/><line class="e" x1="-527.53" y1="1864.86" x2="1322.3" y2="796.86"/><line class="e" x1="-615.61" y1="1814" x2="1234.22" y2="746"/><line class="e" x1="-703.7" y1="1763.14" x2="1146.13" y2="695.14"/><line class="e" x1="-791.79" y1="1712.29" x2="1058.05" y2="644.29"/><line class="e" x1="-879.87" y1="1661.43" x2="969.96" y2="593.43"/><line class="e" x1="-967.96" y1="1610.57" x2="881.87" y2="542.57"/><line class="e" x1="-1056.05" y1="1559.71" x2="793.79" y2="491.71"/><line class="e" x1="-1144.13" y1="1508.86" x2="705.7" y2="440.86"/><line class="e" x1="-1232.22" y1="1458" x2="617.61" y2="390"/><line class="e" x1="-1320.3" y1="1407.14" x2="529.53" y2="339.14"/><line class="e" x1="-1408.39" y1="1356.29" x2="441.44" y2="288.29"/><line class="e" x1="-1496.48" y1="1305.43" x2="353.35" y2="237.43"/><line class="e" x1="-1584.56" y1="1254.57" x2="265.27" y2="186.57"/><line class="e" x1="-1672.65" y1="1203.72" x2="177.18" y2="135.72"/><line class="e" x1="-1760.74" y1="1152.86" x2="89.09" y2="84.86"/><line class="e" x1="-87.08" y1="84.86" x2="1762.74" y2="1152.85"/><line class="e" x1="-175.17" y1="135.72" x2="1674.65" y2="1203.71"/><line class="e" x1="-263.26" y1="186.57" x2="1586.56" y2="1254.57"/><line class="e" x1="-351.34" y1="237.43" x2="1498.48" y2="1305.43"/><line class="e" x1="-439.43" y1="288.29" x2="1410.39" y2="1356.28"/><line class="e" x1="-527.52" y1="339.15" x2="1322.3" y2="1407.14"/><line class="e" x1="-615.6" y1="390" x2="1234.21" y2="1458"/><line class="e" x1="-703.69" y1="440.86" x2="1146.13" y2="1508.85"/><line class="e" x1="-791.78" y1="491.72" x2="1058.04" y2="1559.71"/><line class="e" x1="-879.87" y1="542.57" x2="969.95" y2="1610.57"/><line class="e" x1="-967.95" y1="593.43" x2="881.87" y2="1661.43"/><line class="e" x1="-1056.04" y1="644.29" x2="793.78" y2="1712.28"/><line class="e" x1="-1144.13" y1="695.15" x2="705.69" y2="1763.14"/><line class="e" x1="-1232.21" y1="746" x2="617.6" y2="1814"/><line class="e" x1="-1320.3" y1="796.86" x2="529.52" y2="1864.85"/><line class="e" x1="-1408.39" y1="847.72" x2="441.43" y2="1915.71"/><line class="e" x1="-1496.48" y1="898.57" x2="353.34" y2="1966.57"/><line class="e" x1="-1584.56" y1="949.43" x2="265.26" y2="2017.43"/><line class="e" x1="-1672.65" y1="1000.29" x2="177.17" y2="2068.28"/><line class="e" x1="-1760.74" y1="1051.15" x2="89.08" y2="2119.14"/></g><g class="d"><polygon class="e" points="1.18 34 1851.01 -1034 3700.82 34 1850.99 1102 1.18 34"/><line class="e" x1="1762.91" y1="1051.14" x2="3612.74" y2="-16.86"/><line class="e" x1="1674.82" y1="1000.28" x2="3524.65" y2="-67.72"/><line class="e" x1="1586.73" y1="949.43" x2="3436.56" y2="-118.57"/><line class="e" x1="1498.65" y1="898.57" x2="3348.48" y2="-169.43"/><line class="e" x1="1410.56" y1="847.71" x2="3260.39" y2="-220.29"/><line class="e" x1="1322.47" y1="796.86" x2="3172.3" y2="-271.14"/><line class="e" x1="1234.39" y1="746" x2="3084.22" y2="-322"/><line class="e" x1="1146.3" y1="695.14" x2="2996.13" y2="-372.86"/><line class="e" x1="1058.21" y1="644.29" x2="2908.05" y2="-423.71"/><line class="e" x1="970.13" y1="593.43" x2="2819.96" y2="-474.57"/><line class="e" x1="882.04" y1="542.57" x2="2731.87" y2="-525.43"/><line class="e" x1="793.95" y1="491.71" x2="2643.79" y2="-576.29"/><line class="e" x1="705.87" y1="440.86" x2="2555.7" y2="-627.14"/><line class="e" x1="617.78" y1="390" x2="2467.61" y2="-678"/><line class="e" x1="529.7" y1="339.14" x2="2379.53" y2="-728.86"/><line class="e" x1="441.61" y1="288.29" x2="2291.44" y2="-779.71"/><line class="e" x1="353.52" y1="237.43" x2="2203.35" y2="-830.57"/><line class="e" x1="265.44" y1="186.57" x2="2115.27" y2="-881.43"/><line class="e" x1="177.35" y1="135.72" x2="2027.18" y2="-932.28"/><line class="e" x1="89.26" y1="84.86" x2="1939.09" y2="-983.14"/><line class="e" x1="1762.92" y1="-983.14" x2="3612.74" y2="84.85"/><line class="e" x1="1674.83" y1="-932.28" x2="3524.65" y2="135.71"/><line class="e" x1="1586.74" y1="-881.43" x2="3436.56" y2="186.57"/><line class="e" x1="1498.66" y1="-830.57" x2="3348.48" y2="237.43"/><line class="e" x1="1410.57" y1="-779.71" x2="3260.39" y2="288.28"/><line class="e" x1="1322.48" y1="-728.85" x2="3172.3" y2="339.14"/><line class="e" x1="1234.4" y1="-678" x2="3084.21" y2="390"/><line class="e" x1="1146.31" y1="-627.14" x2="2996.13" y2="440.85"/><line class="e" x1="1058.22" y1="-576.28" x2="2908.04" y2="491.71"/><line class="e" x1="970.13" y1="-525.43" x2="2819.95" y2="542.57"/><line class="e" x1="882.05" y1="-474.57" x2="2731.87" y2="593.43"/><line class="e" x1="793.96" y1="-423.71" x2="2643.78" y2="644.28"/><line class="e" x1="705.87" y1="-372.85" x2="2555.69" y2="695.14"/><line class="e" x1="617.79" y1="-322" x2="2467.6" y2="746"/><line class="e" x1="529.7" y1="-271.14" x2="2379.52" y2="796.85"/><line class="e" x1="441.61" y1="-220.28" x2="2291.43" y2="847.71"/><line class="e" x1="353.52" y1="-169.43" x2="2203.34" y2="898.57"/><line class="e" x1="265.44" y1="-118.57" x2="2115.26" y2="949.43"/><line class="e" x1="177.35" y1="-67.71" x2="2027.17" y2="1000.28"/><line class="e" x1="89.26" y1="-16.85" x2="1939.08" y2="1051.14"/></g></g><g class="f"><polygon class="g" points="1692.45 801.01 1665.02 816.85 1637.59 801.01 1665.02 785.17 1692.45 801.01"/><polygon class="h" points="1665.02 907.97 1637.59 892.13 1637.59 801.01 1665.02 816.85 1665.02 907.97"/><polygon class="i" points="1692.45 892.13 1665.02 907.97 1665.02 816.85 1692.45 801.01 1692.45 892.13"/></g><g class="f"><polygon class="g" points="1801.03 747.79 1760.98 770.91 1720.93 747.79 1760.98 724.66 1801.03 747.79"/><polygon class="j" points="1760.98 903.95 1720.93 880.82 1720.93 747.79 1760.98 770.91 1760.98 903.95"/><polygon class="k" points="1801.03 880.82 1760.98 903.95 1760.98 770.91 1801.03 747.79 1801.03 880.82"/></g><g class="f"><polygon class="g" points="1906.85 835.81 1853.45 866.64 1800.05 835.81 1853.45 804.98 1906.85 835.81"/><polygon class="l" points="1853.45 1044.03 1800.05 1013.2 1800.05 835.81 1853.45 866.64 1853.45 1044.03"/><polygon class="m" points="1906.85 1013.2 1853.45 1044.03 1853.45 866.64 1906.85 835.81 1906.85 1013.2"/></g><g class="f"><polygon class="g" points="1688.92 900.66 1648.87 923.78 1608.82 900.66 1648.87 877.54 1688.92 900.66"/><polygon class="n" points="1648.87 1056.82 1608.82 1033.7 1608.82 900.66 1648.87 923.79 1648.87 1056.82"/><polygon class="o" points="1688.92 1033.7 1648.87 1056.82 1648.87 923.79 1688.92 900.66 1688.92 1033.7"/></g><g class="f"><polygon class="g" points="1784.18 924.67 1756.75 940.5 1729.31 924.67 1756.75 908.83 1784.18 924.67"/><polygon class="p" points="1756.75 1031.63 1729.32 1015.79 1729.32 924.67 1756.75 940.51 1756.75 1031.63"/><polygon class="q" points="1784.18 1015.79 1756.75 1031.63 1756.75 940.51 1784.18 924.67 1784.18 1015.79"/></g><g class="f"><polygon class="g" points="1463.92 943.43 1416.9 970.58 1369.89 943.43 1416.9 916.29 1463.92 943.43"/><polygon class="r" points="1416.9 1126.75 1369.89 1099.61 1369.89 943.43 1416.9 970.58 1416.9 1126.75"/><polygon class="s" points="1463.92 1099.61 1416.9 1126.75 1416.9 970.58 1463.92 943.43 1463.92 1099.61"/></g><g class="f"><polygon class="g" points="1554.28 842.64 1515.92 864.79 1477.56 842.64 1515.92 820.49 1554.28 842.64"/><polygon class="t" points="1515.92 992.22 1477.56 970.07 1477.56 842.64 1515.92 864.79 1515.92 992.22"/><polygon class="u" points="1554.28 970.07 1515.92 992.22 1515.92 864.79 1554.28 842.64 1554.28 970.07"/></g><g class="f"><polygon class="g" points="1582.14 972.99 1544.8 994.55 1507.45 972.99 1544.8 951.43 1582.14 972.99"/><polygon class="v" points="1544.8 1118.6 1507.45 1097.04 1507.45 972.99 1544.8 994.55 1544.8 1118.6"/><polygon class="w" points="1582.14 1097.04 1544.8 1118.6 1544.8 994.55 1582.14 972.99 1582.14 1097.04"/></g><g class="f"><polygon class="g" points="1918.25 661.36 1872.58 687.73 1826.92 661.36 1872.59 635 1918.25 661.36"/><polygon class="x" points="1872.59 839.4 1826.92 813.04 1826.92 661.36 1872.59 687.73 1872.59 839.4"/><polygon class="y" points="1918.25 813.04 1872.59 839.4 1872.59 687.73 1918.25 661.36 1918.25 813.04"/></g><g class="f"><polygon class="g" points="1692.45 790.01 1665.02 805.85 1637.59 790.01 1665.02 774.17 1692.45 790.01"/><polygon class="z" points="1665.02 896.97 1637.59 881.13 1637.59 790.01 1665.02 805.85 1665.02 896.97"/><polygon class="aa" points="1692.45 881.13 1665.02 896.97 1665.02 805.85 1692.45 790.01 1692.45 881.13"/></g><g class="f"><polygon class="g" points="1801.03 736.79 1760.98 759.91 1720.93 736.79 1760.98 713.66 1801.03 736.79"/><polygon class="ab" points="1760.98 892.95 1720.93 869.82 1720.93 736.79 1760.98 759.91 1760.98 892.95"/><polygon class="ac" points="1801.03 869.82 1760.98 892.95 1760.98 759.91 1801.03 736.79 1801.03 869.82"/></g><g class="f"><polygon class="g" points="1906.85 824.81 1853.45 855.64 1800.05 824.81 1853.45 793.98 1906.85 824.81"/><polygon class="ad" points="1853.45 1033.03 1800.05 1002.2 1800.05 824.81 1853.45 855.64 1853.45 1033.03"/><polygon class="ae" points="1906.85 1002.2 1853.45 1033.03 1853.45 855.64 1906.85 824.81 1906.85 1002.2"/></g><g class="f"><polygon class="g" points="1688.92 889.66 1648.87 912.78 1608.82 889.66 1648.87 866.54 1688.92 889.66"/><polygon class="af" points="1648.87 1045.82 1608.82 1022.7 1608.82 889.66 1648.87 912.79 1648.87 1045.82"/><polygon class="ag" points="1688.92 1022.7 1648.87 1045.82 1648.87 912.79 1688.92 889.66 1688.92 1022.7"/></g><g class="f"><polygon class="g" points="1784.18 913.67 1756.75 929.5 1729.31 913.67 1756.75 897.83 1784.18 913.67"/><polygon class="ah" points="1756.75 1020.63 1729.32 1004.79 1729.32 913.67 1756.75 929.51 1756.75 1020.63"/><polygon class="ai" points="1784.18 1004.79 1756.75 1020.63 1756.75 929.51 1784.18 913.67 1784.18 1004.79"/></g><g class="f"><polygon class="g" points="1463.92 932.43 1416.9 959.58 1369.89 932.43 1416.9 905.29 1463.92 932.43"/><polygon class="aj" points="1416.9 1115.75 1369.89 1088.61 1369.89 932.43 1416.9 959.58 1416.9 1115.75"/><polygon class="ak" points="1463.92 1088.61 1416.9 1115.75 1416.9 959.58 1463.92 932.43 1463.92 1088.61"/></g><g class="f"><polygon class="g" points="1554.28 831.64 1515.92 853.79 1477.56 831.64 1515.92 809.49 1554.28 831.64"/><polygon class="al" points="1515.92 981.22 1477.56 959.07 1477.56 831.64 1515.92 853.79 1515.92 981.22"/><polygon class="am" points="1554.28 959.07 1515.92 981.22 1515.92 853.79 1554.28 831.64 1554.28 959.07"/></g><g class="f"><polygon class="g" points="1582.14 961.99 1544.8 983.55 1507.45 961.99 1544.8 940.43 1582.14 961.99"/><polygon class="an" points="1544.8 1107.6 1507.45 1086.04 1507.45 961.99 1544.8 983.55 1544.8 1107.6"/><polygon class="ao" points="1582.14 1086.04 1544.8 1107.6 1544.8 983.55 1582.14 961.99 1582.14 1086.04"/></g><g class="f"><polygon class="g" points="1918.25 650.36 1872.58 676.73 1826.92 650.36 1872.59 624 1918.25 650.36"/><polygon class="ap" points="1872.59 828.4 1826.92 802.04 1826.92 650.36 1872.59 676.73 1872.59 828.4"/><polygon class="aq" points="1918.25 802.04 1872.59 828.4 1872.59 676.73 1918.25 650.36 1918.25 802.04"/></g><g class="f"><polygon class="g" points="169.24 741.76 139.34 759.02 109.45 741.76 139.34 724.5 169.24 741.76"/><polygon class="ar" points="139.35 858.34 109.45 841.07 109.45 741.76 139.35 759.02 139.35 858.34"/><polygon class="as" points="169.24 841.07 139.35 858.34 139.35 759.02 169.24 741.76 169.24 841.07"/></g><g class="f"><polygon class="g" points="479.94 851.2 439.29 874.67 398.63 851.2 439.29 827.73 479.94 851.2"/><polygon class="at" points="439.29 1009.71 398.63 986.24 398.63 851.2 439.29 874.67 439.29 1009.71"/><polygon class="au" points="479.94 986.24 439.29 1009.71 439.29 874.67 479.94 851.2 479.94 986.24"/></g><g class="f"><polygon class="g" points="567.26 701.47 526.61 724.94 485.96 701.47 526.61 678 567.26 701.47"/><polygon class="av" points="526.61 859.99 485.96 836.51 485.96 701.47 526.61 724.94 526.61 859.99"/><polygon class="aw" points="567.27 836.51 526.61 859.99 526.61 724.94 567.27 701.47 567.27 836.51"/></g><g class="f"><polygon class="g" points="547.33 985.24 506.68 1008.71 466.02 985.24 506.68 961.76 547.33 985.24"/><polygon class="ax" points="506.68 1143.75 466.02 1120.28 466.02 985.24 506.68 1008.71 506.68 1143.75"/><polygon class="ay" points="547.33 1120.28 506.68 1143.75 506.68 1008.71 547.33 985.24 547.33 1120.28"/></g><g class="f"><polygon class="g" points="360.34 750.38 302.14 783.98 243.94 750.38 302.14 716.77 360.34 750.38"/><polygon class="az" points="302.14 977.32 243.94 943.71 243.94 750.38 302.14 783.98 302.14 977.32"/><polygon class="ba" points="360.34 943.71 302.14 977.32 302.14 783.98 360.34 750.38 360.34 943.71"/></g><g class="f"><polygon class="g" points="240.57 892.15 196.92 917.35 153.26 892.15 196.92 866.95 240.57 892.15"/><polygon class="bb" points="196.92 1062.35 153.27 1037.15 153.27 892.15 196.92 917.36 196.92 1062.35"/><polygon class="bc" points="240.57 1037.15 196.92 1062.35 196.92 917.36 240.57 892.15 240.57 1037.15"/></g><g class="f"><polygon class="g" points="118.76 863.13 69 891.86 19.23 863.13 69 834.39 118.76 863.13"/><polygon class="bd" points="69 1057.17 19.23 1028.44 19.23 863.13 69 891.86 69 1057.17"/><polygon class="be" points="118.76 1028.44 69 1057.17 69 891.86 118.76 863.13 118.76 1028.44"/></g><g class="f"><polygon class="g" points="369.57 936.09 339.67 953.35 309.77 936.09 339.67 918.83 369.57 936.09"/><polygon class="bf" points="339.67 1052.66 309.77 1035.4 309.77 936.09 339.67 953.35 339.67 1052.66"/><polygon class="bg" points="369.57 1035.4 339.67 1052.66 339.67 953.35 369.57 936.09 369.57 1035.4"/></g><g class="f"><polygon class="g" points="169.24 729.76 139.34 747.02 109.45 729.76 139.34 712.5 169.24 729.76"/><polygon class="bh" points="139.35 846.34 109.45 829.07 109.45 729.76 139.35 747.02 139.35 846.34"/><polygon class="bi" points="169.24 829.07 139.35 846.34 139.35 747.02 169.24 729.76 169.24 829.07"/></g><g class="f"><polygon class="g" points="479.94 840.2 439.29 863.67 398.63 840.2 439.29 816.73 479.94 840.2"/><polygon class="bj" points="439.29 998.71 398.63 975.24 398.63 840.2 439.29 863.67 439.29 998.71"/><polygon class="bk" points="479.94 975.24 439.29 998.71 439.29 863.67 479.94 840.2 479.94 975.24"/></g><g class="f"><polygon class="g" points="567.26 692.47 526.61 715.94 485.96 692.47 526.61 669 567.26 692.47"/><polygon class="bl" points="526.61 850.99 485.96 827.51 485.96 692.47 526.61 715.94 526.61 850.99"/><polygon class="bm" points="567.27 827.51 526.61 850.99 526.61 715.94 567.27 692.47 567.27 827.51"/></g><g class="f"><polygon class="g" points="547.33 974.24 506.68 997.71 466.02 974.24 506.68 950.76 547.33 974.24"/><polygon class="bn" points="506.68 1132.75 466.02 1109.28 466.02 974.24 506.68 997.71 506.68 1132.75"/><polygon class="bo" points="547.33 1109.28 506.68 1132.75 506.68 997.71 547.33 974.24 547.33 1109.28"/></g><g class="f"><polygon class="g" points="360.34 739.38 302.14 772.98 243.94 739.38 302.14 705.77 360.34 739.38"/><polygon class="bp" points="302.14 966.32 243.94 932.71 243.94 739.38 302.14 772.98 302.14 966.32"/><polygon class="bq" points="360.34 932.71 302.14 966.32 302.14 772.98 360.34 739.38 360.34 932.71"/></g><g class="f"><polygon class="g" points="240.57 881.15 196.92 906.35 153.26 881.15 196.92 855.95 240.57 881.15"/><polygon class="br" points="196.92 1051.35 153.27 1026.15 153.27 881.15 196.92 906.36 196.92 1051.35"/><polygon class="bs" points="240.57 1026.15 196.92 1051.35 196.92 906.36 240.57 881.15 240.57 1026.15"/></g><g class="f"><polygon class="g" points="118.76 852.13 69 880.86 19.23 852.13 69 823.39 118.76 852.13"/><polygon class="bt" points="69 1046.17 19.23 1017.44 19.23 852.13 69 880.86 69 1046.17"/><polygon class="bu" points="118.76 1017.44 69 1046.17 69 880.86 118.76 852.13 118.76 1017.44"/></g><g class="f"><polygon class="g" points="369.57 925.09 339.67 942.35 309.77 925.09 339.67 907.83 369.57 925.09"/><polygon class="bv" points="339.67 1041.66 309.77 1024.4 309.77 925.09 339.67 942.35 339.67 1041.66"/><polygon class="bw" points="369.57 1024.4 339.67 1041.66 339.67 942.35 369.57 925.09 369.57 1024.4"/></g></svg>